<svg width="36" height="28" viewBox="0 0 36 28" fill="none" xmlns="http://www.w3.org/2000/svg">
<path d="M2 18C2 18 4.9 8 16.5 8M16.5 8C28.1 8 31 18 31 18M16.5 8V2M27.375 4L23.75 9M5.625 4L7.67362 6.82569L8.57987 8.07569L9.25 9M34 9L29 12M6.64931 5.41284L7.4375 6.5M21.9375 20C21.9375 23.3138 19.5031 26 16.5 26C13.4969 26 11.0625 23.3138 11.0625 20C11.0625 16.6862 13.4969 14 16.5 14C19.5031 14 21.9375 16.6862 21.9375 20Z" stroke="#16B22E" stroke-width="3" stroke-linecap="round" stroke-linejoin="round"/>
</svg>
