<svg width="36" height="43" viewBox="0 0 36 43" fill="none" xmlns="http://www.w3.org/2000/svg">
<path d="M4.03409 12.0123C3.78933 11.3302 3.12797 11.0142 2.55689 11.3066C1.98581 11.5989 1.72125 12.3889 1.96601 13.071L4.03409 12.0123ZM13.5622 24.6134C13.9011 23.9915 13.7536 23.1591 13.2328 22.7543C12.712 22.3496 12.0152 22.5257 11.6763 23.1478L13.5622 24.6134ZM9.55709 27.038C9.21822 27.6599 9.3657 28.4923 9.88649 28.8971C10.4073 29.3018 11.1041 29.1257 11.443 28.5036L9.55709 27.038ZM34.0341 13.071C34.2788 12.3889 34.0143 11.5989 33.4431 11.3066C32.8721 11.0142 32.2107 11.3302 31.9659 12.0123L34.0341 13.071ZM29.9546 23.5769C30.3939 24.1017 31.1061 24.1017 31.5455 23.5769C31.9848 23.0521 31.9848 22.2013 31.5455 21.6765L29.9546 23.5769ZM16.875 29.5625C16.875 30.3046 17.3787 30.9062 18 30.9062C18.6213 30.9062 19.125 30.3046 19.125 29.5625H16.875ZM24.5571 28.5036C24.896 29.1257 25.5929 29.3018 26.1135 28.8971C26.6343 28.4923 26.7818 27.6599 26.4429 27.038L24.5571 28.5036ZM8.29554 20.8894C8.73488 20.3646 8.73488 19.5138 8.29554 18.989C7.85621 18.4642 7.14389 18.4642 6.70455 18.989L8.29554 20.8894ZM4.45455 21.6765C4.01522 22.2013 4.01522 23.0521 4.45455 23.5769C4.89389 24.1017 5.60621 24.1017 6.04554 23.5769L4.45455 21.6765ZM18 23.7396C13.1642 23.7396 9.69204 20.8632 7.38695 17.8981C6.23472 16.416 5.38992 14.9297 4.83393 13.814C4.55658 13.2574 4.35285 12.7967 4.22015 12.4796C4.15383 12.3212 4.10538 12.199 4.07445 12.119C4.059 12.0791 4.04793 12.0497 4.04121 12.0316C4.03785 12.0226 4.03527 12.0156 4.03409 12.0123C4.03406 12.0123 4.03413 12.0125 4.03409 12.0123C4.03424 12.0127 4.03409 12.0123 3.00005 12.5417C1.96601 13.071 1.96578 13.0704 1.96601 13.071C1.9661 13.0713 1.96676 13.0731 1.96695 13.0736C1.96733 13.0747 1.96779 13.0759 1.96832 13.0774C1.96935 13.0803 1.97069 13.0839 1.97229 13.0883C1.97552 13.0971 1.97987 13.1089 1.98534 13.1237C1.99629 13.1531 2.01177 13.1941 2.03184 13.246C2.07195 13.3497 2.13044 13.497 2.20769 13.6815C2.36208 14.0504 2.59196 14.5694 2.90054 15.1886C3.51642 16.4245 4.45287 18.0736 5.73815 19.7268C8.30805 23.0326 12.3359 26.4271 18 26.4271V23.7396ZM22.9688 22.6302C21.5132 23.3146 19.8626 23.7396 18 23.7396V26.4271C20.1573 26.4271 22.0869 25.9329 23.7929 25.131L22.9688 22.6302ZM11.6763 23.1478L9.55709 27.038L11.443 28.5036L13.5622 24.6134L11.6763 23.1478ZM33 12.5417C31.9659 12.0123 31.9658 12.0126 31.9659 12.0123C31.9661 12.0121 31.9667 12.0104 31.9667 12.0106C31.9665 12.011 31.9661 12.0123 31.9652 12.0145C31.9635 12.0189 31.9605 12.027 31.9562 12.0386C31.9475 12.0619 31.9334 12.0993 31.9137 12.1497C31.8743 12.2506 31.8129 12.4036 31.7289 12.6002C31.5609 12.9937 31.3035 13.5599 30.9531 14.2316C30.2504 15.5788 29.1845 17.3289 27.7301 18.9594L29.27 20.919C30.9035 19.0875 32.0876 17.1389 32.8628 15.6528C33.2514 14.9079 33.54 14.2739 33.7334 13.8212C33.83 13.5947 33.903 13.4132 33.953 13.2853C33.9779 13.2214 33.9971 13.1709 34.0106 13.1348C34.0173 13.1167 34.0227 13.1023 34.0266 13.0916C34.0286 13.0863 34.0301 13.0819 34.0314 13.0785C34.032 13.0767 34.0325 13.0752 34.0329 13.074C34.0332 13.0734 34.034 13.0715 34.0341 13.071C34.0341 13.0711 34.0343 13.0707 34.0341 13.071C34.0343 13.0707 34.0341 13.071 33 12.5417ZM27.7301 18.9594C26.4416 20.4039 24.8609 21.7406 22.9688 22.6302L23.7929 25.131C26.0033 24.0918 27.8199 22.5445 29.27 20.919L27.7301 18.9594ZM27.7046 20.8894L29.9546 23.5769L31.5455 21.6765L29.2955 18.989L27.7046 20.8894ZM16.875 25.0833V29.5625H19.125V25.0833H16.875ZM22.4379 24.6134L24.5571 28.5036L26.4429 27.038L24.3237 23.1478L22.4379 24.6134ZM6.70455 18.989L4.45455 21.6765L6.04554 23.5769L8.29554 20.8894L6.70455 18.989Z" fill="#16B32E"/>
</svg>
