<svg width="374" height="519" viewBox="0 0 374 519" fill="none" xmlns="http://www.w3.org/2000/svg">
<path fill-rule="evenodd" clip-rule="evenodd" d="M324.789 222.723C324.751 247.556 315.334 271.625 298.117 290.901C343.158 303.879 373.825 341.82 374 384.778V519H354.316V474.26H314.947V519H295.263V420.57H314.947V456.364H354.316V384.778C354.304 370.481 350.08 356.451 342.082 344.142C336.734 360.381 321.692 372.44 303.302 375.227C284.913 378.014 266.381 371.044 255.532 357.262C243.292 376.964 221.532 390.253 196.843 393.107V438.466H177.157V393.107C152.468 390.253 130.71 376.964 118.471 357.262C107.619 371.044 89.0874 378.014 70.6977 375.227C52.308 372.44 37.2656 360.381 31.918 344.142C23.9221 356.451 19.6962 370.481 19.6861 384.778V456.364H59.0532V420.57H78.7367V519H59.0532V474.26H19.6861V519H0V384.778C0.16711 341.817 30.8369 303.875 75.8832 290.901C58.6658 271.625 49.2494 247.556 49.2114 222.723V214.759C27.4694 214.759 9.84176 198.734 9.84176 178.966C9.84176 159.198 27.4694 143.173 49.2114 143.173V125.276C49.2114 56.0879 110.9 0 187.001 0C263.1 0 324.789 56.0879 324.789 125.276V143.173C346.531 143.173 364.158 159.198 364.158 178.966C364.158 198.734 346.531 214.759 324.789 214.759V222.723ZM68.8949 125.276V222.723C68.8924 246.717 79.3748 269.729 98.0379 286.696C116.696 303.663 142.008 313.194 168.399 313.189H205.601C231.992 313.194 257.304 303.663 275.965 286.696C294.625 269.729 305.108 246.717 305.105 222.723V125.276C305.105 65.9721 252.227 17.8965 187.001 17.8965C121.773 17.8965 68.8949 65.9721 68.8949 125.276ZM157.473 170.017H118.106C112.67 170.017 108.265 166.011 108.265 161.069C108.265 156.127 112.67 152.121 118.106 152.121H157.473C162.91 152.121 167.315 156.127 167.315 161.069C167.315 166.011 162.91 170.017 157.473 170.017ZM177.157 223.707H187.001C197.871 223.707 206.685 215.695 206.685 205.811V170.017H255.894C261.33 170.017 265.735 166.012 265.735 161.069C265.735 156.127 261.33 152.121 255.894 152.121H206.685C195.813 152.121 187.001 160.133 187.001 170.017V205.811H177.157C171.723 205.811 167.315 209.817 167.315 214.759C167.315 219.701 171.723 223.707 177.157 223.707ZM49.2114 161.069C38.3391 161.069 29.5279 169.082 29.5279 178.966C29.5279 188.85 38.3391 196.862 49.2114 196.862V161.069ZM324.789 196.862C335.661 196.862 344.472 188.85 344.472 178.966C344.472 169.082 335.661 161.069 324.789 161.069V196.862ZM137.79 196.862C138.436 196.862 139.076 196.805 139.709 196.691C140.345 196.576 140.96 196.406 141.557 196.182C142.152 195.956 142.72 195.681 143.259 195.355C143.796 195.028 144.292 194.657 144.75 194.241C145.206 193.826 145.614 193.374 145.973 192.886C146.333 192.397 146.637 191.881 146.882 191.339C147.13 190.796 147.318 190.236 147.444 189.66C147.568 189.084 147.632 188.502 147.632 187.914C147.632 187.326 147.568 186.744 147.444 186.168C147.318 185.592 147.13 185.032 146.882 184.489C146.637 183.947 146.333 183.431 145.973 182.942C145.614 182.454 145.206 182.002 144.75 181.587C144.292 181.171 143.796 180.8 143.259 180.474C142.72 180.147 142.152 179.872 141.557 179.647C140.96 179.422 140.345 179.252 139.709 179.138C139.076 179.023 138.436 178.966 137.79 178.966C137.144 178.966 136.504 179.023 135.871 179.138C135.235 179.252 134.62 179.422 134.022 179.647C133.427 179.872 132.86 180.147 132.321 180.474C131.784 180.8 131.288 181.171 130.83 181.587C130.374 182.002 129.966 182.454 129.607 182.942C129.247 183.431 128.943 183.947 128.698 184.489C128.449 185.032 128.262 185.592 128.135 186.168C128.011 186.744 127.948 187.326 127.948 187.914C127.948 188.502 128.011 189.084 128.135 189.66C128.262 190.236 128.449 190.796 128.698 191.339C128.943 191.881 129.247 192.397 129.607 192.886C129.966 193.374 130.374 193.826 130.83 194.241C131.288 194.657 131.784 195.028 132.321 195.355C132.86 195.681 133.427 195.956 134.022 196.182C134.62 196.406 135.235 196.576 135.871 196.691C136.504 196.805 137.144 196.862 137.79 196.862ZM236.21 196.862C236.856 196.862 237.496 196.805 238.132 196.691C238.765 196.576 239.38 196.406 239.978 196.182C240.575 195.956 241.142 195.681 241.679 195.355C242.216 195.028 242.712 194.657 243.171 194.241C243.626 193.826 244.036 193.374 244.393 192.886C244.753 192.397 245.057 191.881 245.305 191.339C245.551 190.796 245.738 190.236 245.865 189.66C245.989 189.084 246.052 188.502 246.052 187.914C246.052 187.326 245.989 186.744 245.865 186.168C245.738 185.592 245.551 185.032 245.305 184.489C245.057 183.947 244.753 183.431 244.393 182.942C244.036 182.454 243.626 182.002 243.171 181.587C242.712 181.171 242.216 180.8 241.679 180.474C241.142 180.147 240.575 179.872 239.978 179.647C239.38 179.422 238.765 179.252 238.132 179.138C237.496 179.023 236.856 178.966 236.21 178.966C235.564 178.966 234.924 179.023 234.291 179.138C233.655 179.252 233.04 179.422 232.445 179.647C231.848 179.872 231.28 180.147 230.741 180.474C230.204 180.8 229.708 181.171 229.252 181.587C228.794 182.002 228.386 182.454 228.027 182.942C227.667 183.431 227.366 183.947 227.118 184.489C226.87 185.032 226.682 185.592 226.558 186.168C226.432 186.744 226.368 187.326 226.368 187.914C226.368 188.502 226.432 189.084 226.558 189.66C226.682 190.236 226.87 190.796 227.118 191.339C227.366 191.881 227.667 192.397 228.027 192.886C228.386 193.374 228.794 193.826 229.252 194.241C229.708 194.657 230.204 195.028 230.741 195.355C231.28 195.681 231.848 195.956 232.445 196.182C233.04 196.406 233.655 196.576 234.291 196.691C234.924 196.805 235.564 196.862 236.21 196.862ZM167.315 286.345C167.315 281.403 171.723 277.397 177.157 277.397H196.843C202.279 277.397 206.685 281.403 206.685 286.345C206.685 291.287 202.279 295.293 196.843 295.293H177.157C171.723 295.293 167.315 291.287 167.315 286.345ZM78.7367 357.931C95.0451 357.931 108.265 345.913 108.265 331.087V316.242C102.52 313.147 97.0732 309.614 91.984 305.684C76.0452 308.39 61.2408 315.054 49.2114 324.94V331.087C49.2114 345.913 62.4308 357.931 78.7367 357.931ZM265.738 331.087C265.738 345.913 278.955 357.931 295.263 357.931C311.569 357.931 324.789 345.913 324.789 331.087V324.94C312.759 315.054 297.955 308.39 282.016 305.684C276.927 309.614 271.481 313.147 265.738 316.242V331.087ZM88.5785 322.139H68.8949V340.035H88.5785V322.139ZM305.105 322.139H285.422V340.035H305.105V322.139ZM128.085 324.609C129.536 353.242 155.473 375.792 187.001 375.827C218.56 375.83 244.543 353.271 245.994 324.609C233.055 328.87 219.403 331.063 205.642 331.087H168.437C154.678 331.063 141.023 328.87 128.085 324.609Z" fill="#44D62C"/>
</svg>
