<svg xmlns:mydata="http://www.w3.org/2000/svg" mydata:contrastcolor="11111f"  mydata:template="Contrast" mydata:presentation="2.5" mydata:layouttype="undefined" mydata:specialfontid="undefined" mydata:id1="708" mydata:id2="206" mydata:companyname="Attendance Hero" mydata:companytagline="Sua presença em suas mãos" version="1.1" xmlns="http://www.w3.org/2000/svg" xmlns:xlink="http://www.w3.org/1999/xlink" viewBox="0 0 550 470">
    <g fill="#fff" fill-rule="none" stroke="none" stroke-width="1" stroke-linecap="butt" stroke-linejoin="miter" stroke-miterlimit="10" stroke-dasharray="" stroke-dashoffset="0" font-family="none" font-weight="none" font-size="none" text-anchor="none" style="mix-blend-mode: normal"><g data-paper-data="{&quot;isGlobalGroup&quot;:true,&quot;bounds&quot;:{&quot;x&quot;:122.01687846315194,&quot;y&quot;:114.99999999999999,&quot;width&quot;:305.9662430736961,&quot;height&quot;:240}}"><g data-paper-data="{&quot;isSecondaryText&quot;:true}" fill-rule="nonzero"><path d="M153.60915,350.69562c0,-1.00227 -0.81434,-1.83451 -2.35354,-2.19246c-0.17003,-0.0358 -1.00227,-0.24162 -1.16335,-0.28636c-1.08281,-0.26846 -1.42286,-0.39375 -1.42286,-0.67116c0,-0.31321 0.45639,-0.59957 1.4855,-0.59062c0.79645,0 1.68238,0.42954 2.11192,0.93068l1.20809,-1.19019c-0.7696,-0.7875 -1.9061,-1.26178 -3.29317,-1.26178c-2.09402,0 -3.28422,0.93963 -3.28422,2.15667c0,1.27968 1.24389,1.76292 2.53252,2.07613c0.16108,0.04474 1.18124,0.28636 1.34232,0.32216c0.93068,0.22372 1.06491,0.56378 1.06491,0.70696c0,0.3669 -0.35795,0.63537 -1.41391,0.63537c-0.83224,0 -1.87925,-0.3669 -2.46987,-0.93963l-1.19019,1.19914c0.89488,0.82329 2.13877,1.27073 3.50794,1.27073c2.28195,0 3.33791,-1.02017 3.33791,-2.16562z" data-paper-data="{&quot;glyphName&quot;:&quot;S&quot;,&quot;glyphIndex&quot;:0,&quot;firstGlyphOfWord&quot;:true,&quot;word&quot;:1}"></path><path d="M164.96394,345.5232h-1.74502v3.89274c0,1.28863 -0.48324,1.9061 -1.77187,1.9061c-1.31548,0 -1.78082,-0.61747 -1.78082,-1.9061v-3.89274h-1.74502v3.90169c0,2.17456 1.14545,3.43635 3.52584,3.43635c2.38039,0 3.51689,-1.27968 3.51689,-3.43635z" data-paper-data="{&quot;glyphName&quot;:&quot;U&quot;,&quot;glyphIndex&quot;:1,&quot;word&quot;:1}"></path><path d="M172.07322,349.6844l0.18793,-0.16108l0.54588,-1.12755l0.26846,-0.7338l0.26846,0.7338l0.55483,1.12755l0.17898,0.16108zM173.81824,345.5232h-1.47656l-3.60638,7.24855h1.924l0.76065,-1.56604l-0.10739,-0.16108h3.51689l-0.10739,0.16108l0.77855,1.56604h1.9061z" data-paper-data="{&quot;glyphName&quot;:&quot;A&quot;,&quot;glyphIndex&quot;:2,&quot;lastGlyphOfWord&quot;:true,&quot;word&quot;:1}"></path><path d="M191.5383,347.91253c0,0.50113 -0.27741,0.86804 -1.07386,0.86804h-2.16562l0.16108,-0.16108v-1.40497l-0.16108,-0.16108h2.17456c0.79645,0 1.06491,0.34006 1.06491,0.85909zM193.31017,347.91253c0,-1.40497 -1.07386,-2.38934 -2.83678,-2.38934h-3.75851v7.24855h1.74502v-2.29985l-0.16108,-0.16108h2.16562c1.78082,0 2.84573,-1.03806 2.84573,-2.39828z" data-paper-data="{&quot;glyphName&quot;:&quot;P&quot;,&quot;glyphIndex&quot;:3,&quot;firstGlyphOfWord&quot;:true,&quot;word&quot;:2}"></path><path d="M202.36004,347.89463c0,0.37585 -0.31321,0.82329 -1.20809,0.82329h-1.94189l0.16108,-0.16108v-1.34232l-0.16108,-0.16108h2.04033c0.7696,0 1.10965,0.349 1.10965,0.84119zM203.65762,350.31082c-0.20582,-0.3848 -0.47429,-0.62642 -0.71591,-0.74275v-0.0179c0.62642,-0.28636 1.19019,-1.01122 1.19019,-1.71817c0,-1.59289 -1.41391,-2.3088 -2.88152,-2.3088h-3.62427v7.24855h1.74502v-2.49672l-0.15213,-0.15213h1.33337c0.81434,0 1.18124,0.23267 1.44971,0.72485l1.02911,1.924h1.95084z" data-paper-data="{&quot;glyphName&quot;:&quot;R&quot;,&quot;glyphIndex&quot;:4,&quot;word&quot;:2}"></path><path d="M215.09191,351.24149h-4.63549l0.16108,-0.16108v-1.00227l-0.16108,-0.16108h4.20595v-1.5392h-4.20595l0.16108,-0.16108v-1.00227l-0.16108,-0.16108h4.63549v-1.53025h-6.21943v7.24855h6.21943z" data-paper-data="{&quot;glyphName&quot;:&quot;E&quot;,&quot;glyphIndex&quot;:5,&quot;word&quot;:2}"></path><path d="M226.04804,350.69562c0,-1.00227 -0.81434,-1.83451 -2.35354,-2.19246c-0.17003,-0.0358 -1.00227,-0.24162 -1.16335,-0.28636c-1.08281,-0.26846 -1.42286,-0.39375 -1.42286,-0.67116c0,-0.31321 0.45639,-0.59957 1.4855,-0.59062c0.79645,0 1.68238,0.42954 2.11192,0.93068l1.20809,-1.19019c-0.7696,-0.7875 -1.9061,-1.26178 -3.29317,-1.26178c-2.09402,0 -3.28422,0.93963 -3.28422,2.15667c0,1.27968 1.24389,1.76292 2.53252,2.07613c0.16108,0.04474 1.18124,0.28636 1.34232,0.32216c0.93068,0.22372 1.06491,0.56378 1.06491,0.70696c0,0.3669 -0.35795,0.63537 -1.41391,0.63537c-0.83224,0 -1.87925,-0.3669 -2.46987,-0.93963l-1.19019,1.19914c0.89488,0.82329 2.13877,1.27073 3.50794,1.27073c2.28195,0 3.33791,-1.02017 3.33791,-2.16562z" data-paper-data="{&quot;glyphName&quot;:&quot;S&quot;,&quot;glyphIndex&quot;:6,&quot;word&quot;:2}"></path><path d="M236.57887,351.24149h-4.63549l0.16108,-0.16108v-1.00227l-0.16108,-0.16108h4.20595v-1.5392h-4.20595l0.16108,-0.16108v-1.00227l-0.16108,-0.16108h4.63549v-1.53025h-6.21943v7.24855h6.21943z" data-paper-data="{&quot;glyphName&quot;:&quot;E&quot;,&quot;glyphIndex&quot;:7,&quot;word&quot;:2}"></path><path d="M247.93725,345.5232h-1.74502v4.43862h-0.0179l-0.56378,-0.84119l-3.07839,-3.59743h-1.44076v7.24855h1.74502v-4.48336h0.0179l0.61747,0.91278l3.0247,3.57058h1.44076z" data-paper-data="{&quot;glyphName&quot;:&quot;N&quot;,&quot;glyphIndex&quot;:8,&quot;word&quot;:2}"></path><path d="M258.37964,350.36451c-0.42059,0.59957 -1.20809,0.96647 -2.02243,0.96647c-1.61079,0 -2.22826,-0.89488 -2.22826,-2.14772c0,-1.27968 0.66221,-2.20141 2.23721,-2.20141c0.83224,0 1.5571,0.35795 1.97769,0.99332l1.16335,-1.1544c-0.7517,-0.91278 -1.78082,-1.37812 -3.14999,-1.37812c-2.56831,0 -4.00012,1.58394 -4.00012,3.74061c0,1.924 1.09176,3.33791 3.15893,3.63322l0.44744,0.44744c0.07159,0.07159 0.12528,0.16108 -0.04474,0.33111l-0.69801,0.69801l0.70696,0.70696l0.92173,-0.91278c0.34006,-0.349 0.33111,-0.7696 0,-1.07386l-0.17003,-0.15213c1.14545,-0.08949 2.14772,-0.59957 2.83678,-1.38707z" data-paper-data="{&quot;glyphName&quot;:&quot;Ç&quot;,&quot;glyphIndex&quot;:9,&quot;word&quot;:2}"></path><path d="M266.38121,349.6844l0.18793,-0.16108l0.54588,-1.12755l0.26846,-0.7338l0.26846,0.7338l0.55483,1.12755l0.17898,0.16108zM268.12623,345.5232h-1.47656l-3.60638,7.24855h1.924l0.76065,-1.56604l-0.10739,-0.16108h3.51689l-0.10739,0.16108l0.77855,1.56604h1.9061z" data-paper-data="{&quot;glyphName&quot;:&quot;A&quot;,&quot;glyphIndex&quot;:10,&quot;lastGlyphOfWord&quot;:true,&quot;word&quot;:2}"></path><path d="M287.21905,351.24149h-4.63549l0.16108,-0.16108v-1.00227l-0.16108,-0.16108h4.20595v-1.5392h-4.20595l0.16108,-0.16108v-1.00227l-0.16108,-0.16108h4.63549v-1.53025h-6.21943v7.24855h6.21943z" data-paper-data="{&quot;glyphName&quot;:&quot;E&quot;,&quot;glyphIndex&quot;:11,&quot;firstGlyphOfWord&quot;:true,&quot;word&quot;:3}"></path><path d="M299.81276,345.5232h-1.44971l-2.2909,3.85694l-0.25952,0.63537h-0.0179l-0.27741,-0.63537l-2.28195,-3.85694h-1.43181v7.2575h1.74502v-3.84799h0.0179l0.349,0.76065l1.87925,3.17683h0.02685l1.87925,-3.17683l0.349,-0.76065h0.0179v3.84799h1.74502z" data-paper-data="{&quot;glyphName&quot;:&quot;M&quot;,&quot;glyphIndex&quot;:12,&quot;lastGlyphOfWord&quot;:true,&quot;word&quot;:3}"></path><path d="M316.29328,350.69562c0,-1.00227 -0.81434,-1.83451 -2.35354,-2.19246c-0.17003,-0.0358 -1.00227,-0.24162 -1.16335,-0.28636c-1.08281,-0.26846 -1.42286,-0.39375 -1.42286,-0.67116c0,-0.31321 0.45639,-0.59957 1.4855,-0.59062c0.79645,0 1.68238,0.42954 2.11192,0.93068l1.20809,-1.19019c-0.7696,-0.7875 -1.9061,-1.26178 -3.29317,-1.26178c-2.09402,0 -3.28422,0.93963 -3.28422,2.15667c0,1.27968 1.24389,1.76292 2.53252,2.07613c0.16108,0.04474 1.18124,0.28636 1.34232,0.32216c0.93068,0.22372 1.06491,0.56378 1.06491,0.70696c0,0.3669 -0.35795,0.63537 -1.41391,0.63537c-0.83224,0 -1.87925,-0.3669 -2.46987,-0.93963l-1.19019,1.19914c0.89488,0.82329 2.13877,1.27073 3.50794,1.27073c2.28195,0 3.33791,-1.02017 3.33791,-2.16562z" data-paper-data="{&quot;glyphName&quot;:&quot;S&quot;,&quot;glyphIndex&quot;:13,&quot;firstGlyphOfWord&quot;:true,&quot;word&quot;:4}"></path><path d="M327.64806,345.5232h-1.74502v3.89274c0,1.28863 -0.48324,1.9061 -1.77187,1.9061c-1.31548,0 -1.78082,-0.61747 -1.78082,-1.9061v-3.89274h-1.74502v3.90169c0,2.17456 1.14545,3.43635 3.52584,3.43635c2.38039,0 3.51689,-1.27968 3.51689,-3.43635z" data-paper-data="{&quot;glyphName&quot;:&quot;U&quot;,&quot;glyphIndex&quot;:14,&quot;word&quot;:4}"></path><path d="M334.75734,349.6844l0.18793,-0.16108l0.54588,-1.12755l0.26846,-0.7338l0.26846,0.7338l0.55483,1.12755l0.17898,0.16108zM336.50236,345.5232h-1.47656l-3.60638,7.24855h1.924l0.76065,-1.56604l-0.10739,-0.16108h3.51689l-0.10739,0.16108l0.77855,1.56604h1.9061z" data-paper-data="{&quot;glyphName&quot;:&quot;A&quot;,&quot;glyphIndex&quot;:15,&quot;word&quot;:4}"></path><path d="M350.6456,350.69562c0,-1.00227 -0.81434,-1.83451 -2.35354,-2.19246c-0.17003,-0.0358 -1.00227,-0.24162 -1.16335,-0.28636c-1.08281,-0.26846 -1.42286,-0.39375 -1.42286,-0.67116c0,-0.31321 0.45639,-0.59957 1.4855,-0.59062c0.79645,0 1.68238,0.42954 2.11192,0.93068l1.20809,-1.19019c-0.7696,-0.7875 -1.9061,-1.26178 -3.29317,-1.26178c-2.09402,0 -3.28422,0.93963 -3.28422,2.15667c0,1.27968 1.24389,1.76292 2.53252,2.07613c0.16108,0.04474 1.18124,0.28636 1.34232,0.32216c0.93068,0.22372 1.06491,0.56378 1.06491,0.70696c0,0.3669 -0.35795,0.63537 -1.41391,0.63537c-0.83224,0 -1.87925,-0.3669 -2.46987,-0.93963l-1.19019,1.19914c0.89488,0.82329 2.13877,1.27073 3.50794,1.27073c2.28195,0 3.33791,-1.02017 3.33791,-2.16562z" data-paper-data="{&quot;glyphName&quot;:&quot;S&quot;,&quot;glyphIndex&quot;:16,&quot;lastGlyphOfWord&quot;:true,&quot;word&quot;:4}"></path><path d="M368.28946,345.5232h-1.44971l-2.2909,3.85694l-0.25952,0.63537h-0.0179l-0.27741,-0.63537l-2.28195,-3.85694h-1.43181v7.2575h1.74502v-3.84799h0.0179l0.349,0.76065l1.87925,3.17683h0.02685l1.87925,-3.17683l0.349,-0.76065h0.0179v3.84799h1.74502z" data-paper-data="{&quot;glyphName&quot;:&quot;M&quot;,&quot;glyphIndex&quot;:17,&quot;firstGlyphOfWord&quot;:true,&quot;word&quot;:5}"></path><path d="M375.81051,349.6844l0.18793,-0.16108l0.54588,-1.12755l0.26846,-0.7338l0.26846,0.7338l0.55483,1.12755l0.17898,0.16108zM377.55553,345.5232h-1.47656l-3.60638,7.24855h1.924l0.76065,-1.56604l-0.10739,-0.16108h3.51689l-0.10739,0.16108l0.77855,1.56604h1.9061zM378.47726,343.11596c-0.14318,0.65326 -0.47429,0.68011 -0.72485,0.68011c-0.08054,0 -0.21477,-0.0358 -0.34006,-0.08054c-0.14318,-0.06264 -0.25952,-0.12528 -0.39375,-0.20582c-0.26846,-0.17003 -0.69801,-0.34006 -1.05596,-0.34006c-0.68906,0 -1.21704,0.51903 -1.39602,1.1544l0.68011,0.68011c0.16108,-0.60852 0.50113,-0.68906 0.68906,-0.68906c0.08949,0 0.23267,0.04474 0.3669,0.08949c0.14318,0.05369 0.25057,0.12528 0.3848,0.19687c0.28636,0.17898 0.69801,0.34006 1.03806,0.34006c0.64432,0 1.19914,-0.4027 1.43181,-1.1365z" data-paper-data="{&quot;glyphName&quot;:&quot;Ã&quot;,&quot;glyphIndex&quot;:18,&quot;word&quot;:5}"></path><path d="M390.56873,349.18327c0,1.27968 -0.59062,2.13877 -2.06718,2.13877c-1.46761,0 -2.07613,-0.85909 -2.07613,-2.13877c0,-1.30653 0.60852,-2.21036 2.07613,-2.21036c1.46761,0 2.06718,0.93068 2.06718,2.21036zM392.3406,349.18327c0,-2.13877 -1.31548,-3.74956 -3.84799,-3.74956c-2.51462,0 -3.83904,1.61974 -3.83904,3.74956c0,2.15667 1.32443,3.67797 3.83904,3.67797c2.47882,0 3.84799,-1.5213 3.84799,-3.67797z" data-paper-data="{&quot;glyphName&quot;:&quot;O&quot;,&quot;glyphIndex&quot;:19,&quot;word&quot;:5}"></path><path d="M403.2367,350.69562c0,-1.00227 -0.81434,-1.83451 -2.35354,-2.19246c-0.17003,-0.0358 -1.00227,-0.24162 -1.16335,-0.28636c-1.08281,-0.26846 -1.42286,-0.39375 -1.42286,-0.67116c0,-0.31321 0.45639,-0.59957 1.4855,-0.59062c0.79645,0 1.68238,0.42954 2.11192,0.93068l1.20809,-1.19019c-0.7696,-0.7875 -1.9061,-1.26178 -3.29317,-1.26178c-2.09402,0 -3.28422,0.93963 -3.28422,2.15667c0,1.27968 1.24389,1.76292 2.53252,2.07613c0.16108,0.04474 1.18124,0.28636 1.34232,0.32216c0.93068,0.22372 1.06491,0.56378 1.06491,0.70696c0,0.3669 -0.35795,0.63537 -1.41391,0.63537c-0.83224,0 -1.87925,-0.3669 -2.46987,-0.93963l-1.19019,1.19914c0.89488,0.82329 2.13877,1.27073 3.50794,1.27073c2.28195,0 3.33791,-1.02017 3.33791,-2.16562z" data-paper-data="{&quot;glyphName&quot;:&quot;S&quot;,&quot;glyphIndex&quot;:20,&quot;lastGlyphOfWord&quot;:true,&quot;word&quot;:5}"></path></g><g data-paper-data="{&quot;isPrimaryText&quot;:true}" fill-rule="nonzero"><path d="M139.21666,321.34547c0.60498,1.02706 0.90747,2.13151 0.90747,3.31333c0,1.20996 -0.29546,2.32144 -0.88637,3.33444c-0.61905,1.01299 -1.44211,1.82198 -2.46917,2.42696c-1.02706,0.60498 -2.13151,0.90747 -3.31333,0.90747c-1.2381,0 -2.34958,-0.30953 -3.33444,-0.92858c-1.01299,-0.59091 -1.82198,-1.3999 -2.42696,-2.42696c-0.60498,-1.02706 -0.90747,-2.13151 -0.90747,-3.31333c0,-1.2381 0.30953,-2.34958 0.92858,-3.33444c0.59091,-1.01299 1.3999,-1.82198 2.42696,-2.42696c1.02706,-0.60498 2.13151,-0.90747 3.31333,-0.90747c1.20996,0 2.32144,0.29546 3.33444,0.88637c1.01299,0.61905 1.82198,1.44211 2.42696,2.46917zM140.12414,333.94458v2.02599h4.7273l0.04221,-11.64943c0,-1.99785 -0.52057,-3.855 -1.5617,-5.57146c-1.04113,-1.68832 -2.44103,-3.03195 -4.1997,-4.03087c-1.75867,-0.99892 -3.651,-1.49839 -5.67698,-1.49839c-2.05413,0 -3.95349,0.5065 -5.69809,1.51949c-1.77274,1.04113 -3.17264,2.44103 -4.1997,4.1997c-1.02706,1.75867 -1.54059,3.66507 -1.54059,5.71919c0,2.08226 0.52057,3.98163 1.5617,5.69809c1.01299,1.77274 2.39882,3.17264 4.15749,4.1997c1.75867,1.02706 3.66507,1.54059 5.71919,1.54059c2.41993,0 4.64289,-0.71754 6.66887,-2.15261z" data-paper-data="{&quot;glyphName&quot;:&quot;a&quot;,&quot;glyphIndex&quot;:0,&quot;firstGlyphOfWord&quot;:true,&quot;word&quot;:1}"></path><path d="M147.00405,305.2431v30.81189h5.52926v-19.03584h3.75652l1.30845,-4.89614h-5.06497v-6.87991z" data-paper-data="{&quot;glyphName&quot;:&quot;t&quot;,&quot;glyphIndex&quot;:1,&quot;word&quot;:1}"></path><path d="M159.70868,305.2431v30.81189h5.52926v-19.03584h3.75652l1.30845,-4.89614h-5.06497v-6.87991z" data-paper-data="{&quot;glyphName&quot;:&quot;t&quot;,&quot;glyphIndex&quot;:2,&quot;word&quot;:1}"></path><path d="M176.54969,315.28861c-1.96971,1.35066 -3.37665,3.1234 -4.22081,5.31822c-0.5065,1.35066 -0.75975,2.70132 -0.75975,4.05197c0,2.30737 0.67533,4.45999 2.02599,6.45783c1.20996,1.80088 2.66614,3.08822 4.36853,3.86204c1.70239,0.77381 3.36961,1.16072 5.00166,1.16072c1.94157,0 3.77059,-0.46429 5.48705,-1.39287c1.71644,-0.92858 3.09524,-2.19482 4.13639,-3.79873l-4.60068,-1.77274c-0.61905,0.70347 -1.37176,1.24514 -2.25813,1.62501c-0.88637,0.37987 -1.80791,0.56981 -2.76463,0.56981c-0.84416,0 -1.63205,-0.14069 -2.36365,-0.42208c-0.90044,-0.33766 -1.68832,-0.8512 -2.36365,-1.54059c-0.67533,-0.6894 -1.18183,-1.49839 -1.51949,-2.42696l17.47414,-0.46429v-0.04221l0.08442,0.04221c0.08442,-0.5909 0.12662,-1.19589 0.12662,-1.81495c0,-2.30737 -0.66126,-4.45998 -1.98378,-6.45783c-1.20996,-1.77274 -2.67318,-3.04601 -4.38964,-3.81983c-1.71646,-0.77381 -3.37664,-1.16072 -4.98055,-1.16072c-2.36365,0 -4.53033,0.67533 -6.50004,2.02599zM176.67632,322.59061l0.08442,-0.25325c0.5065,-1.32252 1.33659,-2.36365 2.49028,-3.1234c1.15369,-0.75975 2.41993,-1.13962 3.79873,-1.13962c0.84416,0 1.63204,0.14069 2.36365,0.42208c0.90044,0.33766 1.68129,0.83713 2.34255,1.49839c0.66126,0.66126 1.14665,1.42804 1.45618,2.30034z" data-paper-data="{&quot;glyphName&quot;:&quot;e&quot;,&quot;glyphIndex&quot;:3,&quot;word&quot;:1}"></path><path d="M212.00447,323.35035v12.78904h4.7273l0.08442,-12.78904c0,-1.96971 -0.49243,-3.74245 -1.47728,-5.31822c-1.01299,-1.49135 -2.32144,-2.65207 -3.92535,-3.48217c-1.60391,-0.83009 -3.33444,-1.24514 -5.19159,-1.24514c-1.80087,0 -3.51733,0.40801 -5.14938,1.22403c-1.66018,0.84416 -2.97567,2.03302 -3.94645,3.56658c-0.97079,1.53356 -1.45618,3.28519 -1.45618,5.2549v12.78904h4.7273v-12.78904c0,-1.63204 0.56277,-2.91939 1.68832,-3.86204c1.12555,-0.94265 2.50434,-1.41397 4.13639,-1.41397c1.60391,0 2.96863,0.47132 4.09418,1.41397c1.12555,0.94265 1.68832,2.22999 1.68832,3.86204z" data-paper-data="{&quot;glyphName&quot;:&quot;n&quot;,&quot;glyphIndex&quot;:4,&quot;word&quot;:1}"></path><path d="M240.9592,325.03868l-0.04221,-19.83779l-4.7273,2.53248v7.68187c-2.02599,-1.43507 -4.24894,-2.15261 -6.66887,-2.15261c-2.05413,0 -3.95349,0.5065 -5.69809,1.51949c-1.77274,1.04113 -3.17264,2.44103 -4.1997,4.1997c-1.02706,1.75867 -1.54059,3.66507 -1.54059,5.71919c0,2.08226 0.52057,3.98163 1.5617,5.69809c1.01299,1.77274 2.39882,3.17264 4.15749,4.1997c1.75867,1.02706 3.66507,1.54059 5.71919,1.54059c2.02599,0 3.92535,-0.5065 5.69809,-1.51949c1.77274,-1.01299 3.17264,-2.36365 4.1997,-4.05197c1.02706,-1.68832 1.54059,-3.53141 1.54059,-5.52926zM235.28221,321.38768c0.60498,1.02706 0.90747,2.13151 0.90747,3.31333c0,1.20996 -0.29546,2.32144 -0.88637,3.33444c-0.61905,1.01299 -1.44211,1.82198 -2.46917,2.42696c-1.02706,0.60498 -2.13151,0.90747 -3.31333,0.90747c-1.2381,0 -2.34958,-0.30953 -3.33444,-0.92858c-1.01299,-0.59091 -1.82198,-1.3999 -2.42696,-2.42696c-0.60498,-1.02706 -0.90747,-2.13151 -0.90747,-3.31333c0,-1.2381 0.30953,-2.34958 0.92858,-3.33444c0.59091,-1.01299 1.3999,-1.82198 2.42696,-2.42696c1.02706,-0.60498 2.13151,-0.90747 3.31333,-0.90747c1.20996,0 2.32144,0.29546 3.33444,0.88637c1.01299,0.61905 1.82198,1.44211 2.42696,2.46917z" data-paper-data="{&quot;glyphName&quot;:&quot;d&quot;,&quot;glyphIndex&quot;:5,&quot;word&quot;:1}"></path><path d="M259.42523,321.34547c0.60498,1.02706 0.90747,2.13151 0.90747,3.31333c0,1.20996 -0.29546,2.32144 -0.88637,3.33444c-0.61905,1.01299 -1.44211,1.82198 -2.46917,2.42696c-1.02706,0.60498 -2.13151,0.90747 -3.31333,0.90747c-1.2381,0 -2.34958,-0.30953 -3.33444,-0.92858c-1.01299,-0.59091 -1.82198,-1.3999 -2.42696,-2.42696c-0.60498,-1.02706 -0.90747,-2.13151 -0.90747,-3.31333c0,-1.2381 0.30953,-2.34958 0.92858,-3.33444c0.59091,-1.01299 1.3999,-1.82198 2.42696,-2.42696c1.02706,-0.60498 2.13151,-0.90747 3.31333,-0.90747c1.20996,0 2.32144,0.29546 3.33444,0.88637c1.01299,0.61905 1.82198,1.44211 2.42696,2.46917zM260.3327,333.94458v2.02599h4.7273l0.04221,-11.64943c0,-1.99785 -0.52057,-3.855 -1.5617,-5.57146c-1.04113,-1.68832 -2.44103,-3.03195 -4.1997,-4.03087c-1.75867,-0.99892 -3.651,-1.49839 -5.67698,-1.49839c-2.05413,0 -3.95349,0.5065 -5.69809,1.51949c-1.77274,1.04113 -3.17264,2.44103 -4.1997,4.1997c-1.02706,1.75867 -1.54059,3.66507 -1.54059,5.71919c0,2.08226 0.52057,3.98163 1.5617,5.69809c1.01299,1.77274 2.39882,3.17264 4.15749,4.1997c1.75867,1.02706 3.66507,1.54059 5.71919,1.54059c2.41993,0 4.64289,-0.71754 6.66887,-2.15261z" data-paper-data="{&quot;glyphName&quot;:&quot;a&quot;,&quot;glyphIndex&quot;:6,&quot;word&quot;:1}"></path><path d="M282.70297,323.35035v12.78904h4.7273l0.08442,-12.78904c0,-1.96971 -0.49243,-3.74245 -1.47728,-5.31822c-1.01299,-1.49135 -2.32144,-2.65207 -3.92535,-3.48217c-1.60391,-0.83009 -3.33444,-1.24514 -5.19159,-1.24514c-1.80087,0 -3.51733,0.40801 -5.14938,1.22403c-1.66018,0.84416 -2.97567,2.03302 -3.94645,3.56658c-0.97079,1.53356 -1.45618,3.28519 -1.45618,5.2549v12.78904h4.7273v-12.78904c0,-1.63204 0.56277,-2.91939 1.68832,-3.86204c1.12555,-0.94265 2.50434,-1.41397 4.13639,-1.41397c1.60391,0 2.96863,0.47132 4.09418,1.41397c1.12555,0.94265 1.68832,2.22999 1.68832,3.86204z" data-paper-data="{&quot;glyphName&quot;:&quot;n&quot;,&quot;glyphIndex&quot;:7,&quot;word&quot;:1}"></path><path d="M290.32153,318.98182c-1.02706,1.75867 -1.54059,3.66507 -1.54059,5.71919c0,2.08226 0.52057,3.98163 1.5617,5.69809c1.01299,1.77274 2.39882,3.17264 4.15749,4.1997c1.75867,1.02706 3.66507,1.54059 5.71919,1.54059c1.82902,0 3.51734,-0.39394 5.06497,-1.18183c1.57577,-0.78788 2.89829,-1.87122 3.96756,-3.25002c1.06927,-1.3788 1.78681,-2.92643 2.15261,-4.64289h-4.93834c-0.47836,1.26624 -1.28735,2.30034 -2.42696,3.10229c-1.13962,0.80195 -2.41289,1.20293 -3.81983,1.20293c-1.2381,0 -2.34958,-0.30953 -3.33444,-0.92858c-1.01299,-0.59091 -1.82198,-1.3999 -2.42696,-2.42696c-0.60498,-1.02706 -0.90747,-2.13151 -0.90747,-3.31333c0,-1.2381 0.30953,-2.34958 0.92858,-3.33444c0.59091,-1.01299 1.3999,-1.82198 2.42696,-2.42696c1.02706,-0.60498 2.13151,-0.90747 3.31333,-0.90747c1.40694,0 2.67318,0.39394 3.79873,1.18183c1.12555,0.78788 1.9275,1.81495 2.40586,3.08119l4.98055,0.04221c-0.3658,-1.68832 -1.08334,-3.23595 -2.15261,-4.64289c-1.09741,-1.37878 -2.434,-2.46212 -4.00977,-3.25002c-1.57577,-0.78788 -3.25002,-1.18183 -5.02276,-1.18183c-2.05413,0 -3.95349,0.5065 -5.69809,1.51949c-1.77274,1.04113 -3.17264,2.44103 -4.1997,4.1997z" data-paper-data="{&quot;glyphName&quot;:&quot;c&quot;,&quot;glyphIndex&quot;:8,&quot;word&quot;:1}"></path><path d="M317.65125,315.28861c-1.96971,1.35066 -3.37665,3.1234 -4.22081,5.31822c-0.5065,1.35066 -0.75975,2.70132 -0.75975,4.05197c0,2.30737 0.67533,4.45999 2.02599,6.45783c1.20996,1.80088 2.66614,3.08822 4.36853,3.86204c1.70239,0.77381 3.36961,1.16072 5.00166,1.16072c1.94157,0 3.77059,-0.46429 5.48705,-1.39287c1.71644,-0.92858 3.09524,-2.19482 4.13639,-3.79873l-4.60068,-1.77274c-0.61905,0.70347 -1.37176,1.24514 -2.25813,1.62501c-0.88637,0.37987 -1.80791,0.56981 -2.76463,0.56981c-0.84416,0 -1.63205,-0.14069 -2.36365,-0.42208c-0.90044,-0.33766 -1.68832,-0.8512 -2.36365,-1.54059c-0.67533,-0.6894 -1.18183,-1.49839 -1.51949,-2.42696l17.47414,-0.46429v-0.04221l0.08442,0.04221c0.08442,-0.5909 0.12662,-1.19589 0.12662,-1.81495c0,-2.30737 -0.66126,-4.45998 -1.98378,-6.45783c-1.20996,-1.77274 -2.67318,-3.04601 -4.38964,-3.81983c-1.71646,-0.77381 -3.37664,-1.16072 -4.98055,-1.16072c-2.36365,0 -4.53033,0.67533 -6.50004,2.02599zM317.77787,322.59061l0.08442,-0.25325c0.5065,-1.32252 1.33659,-2.36365 2.49028,-3.1234c1.15369,-0.75975 2.41993,-1.13962 3.79873,-1.13962c0.84416,0 1.63204,0.14069 2.36365,0.42208c0.90044,0.33766 1.68129,0.83713 2.34255,1.49839c0.66126,0.66126 1.14665,1.42804 1.45618,2.30034z" data-paper-data="{&quot;glyphName&quot;:&quot;e&quot;,&quot;glyphIndex&quot;:9,&quot;lastGlyphOfWord&quot;:true,&quot;word&quot;:1}"></path><path d="M344.87545,305.03206l-0.08442,31.10734h4.7273v-12.78904c0,-1.63204 0.56277,-2.91939 1.68832,-3.86204c1.12555,-0.94265 2.50434,-1.41397 4.13639,-1.41397c1.60391,0 2.96863,0.47132 4.09418,1.41397c1.12555,0.94265 1.68832,2.22999 1.68832,3.86204v12.78904h4.7273l0.08442,-12.78904c0,-1.96971 -0.49243,-3.74245 -1.47728,-5.31822c-1.01299,-1.49135 -2.32144,-2.65207 -3.92535,-3.48217c-1.60391,-0.83009 -3.33444,-1.24514 -5.19159,-1.24514c-2.13854,0 -4.08011,0.53464 -5.82471,1.60391v-7.76628z" data-paper-data="{&quot;glyphName&quot;:&quot;h&quot;,&quot;glyphIndex&quot;:10,&quot;firstGlyphOfWord&quot;:true,&quot;word&quot;:2}" fill="#44d62c"></path><path d="M372.18406,315.28861c-1.96971,1.35066 -3.37665,3.1234 -4.22081,5.31822c-0.5065,1.35066 -0.75975,2.70132 -0.75975,4.05197c0,2.30737 0.67533,4.45999 2.02599,6.45783c1.20996,1.80088 2.66614,3.08822 4.36853,3.86204c1.70239,0.77381 3.36961,1.16072 5.00166,1.16072c1.94157,0 3.77059,-0.46429 5.48705,-1.39287c1.71644,-0.92858 3.09524,-2.19482 4.13639,-3.79873l-4.60068,-1.77274c-0.61905,0.70347 -1.37176,1.24514 -2.25813,1.62501c-0.88637,0.37987 -1.80791,0.56981 -2.76463,0.56981c-0.84416,0 -1.63205,-0.14069 -2.36365,-0.42208c-0.90044,-0.33766 -1.68832,-0.8512 -2.36365,-1.54059c-0.67533,-0.6894 -1.18183,-1.49839 -1.51949,-2.42696l17.47414,-0.46429v-0.04221l0.08442,0.04221c0.08442,-0.5909 0.12662,-1.19589 0.12662,-1.81495c0,-2.30737 -0.66126,-4.45998 -1.98378,-6.45783c-1.20996,-1.77274 -2.67318,-3.04601 -4.38964,-3.81983c-1.71646,-0.77381 -3.37664,-1.16072 -4.98055,-1.16072c-2.36365,0 -4.53033,0.67533 -6.50004,2.02599zM372.31069,322.59061l0.08442,-0.25325c0.5065,-1.32252 1.33659,-2.36365 2.49028,-3.1234c1.15369,-0.75975 2.41993,-1.13962 3.79873,-1.13962c0.84416,0 1.63204,0.14069 2.36365,0.42208c0.90044,0.33766 1.68129,0.83713 2.34255,1.49839c0.66126,0.66126 1.14665,1.42804 1.45618,2.30034z" data-paper-data="{&quot;glyphName&quot;:&quot;e&quot;,&quot;glyphIndex&quot;:11,&quot;word&quot;:2}" fill="#44d62c"></path><path d="M403.84011,318.28539v-5.19159l-1.09741,-0.08442c-2.02599,0 -3.91128,0.49243 -5.65588,1.47728c-1.80088,1.01299 -3.21485,2.37069 -4.24191,4.07308c-1.02706,1.70238 -1.54059,3.55251 -1.54059,5.55036l0.04221,12.11371h4.93834l-0.08442,-11.35397c0,-1.2381 0.30953,-2.34958 0.92858,-3.33444c0.59091,-1.01299 1.3999,-1.82198 2.42696,-2.42696c1.02706,-0.60498 2.13151,-0.90747 3.31333,-0.90747c0.14069,0 0.46429,0.02814 0.97079,0.08442z" data-paper-data="{&quot;glyphName&quot;:&quot;r&quot;,&quot;glyphIndex&quot;:12,&quot;word&quot;:2}" fill="#44d62c"></path><path d="M410.82554,334.5988c1.75867,1.02706 3.66507,1.54059 5.71919,1.54059c2.08226,0 3.9957,-0.52057 5.7403,-1.5617c1.7446,-1.01299 3.13043,-2.39882 4.15749,-4.15749c1.02706,-1.75867 1.54059,-3.66507 1.54059,-5.71919c0,-2.05413 -0.5065,-3.96756 -1.51949,-5.7403c-1.04113,-1.7446 -2.44807,-3.13043 -4.22081,-4.15749c-1.77274,-1.02706 -3.6721,-1.54059 -5.69809,-1.54059c-2.05413,0 -3.95349,0.5065 -5.69809,1.51949c-1.77274,1.04113 -3.17264,2.44103 -4.1997,4.1997c-1.02706,1.75867 -1.54059,3.66507 -1.54059,5.71919c0,2.08226 0.52057,3.98163 1.5617,5.69809c1.01299,1.77274 2.39882,3.17264 4.15749,4.1997zM419.73145,330.18806c-0.97079,0.56277 -2.03302,0.84416 -3.18671,0.84416c-1.12555,0.00001 -2.18075,-0.28138 -3.1656,-0.84416c-0.98485,-0.56277 -1.75867,-1.32955 -2.32144,-2.30034c-0.56277,-0.97079 -0.84416,-2.03302 -0.84416,-3.18671c0,-1.15369 0.28139,-2.22296 0.84416,-3.20781c0.56277,-0.98486 1.32955,-1.75163 2.30034,-2.30034c0.97079,-0.5487 2.03302,-0.82306 3.18671,-0.82306c1.15369,0 2.22296,0.28139 3.20781,0.84416c0.98486,0.56277 1.75163,1.32955 2.30034,2.30034c0.5487,0.97079 0.82306,2.03302 0.82306,3.18671c0,1.12555 -0.28139,2.18075 -0.84416,3.1656c-0.56277,0.98485 -1.32955,1.75867 -2.30034,2.32144z" data-paper-data="{&quot;glyphName&quot;:&quot;o&quot;,&quot;glyphIndex&quot;:13,&quot;lastGlyphOfWord&quot;:true,&quot;word&quot;:2}" fill="#44d62c"></path></g><g data-paper-data="{&quot;fillRule&quot;:&quot;evenodd&quot;,&quot;fillRuleOriginal&quot;:&quot;evenodd&quot;,&quot;isIcon&quot;:true,&quot;iconStyle&quot;:&quot;standalone&quot;,&quot;selectedEffects&quot;:{&quot;container&quot;:&quot;&quot;,&quot;transformation&quot;:&quot;&quot;,&quot;pattern&quot;:&quot;&quot;},&quot;bounds&quot;:{&quot;x&quot;:222.20070601683966,&quot;y&quot;:114.99999999999999,&quot;width&quot;:105.59858796632062,&quot;height&quot;:161.1767751931439},&quot;iconType&quot;:&quot;icon&quot;,&quot;rawIconId&quot;:&quot;2234220&quot;,&quot;isDetailed&quot;:false,&quot;suitableAsStandaloneIcon&quot;:true}" fill-rule="evenodd"><path d="M313.90474,184.16707c-0.01084,7.71175 -2.66942,15.18619 -7.53085,21.17251c12.7174,4.03053 21.37621,15.81283 21.4254,29.15354v41.68365h-5.55782v-13.89455h-11.11564v13.89455h-5.55782v-30.56801h5.55782v11.11564h11.11564v-22.23128c-0.00334,-4.43931 -1.19604,-8.79692 -3.45419,-12.61903c-1.5095,5.04289 -5.75679,8.78775 -10.94918,9.65338c-5.19239,0.86563 -10.4248,-1.29886 -13.48855,-5.5795c-3.45586,6.11916 -9.59919,10.24612 -16.57064,11.13231v14.08629h-5.55782v-14.08629c-6.97145,-0.8862 -13.11479,-5.01315 -16.57064,-11.13231c-3.06375,4.28063 -8.29616,6.44513 -13.48855,5.5795c-5.19239,-0.86563 -9.43968,-4.61049 -10.94918,-9.65338c-2.25814,3.82211 -3.45085,8.17972 -3.45419,12.61903v22.23128h11.11564v-11.11564h5.55782v30.56801h-5.55782v-13.89455h-11.11564v13.89455h-5.55782v-41.68365c0.04724,-13.34127 8.70688,-25.12441 21.4254,-29.15354c-4.86142,-5.98633 -7.52001,-13.46076 -7.53085,-21.17251v-2.47323c-6.13889,0 -11.11564,-4.97675 -11.11564,-11.11564c0,-6.13889 4.97675,-11.11564 11.11564,-11.11564v-5.55782c0,-21.48653 17.41821,-38.90474 38.90474,-38.90474c21.48653,0 38.90474,17.41821 38.90474,38.90474v5.55782c6.13889,0 11.11564,4.97675 11.11564,11.11564c0,6.13889 -4.97675,11.11564 -11.11564,11.11564zM241.65308,153.90473v30.26233c-0.00083,7.45137 2.95898,14.59789 8.22807,19.86671c5.26881,5.26909 12.41533,8.2289 19.86671,8.22807h10.50428c7.45137,0.00083 14.59789,-2.95898 19.86671,-8.22807c5.26909,-5.26881 8.2289,-12.41533 8.22807,-19.86671v-30.26233c0,-18.41695 -14.92997,-33.34692 -33.34692,-33.34692c-18.41695,0 -33.34692,14.92997 -33.34692,33.34692zM266.66326,167.79928h-11.11564c-1.53479,0 -2.77891,-1.24412 -2.77891,-2.77891c0,-1.53479 1.24412,-2.77891 2.77891,-2.77891h11.11564c1.53479,0 2.77891,1.24412 2.77891,2.77891c0,1.53479 -1.24412,2.77891 -2.77891,2.77891zM272.22108,184.47275h2.77891c3.06959,0 5.55782,-2.48824 5.55782,-5.55782v-11.11564h13.89455c1.53479,0 2.77891,-1.24412 2.77891,-2.77891c0,-1.53479 -1.24412,-2.77891 -2.77891,-2.77891h-13.89455c-3.06959,0 -5.55782,2.48824 -5.55782,5.55782v11.11564h-2.77891c-1.53479,0 -2.77891,1.24412 -2.77891,2.77891c0,1.53479 1.24412,2.77891 2.77891,2.77891zM236.09526,165.02038c-3.06959,0 -5.55782,2.48824 -5.55782,5.55782c0,3.06959 2.48824,5.55782 5.55782,5.55782zM313.90474,176.13601c3.06959,0 5.55782,-2.48824 5.55782,-5.55782c0,-3.06959 -2.48824,-5.55782 -5.55782,-5.55782zM261.10545,176.13601c0.18248,0 0.3632,-0.01779 0.54217,-0.05336c0.17896,-0.03557 0.35274,-0.08828 0.52133,-0.15812c0.16859,-0.06985 0.32874,-0.15543 0.48048,-0.25677c0.15173,-0.10134 0.29206,-0.21657 0.421,-0.3457c0.12913,-0.12894 0.24436,-0.26928 0.3457,-0.421c0.10134,-0.15173 0.18692,-0.31189 0.25677,-0.48048c0.06985,-0.16859 0.12255,-0.34236 0.15812,-0.52133c0.03557,-0.17896 0.05336,-0.35968 0.05336,-0.54217c0,-0.18248 -0.01779,-0.3632 -0.05336,-0.54217c-0.03557,-0.17896 -0.08828,-0.35274 -0.15812,-0.52133c-0.06985,-0.16859 -0.15543,-0.32874 -0.25677,-0.48048c-0.10134,-0.15173 -0.21657,-0.29206 -0.3457,-0.421c-0.12894,-0.12913 -0.26928,-0.24436 -0.421,-0.3457c-0.15173,-0.10134 -0.31189,-0.18692 -0.48048,-0.25677c-0.16859,-0.06985 -0.34236,-0.12255 -0.52133,-0.15812c-0.17896,-0.03557 -0.35968,-0.05336 -0.54217,-0.05336c-0.18248,0 -0.3632,0.01779 -0.54217,0.05336c-0.17896,0.03557 -0.35274,0.08828 -0.52133,0.15812c-0.16859,0.06985 -0.32874,0.15543 -0.48048,0.25677c-0.15173,0.10134 -0.29206,0.21657 -0.421,0.3457c-0.12913,0.12894 -0.24436,0.26928 -0.3457,0.421c-0.10134,0.15173 -0.18692,0.31189 -0.25677,0.48048c-0.06985,0.16859 -0.12255,0.34236 -0.15812,0.52133c-0.03557,0.17896 -0.05336,0.35968 -0.05336,0.54217c0,0.18248 0.01779,0.3632 0.05336,0.54217c0.03557,0.17896 0.08828,0.35274 0.15812,0.52133c0.06985,0.16859 0.15543,0.32874 0.25677,0.48048c0.10134,0.15173 0.21657,0.29206 0.3457,0.421c0.12894,0.12913 0.26928,0.24436 0.421,0.3457c0.15173,0.10134 0.31189,0.18692 0.48048,0.25677c0.16859,0.06985 0.34236,0.12255 0.52133,0.15812c0.17896,0.03557 0.35968,0.05336 0.54217,0.05336zM288.89455,176.13601c0.18248,0 0.3632,-0.01779 0.54217,-0.05336c0.17896,-0.03557 0.35274,-0.08828 0.52133,-0.15812c0.16859,-0.06985 0.32874,-0.15543 0.48048,-0.25677c0.15173,-0.10134 0.29206,-0.21657 0.421,-0.3457c0.12913,-0.12894 0.24436,-0.26928 0.3457,-0.421c0.10134,-0.15173 0.18692,-0.31189 0.25677,-0.48048c0.06985,-0.16859 0.12255,-0.34236 0.15812,-0.52133c0.03557,-0.17896 0.05336,-0.35968 0.05336,-0.54217c0,-0.18248 -0.01779,-0.3632 -0.05336,-0.54217c-0.03557,-0.17896 -0.08828,-0.35274 -0.15812,-0.52133c-0.06985,-0.16859 -0.15543,-0.32874 -0.25677,-0.48048c-0.10134,-0.15173 -0.21657,-0.29206 -0.3457,-0.421c-0.12894,-0.12913 -0.26928,-0.24436 -0.421,-0.3457c-0.15173,-0.10134 -0.31189,-0.18692 -0.48048,-0.25677c-0.16859,-0.06985 -0.34236,-0.12255 -0.52133,-0.15812c-0.17896,-0.03557 -0.35968,-0.05336 -0.54217,-0.05336c-0.18248,0 -0.3632,0.01779 -0.54217,0.05336c-0.17896,0.03557 -0.35274,0.08828 -0.52133,0.15812c-0.16859,0.06985 -0.32874,0.15543 -0.48048,0.25677c-0.15173,0.10134 -0.29206,0.21657 -0.421,0.3457c-0.12913,0.12894 -0.24436,0.26928 -0.3457,0.421c-0.10134,0.15173 -0.18692,0.31189 -0.25677,0.48048c-0.06985,0.16859 -0.12255,0.34236 -0.15812,0.52133c-0.03557,0.17896 -0.05336,0.35968 -0.05336,0.54217c0,0.18248 0.01779,0.3632 0.05336,0.54217c0.03557,0.17896 0.08828,0.35274 0.15812,0.52133c0.06985,0.16859 0.15543,0.32874 0.25677,0.48048c0.10134,0.15173 0.21657,0.29206 0.3457,0.421c0.12894,0.12913 0.26928,0.24436 0.421,0.3457c0.15173,0.10134 0.31189,0.18692 0.48048,0.25677c0.16859,0.06985 0.34236,0.12255 0.52133,0.15812c0.17896,0.03557 0.35968,0.05336 0.54217,0.05336zM269.44218,203.92512c0,-1.53479 1.24412,-2.77891 2.77891,-2.77891h5.55782c1.53479,0 2.77891,1.24412 2.77891,2.77891c0,1.53479 -1.24412,2.77891 -2.77891,2.77891h-5.55782c-1.53479,0 -2.77891,-1.24412 -2.77891,-2.77891zM244.43199,226.1564c4.60438,0 8.33673,-3.73235 8.33673,-8.33673v-4.61021c-1.62205,-0.96094 -3.15962,-2.05806 -4.59632,-3.27912c-4.50044,0.84062 -8.68048,2.91035 -12.07715,5.98021v1.90911c0,4.60438 3.73235,8.33673 8.33673,8.33673zM297.23129,217.81967c0,4.60438 3.73235,8.33673 8.33673,8.33673c4.60438,0 8.33673,-3.73235 8.33673,-8.33673v-1.90911c-3.39666,-3.06986 -7.57669,-5.1396 -12.07715,-5.98021c-1.4367,1.22105 -2.97427,2.31817 -4.59632,3.27912zM247.21089,215.04076h-5.55782v5.55782h5.55782zM308.34692,215.04076h-5.55782v5.55782h5.55782zM258.36544,215.80775c0.40961,8.89251 7.73259,15.89509 16.63456,15.90648c8.91058,0.00056 16.24689,-7.00536 16.65679,-15.90648c-3.65315,1.32359 -7.50806,2.00415 -11.39353,2.01193h-10.50428c-3.88547,-0.00778 -7.74038,-0.68834 -11.39353,-2.01193z" data-paper-data="{&quot;isPathIcon&quot;:true}"></path></g></g></g></svg>
