<svg xmlns:mydata="http://www.w3.org/2000/svg" mydata:contrastcolor="11111f"  mydata:template="Contrast" mydata:presentation="2.5" mydata:layouttype="undefined" mydata:specialfontid="undefined" mydata:id1="708" mydata:id2="206" mydata:companyname="Attendance Hero" mydata:companytagline="Sua presença em suas mãos" version="1.1" xmlns="http://www.w3.org/2000/svg" xmlns:xlink="http://www.w3.org/1999/xlink" viewBox="0 0 550 370">
    <g fill="#fff" fill-rule="none" stroke="none" stroke-width="1" stroke-linecap="butt" stroke-linejoin="miter" stroke-miterlimit="10" stroke-dasharray="" stroke-dashoffset="0" font-family="none" font-weight="none" font-size="none" text-anchor="none" style="mix-blend-mode: normal"><g data-paper-data="{&quot;isGlobalGroup&quot;:true,&quot;bounds&quot;:{&quot;x&quot;:122.01687846315194,&quot;y&quot;:114.99999999999999,&quot;width&quot;:305.9662430736961,&quot;height&quot;:240}}"><g data-paper-data="{&quot;isSecondaryText&quot;:true}" fill-rule="nonzero">

        <path d="M313.90474,184.16707c-0.01084,7.71175 -2.66942,15.18619 -7.53085,21.17251c12.7174,4.03053 21.37621,15.81283 21.4254,29.15354v41.68365h-5.55782v-13.89455h-11.11564v13.89455h-5.55782v-30.56801h5.55782v11.11564h11.11564v-22.23128c-0.00334,-4.43931 -1.19604,-8.79692 -3.45419,-12.61903c-1.5095,5.04289 -5.75679,8.78775 -10.94918,9.65338c-5.19239,0.86563 -10.4248,-1.29886 -13.48855,-5.5795c-3.45586,6.11916 -9.59919,10.24612 -16.57064,11.13231v14.08629h-5.55782v-14.08629c-6.97145,-0.8862 -13.11479,-5.01315 -16.57064,-11.13231c-3.06375,4.28063 -8.29616,6.44513 -13.48855,5.5795c-5.19239,-0.86563 -9.43968,-4.61049 -10.94918,-9.65338c-2.25814,3.82211 -3.45085,8.17972 -3.45419,12.61903v22.23128h11.11564v-11.11564h5.55782v30.56801h-5.55782v-13.89455h-11.11564v13.89455h-5.55782v-41.68365c0.04724,-13.34127 8.70688,-25.12441 21.4254,-29.15354c-4.86142,-5.98633 -7.52001,-13.46076 -7.53085,-21.17251v-2.47323c-6.13889,0 -11.11564,-4.97675 -11.11564,-11.11564c0,-6.13889 4.97675,-11.11564 11.11564,-11.11564v-5.55782c0,-21.48653 17.41821,-38.90474 38.90474,-38.90474c21.48653,0 38.90474,17.41821 38.90474,38.90474v5.55782c6.13889,0 11.11564,4.97675 11.11564,11.11564c0,6.13889 -4.97675,11.11564 -11.11564,11.11564zM241.65308,153.90473v30.26233c-0.00083,7.45137 2.95898,14.59789 8.22807,19.86671c5.26881,5.26909 12.41533,8.2289 19.86671,8.22807h10.50428c7.45137,0.00083 14.59789,-2.95898 19.86671,-8.22807c5.26909,-5.26881 8.2289,-12.41533 8.22807,-19.86671v-30.26233c0,-18.41695 -14.92997,-33.34692 -33.34692,-33.34692c-18.41695,0 -33.34692,14.92997 -33.34692,33.34692zM266.66326,167.79928h-11.11564c-1.53479,0 -2.77891,-1.24412 -2.77891,-2.77891c0,-1.53479 1.24412,-2.77891 2.77891,-2.77891h11.11564c1.53479,0 2.77891,1.24412 2.77891,2.77891c0,1.53479 -1.24412,2.77891 -2.77891,2.77891zM272.22108,184.47275h2.77891c3.06959,0 5.55782,-2.48824 5.55782,-5.55782v-11.11564h13.89455c1.53479,0 2.77891,-1.24412 2.77891,-2.77891c0,-1.53479 -1.24412,-2.77891 -2.77891,-2.77891h-13.89455c-3.06959,0 -5.55782,2.48824 -5.55782,5.55782v11.11564h-2.77891c-1.53479,0 -2.77891,1.24412 -2.77891,2.77891c0,1.53479 1.24412,2.77891 2.77891,2.77891zM236.09526,165.02038c-3.06959,0 -5.55782,2.48824 -5.55782,5.55782c0,3.06959 2.48824,5.55782 5.55782,5.55782zM313.90474,176.13601c3.06959,0 5.55782,-2.48824 5.55782,-5.55782c0,-3.06959 -2.48824,-5.55782 -5.55782,-5.55782zM261.10545,176.13601c0.18248,0 0.3632,-0.01779 0.54217,-0.05336c0.17896,-0.03557 0.35274,-0.08828 0.52133,-0.15812c0.16859,-0.06985 0.32874,-0.15543 0.48048,-0.25677c0.15173,-0.10134 0.29206,-0.21657 0.421,-0.3457c0.12913,-0.12894 0.24436,-0.26928 0.3457,-0.421c0.10134,-0.15173 0.18692,-0.31189 0.25677,-0.48048c0.06985,-0.16859 0.12255,-0.34236 0.15812,-0.52133c0.03557,-0.17896 0.05336,-0.35968 0.05336,-0.54217c0,-0.18248 -0.01779,-0.3632 -0.05336,-0.54217c-0.03557,-0.17896 -0.08828,-0.35274 -0.15812,-0.52133c-0.06985,-0.16859 -0.15543,-0.32874 -0.25677,-0.48048c-0.10134,-0.15173 -0.21657,-0.29206 -0.3457,-0.421c-0.12894,-0.12913 -0.26928,-0.24436 -0.421,-0.3457c-0.15173,-0.10134 -0.31189,-0.18692 -0.48048,-0.25677c-0.16859,-0.06985 -0.34236,-0.12255 -0.52133,-0.15812c-0.17896,-0.03557 -0.35968,-0.05336 -0.54217,-0.05336c-0.18248,0 -0.3632,0.01779 -0.54217,0.05336c-0.17896,0.03557 -0.35274,0.08828 -0.52133,0.15812c-0.16859,0.06985 -0.32874,0.15543 -0.48048,0.25677c-0.15173,0.10134 -0.29206,0.21657 -0.421,0.3457c-0.12913,0.12894 -0.24436,0.26928 -0.3457,0.421c-0.10134,0.15173 -0.18692,0.31189 -0.25677,0.48048c-0.06985,0.16859 -0.12255,0.34236 -0.15812,0.52133c-0.03557,0.17896 -0.05336,0.35968 -0.05336,0.54217c0,0.18248 0.01779,0.3632 0.05336,0.54217c0.03557,0.17896 0.08828,0.35274 0.15812,0.52133c0.06985,0.16859 0.15543,0.32874 0.25677,0.48048c0.10134,0.15173 0.21657,0.29206 0.3457,0.421c0.12894,0.12913 0.26928,0.24436 0.421,0.3457c0.15173,0.10134 0.31189,0.18692 0.48048,0.25677c0.16859,0.06985 0.34236,0.12255 0.52133,0.15812c0.17896,0.03557 0.35968,0.05336 0.54217,0.05336zM288.89455,176.13601c0.18248,0 0.3632,-0.01779 0.54217,-0.05336c0.17896,-0.03557 0.35274,-0.08828 0.52133,-0.15812c0.16859,-0.06985 0.32874,-0.15543 0.48048,-0.25677c0.15173,-0.10134 0.29206,-0.21657 0.421,-0.3457c0.12913,-0.12894 0.24436,-0.26928 0.3457,-0.421c0.10134,-0.15173 0.18692,-0.31189 0.25677,-0.48048c0.06985,-0.16859 0.12255,-0.34236 0.15812,-0.52133c0.03557,-0.17896 0.05336,-0.35968 0.05336,-0.54217c0,-0.18248 -0.01779,-0.3632 -0.05336,-0.54217c-0.03557,-0.17896 -0.08828,-0.35274 -0.15812,-0.52133c-0.06985,-0.16859 -0.15543,-0.32874 -0.25677,-0.48048c-0.10134,-0.15173 -0.21657,-0.29206 -0.3457,-0.421c-0.12894,-0.12913 -0.26928,-0.24436 -0.421,-0.3457c-0.15173,-0.10134 -0.31189,-0.18692 -0.48048,-0.25677c-0.16859,-0.06985 -0.34236,-0.12255 -0.52133,-0.15812c-0.17896,-0.03557 -0.35968,-0.05336 -0.54217,-0.05336c-0.18248,0 -0.3632,0.01779 -0.54217,0.05336c-0.17896,0.03557 -0.35274,0.08828 -0.52133,0.15812c-0.16859,0.06985 -0.32874,0.15543 -0.48048,0.25677c-0.15173,0.10134 -0.29206,0.21657 -0.421,0.3457c-0.12913,0.12894 -0.24436,0.26928 -0.3457,0.421c-0.10134,0.15173 -0.18692,0.31189 -0.25677,0.48048c-0.06985,0.16859 -0.12255,0.34236 -0.15812,0.52133c-0.03557,0.17896 -0.05336,0.35968 -0.05336,0.54217c0,0.18248 0.01779,0.3632 0.05336,0.54217c0.03557,0.17896 0.08828,0.35274 0.15812,0.52133c0.06985,0.16859 0.15543,0.32874 0.25677,0.48048c0.10134,0.15173 0.21657,0.29206 0.3457,0.421c0.12894,0.12913 0.26928,0.24436 0.421,0.3457c0.15173,0.10134 0.31189,0.18692 0.48048,0.25677c0.16859,0.06985 0.34236,0.12255 0.52133,0.15812c0.17896,0.03557 0.35968,0.05336 0.54217,0.05336zM269.44218,203.92512c0,-1.53479 1.24412,-2.77891 2.77891,-2.77891h5.55782c1.53479,0 2.77891,1.24412 2.77891,2.77891c0,1.53479 -1.24412,2.77891 -2.77891,2.77891h-5.55782c-1.53479,0 -2.77891,-1.24412 -2.77891,-2.77891zM244.43199,226.1564c4.60438,0 8.33673,-3.73235 8.33673,-8.33673v-4.61021c-1.62205,-0.96094 -3.15962,-2.05806 -4.59632,-3.27912c-4.50044,0.84062 -8.68048,2.91035 -12.07715,5.98021v1.90911c0,4.60438 3.73235,8.33673 8.33673,8.33673zM297.23129,217.81967c0,4.60438 3.73235,8.33673 8.33673,8.33673c4.60438,0 8.33673,-3.73235 8.33673,-8.33673v-1.90911c-3.39666,-3.06986 -7.57669,-5.1396 -12.07715,-5.98021c-1.4367,1.22105 -2.97427,2.31817 -4.59632,3.27912zM247.21089,215.04076h-5.55782v5.55782h5.55782zM308.34692,215.04076h-5.55782v5.55782h5.55782zM258.36544,215.80775c0.40961,8.89251 7.73259,15.89509 16.63456,15.90648c8.91058,0.00056 16.24689,-7.00536 16.65679,-15.90648c-3.65315,1.32359 -7.50806,2.00415 -11.39353,2.01193h-10.50428c-3.88547,-0.00778 -7.74038,-0.68834 -11.39353,-2.01193z" data-paper-data="{&quot;isPathIcon&quot;:true}"></path></g></g></g></svg>
