<svg width="200" height="334" viewBox="0 0 200 334" fill="none" xmlns="http://www.w3.org/2000/svg">
<path d="M173.684 143.332C173.664 159.313 168.628 174.802 159.421 187.207C183.507 195.559 199.907 219.975 200 247.621V334H189.474V305.207H168.421V334H157.895V270.655H168.421V293.69H189.474V247.621C189.467 238.421 187.208 229.391 182.932 221.471C180.073 231.921 172.028 239.681 162.194 241.475C152.36 243.269 142.45 238.784 136.647 229.913C130.102 242.593 118.467 251.146 105.263 252.982V282.172H94.7369V252.982C81.5332 251.146 69.8979 242.593 63.3526 229.913C57.55 238.784 47.64 243.269 37.8058 241.475C27.9716 239.681 19.9274 231.921 17.0684 221.471C12.7916 229.391 10.5326 238.421 10.5263 247.621V293.69H31.579V270.655H42.1053V334H31.579V305.207H10.5263V334H0V247.621C0.0894709 219.974 16.4905 195.556 40.579 187.207C31.3716 174.802 26.3363 159.313 26.3158 143.332V138.207C14.6889 138.207 5.26314 127.894 5.26314 115.172C5.26314 102.451 14.6889 92.1379 26.3158 92.1379V80.6207C26.3158 36.095 59.3053 0 100 0C140.695 0 173.684 36.095 173.684 80.6207V92.1379C185.311 92.1379 194.737 102.451 194.737 115.172C194.737 127.894 185.311 138.207 173.684 138.207V143.332ZM36.8421 80.6207V143.332C36.8405 158.773 42.4463 173.583 52.4258 184.501C62.4047 195.42 75.94 201.553 90.0526 201.552H109.947C124.06 201.553 137.595 195.42 147.574 184.501C157.554 173.583 163.159 158.773 163.158 143.332V80.6207C163.158 42.456 134.881 11.5172 100 11.5172C65.1189 11.5172 36.8421 42.456 36.8421 80.6207ZM84.2105 109.414H63.1579C60.251 109.414 57.8947 106.836 57.8947 103.655C57.8947 100.475 60.251 97.8965 63.1579 97.8965H84.2105C87.1174 97.8965 89.4737 100.475 89.4737 103.655C89.4737 106.836 87.1174 109.414 84.2105 109.414ZM94.7368 143.966H100C105.814 143.966 110.526 138.809 110.526 132.448V109.414H136.842C139.749 109.414 142.105 106.836 142.105 103.655C142.105 100.475 139.749 97.8966 136.842 97.8966H110.526C104.713 97.8966 100 103.053 100 109.414V132.448H94.7368C91.83 132.448 89.4737 135.026 89.4737 138.207C89.4737 141.387 91.83 143.966 94.7368 143.966ZM26.3158 103.655C20.5021 103.655 15.7895 108.811 15.7895 115.172C15.7895 121.533 20.5021 126.69 26.3158 126.69V103.655ZM173.684 126.69C179.498 126.69 184.211 121.533 184.211 115.172C184.211 108.811 179.498 103.655 173.684 103.655V126.69ZM73.6842 126.69C74.0298 126.69 74.3721 126.653 74.711 126.579C75.05 126.505 75.3791 126.396 75.6984 126.251C76.0177 126.107 76.3211 125.929 76.6085 125.719C76.8959 125.509 77.1616 125.271 77.4058 125.003C77.6504 124.736 77.8686 124.445 78.0606 124.131C78.2525 123.816 78.4146 123.484 78.5469 123.135C78.6792 122.785 78.779 122.425 78.8464 122.055C78.9137 121.684 78.9474 121.309 78.9474 120.931C78.9474 120.553 78.9137 120.178 78.8464 119.807C78.779 119.437 78.6792 119.077 78.5469 118.727C78.4146 118.378 78.2525 118.046 78.0606 117.731C77.8686 117.417 77.6504 117.126 77.4058 116.859C77.1616 116.591 76.8958 116.353 76.6085 116.143C76.3211 115.933 76.0177 115.755 75.6984 115.611C75.3791 115.466 75.05 115.357 74.711 115.283C74.3721 115.209 74.0298 115.172 73.6842 115.172C73.3386 115.172 72.9963 115.209 72.6574 115.283C72.3184 115.357 71.9893 115.466 71.67 115.611C71.3507 115.755 71.0473 115.933 70.7599 116.143C70.4726 116.353 70.2068 116.591 69.9626 116.859C69.718 117.126 69.4998 117.417 69.3079 117.731C69.1159 118.046 68.9538 118.378 68.8215 118.727C68.6892 119.077 68.5894 119.437 68.5221 119.807C68.4547 120.178 68.421 120.553 68.421 120.931C68.421 121.309 68.4547 121.684 68.5221 122.055C68.5894 122.425 68.6893 122.785 68.8215 123.135C68.9538 123.484 69.1159 123.816 69.3079 124.131C69.4998 124.445 69.718 124.736 69.9626 125.003C70.2068 125.271 70.4726 125.509 70.7599 125.719C71.0473 125.929 71.3507 126.107 71.67 126.251C71.9893 126.396 72.3184 126.505 72.6574 126.579C72.9963 126.653 73.3386 126.69 73.6842 126.69ZM126.316 126.69C126.661 126.69 127.004 126.653 127.343 126.579C127.682 126.505 128.011 126.396 128.33 126.251C128.649 126.107 128.953 125.929 129.24 125.719C129.527 125.509 129.793 125.271 130.037 125.003C130.282 124.736 130.5 124.445 130.692 124.131C130.884 123.816 131.046 123.484 131.178 123.135C131.311 122.785 131.411 122.425 131.478 122.055C131.545 121.684 131.579 121.309 131.579 120.931C131.579 120.553 131.545 120.178 131.478 119.807C131.411 119.437 131.311 119.077 131.178 118.727C131.046 118.378 130.884 118.046 130.692 117.731C130.5 117.417 130.282 117.126 130.037 116.859C129.793 116.591 129.527 116.353 129.24 116.143C128.953 115.933 128.649 115.755 128.33 115.611C128.011 115.466 127.682 115.357 127.343 115.283C127.004 115.209 126.661 115.172 126.316 115.172C125.97 115.172 125.628 115.209 125.289 115.283C124.95 115.357 124.621 115.466 124.302 115.611C123.982 115.755 123.679 115.933 123.392 116.143C123.104 116.353 122.838 116.591 122.594 116.859C122.35 117.126 122.131 117.417 121.939 117.731C121.747 118.046 121.585 118.378 121.453 118.727C121.321 119.077 121.221 119.437 121.154 119.807C121.086 120.178 121.053 120.553 121.053 120.931C121.053 121.309 121.086 121.684 121.154 122.055C121.221 122.425 121.321 122.785 121.453 123.135C121.585 123.484 121.747 123.816 121.939 124.131C122.131 124.445 122.35 124.736 122.594 125.003C122.838 125.271 123.104 125.509 123.392 125.719C123.679 125.929 123.982 126.107 124.302 126.251C124.621 126.396 124.95 126.505 125.289 126.579C125.628 126.653 125.97 126.69 126.316 126.69ZM89.4737 184.276C89.4737 181.095 91.83 178.517 94.7369 178.517H105.263C108.17 178.517 110.526 181.095 110.526 184.276C110.526 187.456 108.17 190.035 105.263 190.035H94.7369C91.83 190.035 89.4737 187.456 89.4737 184.276ZM42.1053 230.345C50.8258 230.345 57.8947 222.61 57.8947 213.069V203.515C54.8226 201.524 51.9105 199.251 49.1895 196.72C40.6658 198.462 32.7489 202.751 26.3158 209.113V213.069C26.3158 222.61 33.3847 230.345 42.1053 230.345ZM142.105 213.069C142.105 222.61 149.174 230.345 157.895 230.345C166.615 230.345 173.684 222.61 173.684 213.069V209.113C167.251 202.751 159.334 198.462 150.811 196.72C148.089 199.251 145.177 201.524 142.105 203.515V213.069ZM47.3684 207.31H36.8421V218.828H47.3684V207.31ZM163.158 207.31H152.632V218.828H163.158V207.31ZM68.4947 208.9C69.2705 227.327 83.14 241.839 100 241.862C116.876 241.863 130.771 227.345 131.547 208.9C124.628 211.643 117.327 213.053 109.968 213.069H90.0737C82.7147 213.053 75.4137 211.643 68.4947 208.9Z" fill="#44D62C"/>
</svg>
