<svg width="409" height="325" viewBox="0 0 409 325" fill="none" xmlns="http://www.w3.org/2000/svg">
<path d="M23.0077 303.142C23.8163 304.651 24.2207 306.274 24.2207 308.01C24.2207 309.787 23.8257 311.42 23.0359 312.908C22.2084 314.397 21.1082 315.585 19.7353 316.474C18.3625 317.363 16.8862 317.807 15.3064 317.807C13.6515 317.807 12.1658 317.352 10.8493 316.443C9.49526 315.575 8.41389 314.386 7.60522 312.877C6.79655 311.369 6.39221 309.746 6.39221 308.01C6.39221 306.191 6.80596 304.558 7.63344 303.111C8.4233 301.623 9.50468 300.435 10.8775 299.546C12.2504 298.657 13.7267 298.213 15.3064 298.213C16.9238 298.213 18.4095 298.647 19.7636 299.515C21.1176 300.424 22.199 301.633 23.0077 303.142ZM24.2207 321.652V324.628H30.5396L30.5961 307.514C30.5961 304.579 29.9002 301.85 28.5086 299.329C27.1169 296.848 25.2456 294.875 22.8948 293.407C20.544 291.94 18.0146 291.206 15.3065 291.206C12.5607 291.206 10.0218 291.95 7.68985 293.438C5.32024 294.968 3.44901 297.024 2.07614 299.608C0.703276 302.191 0.0168457 304.992 0.0168457 308.01C0.0168457 311.069 0.712687 313.859 2.10436 316.381C3.45842 318.985 5.31084 321.042 7.66164 322.551C10.0124 324.06 12.5607 324.814 15.3065 324.814C18.5412 324.814 21.5126 323.76 24.2207 321.652Z" fill="white"/>
<path d="M33.417 279.486V324.752H40.8079V296.787H45.8292L47.5782 289.594H40.8079V279.486H33.417Z" fill="white"/>
<path d="M50.3994 279.486V324.752H57.7903V296.787H62.8117L64.5607 289.594H57.7903V279.486H50.3994Z" fill="white"/>
<path d="M72.9104 294.244C70.2775 296.228 68.3968 298.833 67.2685 302.057C66.5914 304.041 66.2529 306.026 66.2529 308.01C66.2529 311.4 67.1556 314.562 68.9611 317.497C70.5784 320.143 72.5249 322.034 74.8004 323.171C77.076 324.308 79.3046 324.876 81.4861 324.876C84.0814 324.876 86.5262 324.194 88.8206 322.83C91.115 321.466 92.958 319.605 94.3497 317.249L88.2 314.645C87.3725 315.678 86.3664 316.474 85.1816 317.032C83.9968 317.59 82.765 317.869 81.4861 317.869C80.3577 317.869 79.3046 317.662 78.3266 317.249C77.123 316.753 76.0699 315.999 75.1672 314.986C74.2645 313.973 73.5874 312.785 73.1361 311.42L96.4936 310.738V310.676L96.6065 310.738C96.7193 309.87 96.7757 308.981 96.7757 308.072C96.7757 304.682 95.8918 301.52 94.124 298.585C92.5067 295.98 90.5508 294.11 88.2564 292.973C85.962 291.836 83.7429 291.268 81.599 291.268C78.4395 291.268 75.5433 292.26 72.9104 294.244ZM73.0797 304.972L73.1925 304.6C73.8695 302.657 74.9791 301.127 76.5213 300.011C78.0634 298.895 79.7559 298.337 81.599 298.337C82.7274 298.337 83.7805 298.543 84.7585 298.957C85.9621 299.453 87.0058 300.187 87.8897 301.158C88.7736 302.13 89.4225 303.256 89.8362 304.537L73.0797 304.972Z" fill="white"/>
<path d="M120.303 306.088V324.876H126.622L126.735 306.088C126.735 303.194 126.076 300.59 124.76 298.275C123.406 296.084 121.657 294.378 119.513 293.159C117.369 291.939 115.056 291.33 112.573 291.33C110.166 291.33 107.872 291.929 105.69 293.128C103.471 294.368 101.713 296.115 100.415 298.368C99.1173 300.621 98.4685 303.194 98.4685 306.088V324.876H104.787V306.088C104.787 303.69 105.54 301.799 107.044 300.414C108.549 299.029 110.392 298.337 112.573 298.337C114.717 298.337 116.541 299.029 118.046 300.414C119.55 301.799 120.303 303.69 120.303 306.088Z" fill="white"/>
<path d="M159.006 308.568L158.95 279.424L152.631 283.145V294.43C149.923 292.322 146.952 291.268 143.717 291.268C140.971 291.268 138.432 292.012 136.1 293.5C133.731 295.03 131.859 297.086 130.487 299.67C129.114 302.253 128.427 305.054 128.427 308.072C128.427 311.131 129.123 313.921 130.515 316.443C131.869 319.047 133.721 321.104 136.072 322.613C138.423 324.122 140.971 324.876 143.717 324.876C146.425 324.876 148.964 324.132 151.333 322.644C153.703 321.156 155.574 319.171 156.947 316.691C158.32 314.211 159.006 311.503 159.006 308.568ZM151.418 303.204C152.227 304.713 152.631 306.336 152.631 308.072C152.631 309.849 152.236 311.482 151.446 312.971C150.619 314.459 149.519 315.647 148.146 316.536C146.773 317.425 145.297 317.869 143.717 317.869C142.062 317.869 140.576 317.414 139.26 316.505C137.906 315.637 136.824 314.448 136.016 312.939C135.207 311.431 134.803 309.808 134.803 308.072C134.803 306.253 135.216 304.62 136.044 303.173C136.834 301.685 137.915 300.497 139.288 299.608C140.661 298.719 142.137 298.275 143.717 298.275C145.334 298.275 146.82 298.709 148.174 299.577C149.528 300.486 150.609 301.695 151.418 303.204Z" fill="white"/>
<path d="M183.69 303.142C184.498 304.651 184.903 306.274 184.903 308.01C184.903 309.787 184.508 311.42 183.718 312.908C182.89 314.397 181.79 315.585 180.417 316.474C179.044 317.363 177.568 317.807 175.988 317.807C174.333 317.807 172.848 317.352 171.531 316.443C170.177 315.575 169.096 314.386 168.287 312.877C167.478 311.369 167.074 309.746 167.074 308.01C167.074 306.191 167.488 304.558 168.315 303.111C169.105 301.623 170.187 300.435 171.559 299.546C172.932 298.657 174.409 298.213 175.988 298.213C177.606 298.213 179.091 298.647 180.445 299.515C181.8 300.424 182.881 301.633 183.69 303.142ZM184.903 321.652V324.628H191.222L191.278 307.514C191.278 304.579 190.582 301.85 189.19 299.329C187.799 296.848 185.928 294.875 183.577 293.407C181.226 291.94 178.696 291.206 175.988 291.206C173.243 291.206 170.704 291.95 168.372 293.438C166.002 294.968 164.131 297.024 162.758 299.608C161.385 302.191 160.699 304.992 160.699 308.01C160.699 311.069 161.395 313.859 162.786 316.381C164.14 318.985 165.993 321.042 168.344 322.551C170.694 324.06 173.243 324.814 175.988 324.814C179.223 324.814 182.194 323.76 184.903 321.652Z" fill="white"/>
<path d="M214.805 306.088V324.876H221.124L221.237 306.088C221.237 303.194 220.579 300.59 219.262 298.275C217.908 296.084 216.159 294.378 214.015 293.159C211.871 291.939 209.558 291.33 207.075 291.33C204.668 291.33 202.374 291.929 200.192 293.128C197.973 294.368 196.215 296.115 194.917 298.368C193.62 300.621 192.971 303.194 192.971 306.088V324.876H199.29V306.088C199.29 303.69 200.042 301.799 201.546 300.414C203.051 299.029 204.894 298.337 207.075 298.337C209.219 298.337 211.044 299.029 212.548 300.414C214.053 301.799 214.805 303.69 214.805 306.088Z" fill="white"/>
<path d="M224.989 299.67C223.616 302.254 222.929 305.054 222.929 308.072C222.929 311.131 223.625 313.921 225.017 316.443C226.371 319.047 228.223 321.104 230.574 322.613C232.925 324.122 235.473 324.876 238.219 324.876C240.664 324.876 242.921 324.297 244.989 323.14C247.096 321.982 248.863 320.391 250.293 318.365C251.722 316.34 252.681 314.066 253.17 311.544H246.569C245.93 313.405 244.848 314.924 243.325 316.102C241.802 317.28 240.1 317.869 238.219 317.869C236.564 317.869 235.078 317.414 233.762 316.505C232.408 315.637 231.326 314.448 230.518 312.94C229.709 311.431 229.305 309.808 229.305 308.072C229.305 306.253 229.718 304.62 230.546 303.173C231.336 301.685 232.417 300.497 233.79 299.608C235.163 298.719 236.639 298.275 238.219 298.275C240.1 298.275 241.792 298.853 243.297 300.011C244.801 301.168 245.873 302.677 246.513 304.537L253.17 304.6C252.681 302.119 251.722 299.846 250.293 297.779C248.826 295.753 247.039 294.162 244.933 293.004C242.827 291.847 240.589 291.268 238.219 291.268C235.473 291.268 232.934 292.012 230.602 293.5C228.233 295.03 226.361 297.086 224.989 299.67Z" fill="white"/>
<path d="M261.52 294.244C258.887 296.228 257.007 298.833 255.878 302.057C255.201 304.041 254.863 306.026 254.863 308.01C254.863 311.4 255.765 314.562 257.571 317.497C259.188 320.143 261.135 322.034 263.41 323.171C265.686 324.308 267.914 324.876 270.096 324.876C272.691 324.876 275.136 324.194 277.43 322.83C279.725 321.466 281.568 319.605 282.959 317.249L276.81 314.645C275.982 315.678 274.976 316.474 273.791 317.032C272.606 317.59 271.375 317.869 270.096 317.869C268.967 317.869 267.914 317.662 266.936 317.249C265.733 316.753 264.68 315.999 263.777 314.986C262.874 313.973 262.197 312.785 261.746 311.42L285.103 310.738V310.676L285.216 310.738C285.329 309.87 285.385 308.981 285.385 308.072C285.385 304.682 284.501 301.52 282.734 298.585C281.116 295.98 279.16 294.11 276.866 292.973C274.572 291.836 272.353 291.268 270.209 291.268C267.049 291.268 264.153 292.26 261.52 294.244ZM261.689 304.972L261.802 304.6C262.479 302.657 263.589 301.127 265.131 300.011C266.673 298.895 268.366 298.337 270.209 298.337C271.337 298.337 272.39 298.543 273.368 298.957C274.572 299.453 275.615 300.187 276.499 301.158C277.383 302.13 278.032 303.256 278.446 304.537L261.689 304.972Z" fill="white"/>
<path d="M297.91 279.176L297.798 324.876H304.117V306.088C304.117 303.69 304.869 301.799 306.373 300.414C307.878 299.029 309.721 298.337 311.902 298.337C314.046 298.337 315.871 299.029 317.375 300.414C318.88 301.799 319.632 303.69 319.632 306.088V324.876H325.951L326.064 306.088C326.064 303.194 325.405 300.59 324.089 298.275C322.735 296.084 320.986 294.378 318.842 293.159C316.698 291.94 314.385 291.33 311.902 291.33C309.044 291.33 306.449 292.115 304.117 293.686V282.277L297.91 279.176Z" fill="#44D62C"/>
<path d="M334.414 294.244C331.781 296.228 329.9 298.833 328.772 302.057C328.095 304.041 327.756 306.026 327.756 308.01C327.756 311.4 328.659 314.562 330.464 317.497C332.082 320.143 334.028 322.034 336.304 323.171C338.579 324.308 340.808 324.876 342.99 324.876C345.585 324.876 348.03 324.194 350.324 322.83C352.618 321.466 354.461 319.605 355.853 317.249L349.703 314.645C348.876 315.678 347.87 316.474 346.685 317.032C345.5 317.59 344.268 317.869 342.99 317.869C341.861 317.869 340.808 317.662 339.83 317.249C338.626 316.753 337.573 315.999 336.671 314.986C335.768 313.973 335.091 312.785 334.639 311.42L357.997 310.738V310.676L358.11 310.738C358.223 309.87 358.279 308.981 358.279 308.072C358.279 304.682 357.395 301.52 355.627 298.585C354.01 295.98 352.054 294.11 349.76 292.973C347.465 291.836 345.246 291.268 343.102 291.268C339.943 291.268 337.047 292.26 334.414 294.244ZM334.583 304.972L334.696 304.6C335.373 302.657 336.483 301.127 338.025 300.011C339.567 298.895 341.259 298.337 343.102 298.337C344.231 298.337 345.284 298.543 346.262 298.957C347.466 299.453 348.509 300.187 349.393 301.158C350.277 302.13 350.926 303.256 351.34 304.537L334.583 304.972Z" fill="#44D62C"/>
<path d="M376.728 298.647V291.02L375.261 290.896C372.553 290.896 370.033 291.619 367.701 293.066C365.294 294.554 363.404 296.549 362.031 299.05C360.658 301.551 359.972 304.269 359.972 307.204L360.028 325H366.629L366.516 308.32C366.516 306.501 366.93 304.868 367.757 303.421C368.547 301.933 369.629 300.745 371.002 299.856C372.374 298.967 373.851 298.523 375.43 298.523C375.618 298.523 376.051 298.564 376.728 298.647Z" fill="#44D62C"/>
<path d="M386.066 322.613C388.416 324.122 390.965 324.876 393.71 324.876C396.494 324.876 399.051 324.111 401.383 322.582C403.715 321.094 405.568 319.058 406.941 316.474C408.314 313.89 409 311.09 409 308.072C409 305.054 408.323 302.243 406.969 299.639C405.577 297.076 403.697 295.04 401.327 293.531C398.957 292.022 396.418 291.268 393.71 291.268C390.965 291.268 388.426 292.012 386.094 293.5C383.724 295.03 381.853 297.086 380.48 299.67C379.107 302.254 378.421 305.054 378.421 308.072C378.421 311.131 379.117 313.921 380.508 316.443C381.862 319.047 383.715 321.104 386.066 322.613ZM397.97 316.133C396.672 316.96 395.253 317.373 393.71 317.373C392.206 317.373 390.795 316.96 389.479 316.133C388.163 315.306 387.128 314.18 386.376 312.754C385.624 311.327 385.248 309.767 385.248 308.072C385.248 306.377 385.624 304.806 386.376 303.359C387.128 301.912 388.153 300.786 389.451 299.98C390.748 299.174 392.168 298.771 393.71 298.771C395.253 298.771 396.682 299.184 397.998 300.011C399.315 300.838 400.34 301.964 401.073 303.39C401.807 304.817 402.173 306.377 402.173 308.072C402.173 309.726 401.797 311.276 401.045 312.723C400.293 314.169 399.268 315.306 397.97 316.133Z" fill="#44D62C"/>
<path fill-rule="evenodd" clip-rule="evenodd" d="M256.512 101.613C256.498 112.943 252.944 123.923 246.446 132.718C263.445 138.639 275.019 155.949 275.085 175.547V236.785H267.656V216.372H252.798V236.785H245.368V191.877H252.798V208.207H267.656V175.547C267.651 169.026 266.057 162.624 263.039 157.009C261.021 164.417 255.343 169.919 248.403 171.191C241.462 172.462 234.468 169.282 230.373 162.994C225.753 171.983 217.542 178.046 208.223 179.348V200.042H200.794V179.348C191.475 178.046 183.263 171.983 178.644 162.994C174.549 169.282 167.555 172.462 160.614 171.191C153.673 169.919 147.996 164.417 145.978 157.009C142.96 162.624 141.365 169.026 141.361 175.547V208.207H156.219V191.877H163.648V236.785H156.219V216.372H141.361V236.785H133.932V175.547C133.995 155.948 145.57 138.637 162.571 132.718C156.073 123.923 152.519 112.943 152.505 101.613V97.9799C144.299 97.9799 137.646 90.6686 137.646 81.65C137.646 72.6313 144.299 65.32 152.505 65.32V57.155C152.505 25.5891 175.787 0 204.508 0C233.229 0 256.512 25.5891 256.512 57.155V65.32C264.718 65.32 271.37 72.6313 271.37 81.65C271.37 90.6686 264.718 97.9799 256.512 97.9799V101.613ZM159.934 57.1549V101.613C159.933 112.56 163.889 123.059 170.932 130.8C177.975 138.54 187.528 142.889 197.488 142.887H211.529C221.489 142.889 231.042 138.54 238.085 130.8C245.128 123.059 249.084 112.56 249.083 101.613V57.1549C249.083 30.0986 229.126 8.16498 204.508 8.16498C179.891 8.16498 159.934 30.0986 159.934 57.1549ZM193.365 77.5675H178.506C176.455 77.5675 174.792 75.7397 174.792 73.4849C174.792 71.2302 176.455 69.4024 178.506 69.4024H193.365C195.416 69.4024 197.079 71.2302 197.079 73.4849C197.079 75.7397 195.416 77.5675 193.365 77.5675ZM200.794 102.062H204.508C208.611 102.062 211.937 98.407 211.937 93.8975V77.5675H230.51C232.562 77.5675 234.225 75.7397 234.225 73.485C234.225 71.2302 232.562 69.4025 230.51 69.4025H211.937C207.834 69.4025 204.508 73.0579 204.508 77.5675V93.8975H200.794C198.742 93.8975 197.079 95.7252 197.079 97.9799C197.079 100.235 198.742 102.062 200.794 102.062ZM152.505 73.485C148.402 73.485 145.076 77.1404 145.076 81.65C145.076 86.1595 148.402 89.8149 152.505 89.8149V73.485ZM256.512 89.8149C260.615 89.8149 263.941 86.1595 263.941 81.6499C263.941 77.1404 260.615 73.4849 256.512 73.4849V89.8149ZM185.936 89.8149C186.18 89.8149 186.421 89.7888 186.66 89.7365C186.9 89.6843 187.132 89.6068 187.357 89.5042C187.583 89.4016 187.797 89.2759 187.999 89.127C188.202 88.9781 188.39 88.8089 188.562 88.6192C188.735 88.4297 188.889 88.2236 189.024 88.0007C189.16 87.7778 189.274 87.5425 189.368 87.2948C189.461 87.0471 189.531 86.7918 189.579 86.5289C189.626 86.266 189.65 86.0005 189.65 85.7324C189.65 85.4643 189.626 85.1988 189.579 84.9359C189.531 84.673 189.461 84.4177 189.368 84.17C189.274 83.9223 189.16 83.6871 189.024 83.4641C188.889 83.2412 188.735 83.0351 188.562 82.8457C188.39 82.656 188.202 82.4867 187.999 82.3378C187.797 82.1889 187.583 82.0632 187.357 81.9606C187.132 81.8579 186.9 81.7805 186.66 81.7283C186.421 81.676 186.18 81.6499 185.936 81.6499C185.692 81.6499 185.45 81.676 185.211 81.7283C184.972 81.7805 184.739 81.858 184.514 81.9606C184.289 82.0632 184.075 82.1889 183.872 82.3378C183.669 82.4867 183.481 82.656 183.309 82.8457C183.136 83.0351 182.982 83.2412 182.847 83.4641C182.711 83.687 182.597 83.9223 182.504 84.17C182.41 84.4177 182.34 84.673 182.292 84.9359C182.245 85.1988 182.221 85.4643 182.221 85.7324C182.221 86.0005 182.245 86.266 182.292 86.5289C182.34 86.7918 182.41 87.0471 182.504 87.2948C182.597 87.5425 182.711 87.7777 182.847 88.0007C182.982 88.2236 183.136 88.4297 183.309 88.6192C183.481 88.8089 183.669 88.9781 183.872 89.127C184.075 89.2759 184.289 89.4016 184.514 89.5042C184.739 89.6069 184.972 89.6843 185.211 89.7365C185.45 89.7888 185.692 89.8149 185.936 89.8149ZM223.081 89.8149C223.325 89.8149 223.567 89.7888 223.806 89.7365C224.045 89.6843 224.277 89.6068 224.503 89.5042C224.728 89.4016 224.942 89.2759 225.145 89.127C225.348 88.9781 225.535 88.8089 225.708 88.6192C225.88 88.4297 226.034 88.2236 226.17 88.0007C226.305 87.7778 226.42 87.5425 226.513 87.2948C226.606 87.0471 226.677 86.7918 226.724 86.5289C226.772 86.266 226.796 86.0005 226.796 85.7324C226.796 85.4643 226.772 85.1988 226.724 84.9359C226.677 84.673 226.606 84.4177 226.513 84.17C226.42 83.9223 226.305 83.6871 226.17 83.4641C226.034 83.2412 225.88 83.0351 225.708 82.8457C225.535 82.656 225.348 82.4867 225.145 82.3378C224.942 82.1889 224.728 82.0632 224.503 81.9606C224.277 81.8579 224.045 81.7805 223.806 81.7283C223.567 81.676 223.325 81.6499 223.081 81.6499C222.837 81.6499 222.596 81.676 222.356 81.7283C222.117 81.7805 221.885 81.858 221.66 81.9606C221.434 82.0632 221.22 82.1889 221.017 82.3378C220.814 82.4867 220.627 82.656 220.455 82.8457C220.282 83.0351 220.128 83.2412 219.992 83.4641C219.857 83.687 219.743 83.9223 219.649 84.17C219.556 84.4177 219.485 84.673 219.438 84.9359C219.39 85.1988 219.367 85.4643 219.367 85.7324C219.367 86.0005 219.39 86.266 219.438 86.5289C219.485 86.7918 219.556 87.0471 219.649 87.2948C219.743 87.5425 219.857 87.7777 219.992 88.0007C220.128 88.2236 220.282 88.4297 220.455 88.6192C220.627 88.8089 220.814 88.9781 221.017 89.127C221.22 89.2759 221.434 89.4016 221.66 89.5042C221.885 89.6069 222.117 89.6843 222.356 89.7365C222.596 89.7888 222.837 89.8149 223.081 89.8149ZM197.079 130.64C197.079 128.385 198.742 126.557 200.794 126.557H208.223C210.274 126.557 211.937 128.385 211.937 130.64C211.937 132.895 210.274 134.722 208.223 134.722H200.794C198.742 134.722 197.079 132.895 197.079 130.64ZM163.648 163.3C169.803 163.3 174.792 157.817 174.792 151.052V144.28C172.624 142.868 170.568 141.256 168.648 139.462C162.632 140.697 157.045 143.738 152.505 148.248V151.052C152.505 157.817 157.494 163.3 163.648 163.3ZM234.225 151.052C234.225 157.817 239.214 163.3 245.368 163.3C251.523 163.3 256.512 157.817 256.512 151.052V148.248C251.972 143.738 246.384 140.697 240.369 139.462C238.448 141.256 236.393 142.868 234.225 144.28V151.052ZM167.363 146.97H159.934V155.135H167.363V146.97ZM249.083 146.97H241.654V155.135H249.083V146.97ZM182.273 148.097C182.821 161.161 192.609 171.448 204.508 171.465C216.419 171.466 226.225 161.173 226.773 148.097C221.89 150.041 216.737 151.041 211.544 151.052H197.503C192.309 151.041 187.156 150.041 182.273 148.097Z" fill="white"/>
</svg>
