<svg width="428" height="319" viewBox="0 0 428 319" fill="none" xmlns="http://www.w3.org/2000/svg">
<path d="M24.0589 297.546C24.9051 299.027 25.3283 300.619 25.3283 302.324C25.3283 304.068 24.915 305.671 24.0884 307.132C23.2225 308.592 22.0712 309.759 20.6346 310.631C19.1979 311.504 17.653 311.94 15.9999 311.94C14.2681 311.94 12.7133 311.494 11.3357 310.601C9.91875 309.749 8.78714 308.582 7.9409 307.101C7.09466 305.62 6.67154 304.028 6.67154 302.324C6.67154 300.538 7.10451 298.936 7.97043 297.515C8.79699 296.055 9.92861 294.888 11.3652 294.016C12.8019 293.143 14.3468 292.707 15.9999 292.707C17.6924 292.707 19.2471 293.133 20.6641 293.985C22.0811 294.878 23.2127 296.065 24.0589 297.546ZM25.3283 315.713V318.635H31.9408L31.9998 301.837C31.9998 298.956 31.2717 296.278 29.8153 293.803C28.359 291.368 26.4008 289.431 23.9408 287.99C21.4808 286.55 18.8338 285.83 15.9999 285.83C13.1266 285.83 10.4698 286.56 8.02947 288.021C5.54977 289.522 3.59161 291.541 2.15496 294.077C0.718319 296.613 0 299.362 0 302.324C0 305.326 0.728168 308.065 2.18449 310.54C3.60145 313.096 5.53994 315.115 7.99995 316.596C10.46 318.077 13.1266 318.817 15.9999 318.817C19.3849 318.817 22.4944 317.783 25.3283 315.713Z" fill="#44D62C"/>
<path d="M34.9519 274.327V318.757H42.6862V291.307H47.9408L49.771 284.247H42.6862V274.327H34.9519Z" fill="#44D62C"/>
<path d="M52.7229 274.327V318.757H60.4572V291.307H65.7118L67.542 284.247H60.4572V274.327H52.7229Z" fill="#44D62C"/>
<path d="M76.28 288.812C73.5248 290.76 71.5567 293.316 70.3759 296.481C69.6675 298.428 69.3132 300.376 69.3132 302.324C69.3132 305.651 70.2579 308.755 72.1472 311.636C73.8396 314.232 75.8765 316.089 78.2578 317.205C80.6391 318.32 82.9712 318.878 85.2541 318.878C87.97 318.878 90.5284 318.209 92.9294 316.87C95.3303 315.531 97.2589 313.705 98.7153 311.392L92.2799 308.836C91.414 309.85 90.3611 310.631 89.1212 311.179C87.8814 311.727 86.5924 312.001 85.2541 312.001C84.0733 312.001 82.9712 311.798 81.9478 311.392C80.6883 310.905 79.5862 310.165 78.6416 309.171C77.6969 308.177 76.9885 307.01 76.5161 305.671L100.959 305.002V304.941L101.077 305.002C101.195 304.15 101.254 303.277 101.254 302.384C101.254 299.057 100.329 295.953 98.4791 293.072C96.7867 290.516 94.7399 288.68 92.3389 287.564C89.938 286.448 87.6157 285.891 85.3722 285.891C82.0659 285.891 79.0352 286.864 76.28 288.812ZM76.4571 299.341L76.5752 298.976C77.2837 297.069 78.4448 295.568 80.0586 294.472C81.6724 293.377 83.4436 292.829 85.3722 292.829C86.553 292.829 87.6551 293.032 88.6785 293.438C89.938 293.924 91.0303 294.645 91.9552 295.598C92.8802 296.552 93.5591 297.657 93.9921 298.915L76.4571 299.341Z" fill="#44D62C"/>
<path d="M125.874 300.437V318.878H132.486L132.605 300.437C132.605 297.596 131.916 295.04 130.538 292.768C129.121 290.618 127.291 288.944 125.047 287.747C122.804 286.55 120.383 285.951 117.785 285.951C115.266 285.951 112.865 286.54 110.583 287.716C108.26 288.934 106.42 290.648 105.062 292.859C103.704 295.071 103.025 297.596 103.025 300.437V318.878H109.638V300.437C109.638 298.083 110.425 296.227 112 294.868C113.574 293.508 115.503 292.829 117.785 292.829C120.029 292.829 121.938 293.508 123.512 294.868C125.087 296.227 125.874 298.083 125.874 300.437Z" fill="#44D62C"/>
<path d="M166.376 302.871L166.317 274.266L159.704 277.917V288.995C156.87 286.925 153.761 285.891 150.376 285.891C147.502 285.891 144.846 286.621 142.405 288.082C139.925 289.583 137.967 291.602 136.531 294.137C135.094 296.673 134.376 299.422 134.376 302.384C134.376 305.387 135.104 308.126 136.56 310.601C137.977 313.157 139.916 315.176 142.376 316.657C144.836 318.138 147.502 318.878 150.376 318.878C153.21 318.878 155.866 318.148 158.346 316.687C160.826 315.227 162.784 313.279 164.221 310.844C165.657 308.41 166.376 305.752 166.376 302.871ZM158.435 297.607C159.281 299.088 159.704 300.68 159.704 302.384C159.704 304.129 159.291 305.732 158.464 307.193C157.598 308.653 156.447 309.82 155.01 310.692C153.574 311.565 152.029 312.001 150.376 312.001C148.644 312.001 147.089 311.554 145.711 310.662C144.294 309.81 143.163 308.643 142.317 307.162C141.47 305.681 141.047 304.089 141.047 302.384C141.047 300.599 141.48 298.996 142.346 297.576C143.173 296.116 144.304 294.949 145.741 294.077C147.178 293.204 148.723 292.768 150.376 292.768C152.068 292.768 153.623 293.194 155.04 294.046C156.457 294.939 157.588 296.126 158.435 297.607Z" fill="#44D62C"/>
<path d="M192.206 297.546C193.052 299.027 193.475 300.619 193.475 302.324C193.475 304.068 193.062 305.671 192.235 307.132C191.369 308.592 190.218 309.759 188.781 310.631C187.345 311.504 185.8 311.94 184.147 311.94C182.415 311.94 180.86 311.494 179.482 310.601C178.065 309.749 176.934 308.582 176.088 307.101C175.241 305.62 174.818 304.028 174.818 302.324C174.818 300.538 175.251 298.936 176.117 297.515C176.944 296.055 178.075 294.888 179.512 294.016C180.949 293.143 182.494 292.707 184.147 292.707C185.839 292.707 187.394 293.133 188.811 293.985C190.228 294.878 191.359 296.065 192.206 297.546ZM193.475 315.713V318.635H200.088L200.147 301.837C200.147 298.956 199.418 296.278 197.962 293.803C196.506 291.368 194.548 289.431 192.088 287.99C189.628 286.55 186.981 285.83 184.147 285.83C181.273 285.83 178.617 286.56 176.176 288.021C173.697 289.522 171.738 291.541 170.302 294.077C168.865 296.613 168.147 299.362 168.147 302.324C168.147 305.326 168.875 308.065 170.331 310.54C171.748 313.096 173.687 315.115 176.147 316.596C178.607 318.077 181.273 318.817 184.147 318.817C187.532 318.817 190.641 317.783 193.475 315.713Z" fill="#44D62C"/>
<path d="M224.766 300.437V318.878H231.379L231.497 300.437C231.497 297.596 230.808 295.04 229.431 292.768C228.014 290.618 226.183 288.944 223.94 287.747C221.696 286.55 219.276 285.951 216.678 285.951C214.159 285.951 211.758 286.54 209.475 287.716C207.153 288.934 205.313 290.648 203.955 292.859C202.597 295.071 201.918 297.596 201.918 300.437V318.878H208.53V300.437C208.53 298.083 209.318 296.227 210.892 294.868C212.466 293.508 214.395 292.829 216.678 292.829C218.921 292.829 220.83 293.508 222.405 294.868C223.979 296.227 224.766 298.083 224.766 300.437Z" fill="#44D62C"/>
<path d="M235.423 294.137C233.987 296.673 233.268 299.422 233.268 302.384C233.268 305.387 233.996 308.126 235.453 310.601C236.87 313.157 238.808 315.176 241.268 316.657C243.728 318.138 246.395 318.878 249.268 318.878C251.827 318.878 254.188 318.31 256.353 317.174C258.557 316.038 260.407 314.476 261.903 312.488C263.398 310.5 264.402 308.268 264.914 305.793H258.006C257.337 307.619 256.205 309.11 254.611 310.266C253.017 311.423 251.236 312.001 249.268 312.001C247.536 312.001 245.982 311.554 244.604 310.662C243.187 309.81 242.055 308.643 241.209 307.162C240.363 305.681 239.94 304.089 239.94 302.384C239.94 300.599 240.373 298.996 241.239 297.576C242.065 296.116 243.197 294.949 244.633 294.077C246.07 293.204 247.615 292.768 249.268 292.768C251.236 292.768 253.007 293.336 254.582 294.472C256.156 295.608 257.278 297.089 257.947 298.915L264.914 298.976C264.402 296.542 263.398 294.31 261.903 292.281C260.368 290.293 258.498 288.731 256.294 287.595C254.09 286.459 251.748 285.891 249.268 285.891C246.395 285.891 243.738 286.621 241.298 288.082C238.818 289.583 236.86 291.602 235.423 294.137Z" fill="#44D62C"/>
<path d="M273.652 288.812C270.897 290.76 268.929 293.316 267.748 296.481C267.039 298.428 266.685 300.376 266.685 302.324C266.685 305.651 267.63 308.755 269.519 311.636C271.211 314.232 273.248 316.089 275.63 317.205C278.011 318.32 280.343 318.878 282.626 318.878C285.342 318.878 287.9 318.209 290.301 316.87C292.702 315.531 294.631 313.705 296.087 311.392L289.652 308.836C288.786 309.85 287.733 310.631 286.493 311.179C285.253 311.727 283.964 312.001 282.626 312.001C281.445 312.001 280.343 311.798 279.32 311.392C278.06 310.905 276.958 310.165 276.013 309.171C275.069 308.177 274.36 307.01 273.888 305.671L298.331 305.002V304.941L298.449 305.002C298.567 304.15 298.626 303.277 298.626 302.384C298.626 299.057 297.701 295.953 295.851 293.072C294.159 290.516 292.112 288.68 289.711 287.564C287.31 286.448 284.988 285.891 282.744 285.891C279.438 285.891 276.407 286.864 273.652 288.812ZM273.829 299.341L273.947 298.976C274.656 297.069 275.817 295.568 277.43 294.472C279.044 293.377 280.815 292.829 282.744 292.829C283.925 292.829 285.027 293.032 286.05 293.438C287.31 293.924 288.402 294.645 289.327 295.598C290.252 296.552 290.931 297.657 291.364 298.915L273.829 299.341Z" fill="#44D62C"/>
<path d="M311.733 274.022L311.615 318.878H318.227V300.437C318.227 298.084 319.014 296.227 320.589 294.868C322.163 293.509 324.092 292.829 326.375 292.829C328.618 292.829 330.527 293.509 332.102 294.868C333.676 296.227 334.463 298.083 334.463 300.437V318.878H341.076L341.194 300.437C341.194 297.597 340.505 295.04 339.128 292.768C337.711 290.618 335.88 288.944 333.637 287.747C331.393 286.55 328.973 285.951 326.375 285.951C323.383 285.951 320.668 286.722 318.227 288.264V277.065L311.733 274.022Z" fill="white"/>
<path d="M349.932 288.812C347.177 290.76 345.209 293.316 344.028 296.481C343.319 298.428 342.965 300.376 342.965 302.324C342.965 305.651 343.91 308.755 345.799 311.636C347.492 314.232 349.528 316.089 351.91 317.205C354.291 318.32 356.623 318.878 358.906 318.878C361.622 318.878 364.18 318.209 366.581 316.87C368.982 315.531 370.911 313.705 372.367 311.392L365.932 308.836C365.066 309.85 364.013 310.631 362.773 311.179C361.533 311.727 360.244 312.001 358.906 312.001C357.725 312.001 356.623 311.798 355.6 311.392C354.34 310.905 353.238 310.165 352.293 309.171C351.349 308.177 350.64 307.01 350.168 305.671L374.611 305.002V304.941L374.729 305.002C374.847 304.15 374.906 303.277 374.906 302.384C374.906 299.057 373.981 295.953 372.131 293.072C370.439 290.516 368.392 288.68 365.991 287.564C363.59 286.448 361.268 285.891 359.024 285.891C355.718 285.891 352.687 286.864 349.932 288.812ZM350.109 299.341L350.227 298.976C350.936 297.069 352.097 295.568 353.71 294.472C355.324 293.377 357.095 292.829 359.024 292.829C360.205 292.829 361.307 293.032 362.33 293.438C363.59 293.924 364.682 294.645 365.607 295.598C366.532 296.552 367.211 297.657 367.644 298.915L350.109 299.341Z" fill="white"/>
<path d="M394.212 293.133V285.647L392.677 285.525C389.843 285.525 387.206 286.235 384.766 287.656C382.246 289.116 380.269 291.074 378.832 293.529C377.395 295.984 376.677 298.651 376.677 301.532L376.736 319H383.644L383.526 302.628C383.526 300.843 383.959 299.24 384.825 297.82C385.651 296.359 386.783 295.192 388.219 294.32C389.656 293.448 391.201 293.011 392.854 293.011C393.051 293.011 393.503 293.052 394.212 293.133Z" fill="white"/>
<path d="M403.983 316.657C406.443 318.138 409.11 318.878 411.983 318.878C414.896 318.878 417.572 318.128 420.013 316.626C422.453 315.166 424.391 313.167 425.828 310.631C427.265 308.095 427.983 305.346 427.983 302.384C427.983 299.422 427.275 296.663 425.858 294.107C424.401 291.591 422.433 289.593 419.954 288.112C417.474 286.631 414.817 285.891 411.983 285.891C409.11 285.891 406.453 286.621 404.013 288.082C401.533 289.583 399.575 291.602 398.138 294.137C396.702 296.673 395.983 299.422 395.983 302.384C395.983 305.387 396.711 308.126 398.168 310.601C399.585 313.157 401.523 315.176 403.983 316.657ZM416.441 310.297C415.083 311.108 413.597 311.514 411.983 311.514C410.409 311.514 408.933 311.108 407.555 310.297C406.178 309.485 405.095 308.379 404.308 306.98C403.521 305.58 403.127 304.048 403.127 302.384C403.127 300.721 403.521 299.179 404.308 297.759C405.095 296.339 406.168 295.233 407.526 294.442C408.884 293.651 410.369 293.255 411.983 293.255C413.597 293.255 415.093 293.661 416.47 294.472C417.848 295.284 418.92 296.389 419.688 297.789C420.455 299.189 420.839 300.721 420.839 302.384C420.839 304.007 420.446 305.529 419.658 306.949C418.871 308.369 417.799 309.485 416.441 310.297Z" fill="white"/>
<path fill-rule="evenodd" clip-rule="evenodd" d="M268.411 99.7374C268.396 110.858 264.677 121.636 257.877 130.268C275.666 136.08 287.778 153.07 287.847 172.307V232.413H280.073V212.378H264.524V232.413H256.75V188.335H264.524V204.364H280.073V172.307C280.068 165.905 278.4 159.622 275.241 154.11C273.129 161.382 267.188 166.782 259.925 168.03C252.662 169.278 245.343 166.157 241.058 159.985C236.224 168.808 227.63 174.759 217.879 176.037V196.349H210.104V176.037C200.353 174.759 191.76 168.808 186.926 159.985C182.64 166.157 175.321 169.278 168.058 168.03C160.795 166.782 154.854 161.382 152.742 154.11C149.584 159.622 147.915 165.905 147.911 172.307V204.364H163.459V188.335H171.233V232.413H163.459V212.378H147.911V232.413H140.136V172.307C140.202 153.069 152.315 136.078 170.106 130.268C163.306 121.636 159.587 110.858 159.572 99.7374V96.1711C150.985 96.1711 144.023 88.9947 144.023 80.1426C144.023 71.2904 150.985 64.1141 159.572 64.1141V56.0998C159.572 25.1167 183.936 0 213.992 0C244.047 0 268.411 25.1167 268.411 56.0998V64.1141C276.998 64.1141 283.96 71.2904 283.96 80.1426C283.96 88.9947 276.998 96.1711 268.411 96.1711V99.7374ZM167.346 56.0998V99.7374C167.345 110.482 171.485 120.787 178.856 128.385C186.225 135.983 196.222 140.251 206.645 140.249H221.338C231.761 140.251 241.758 135.983 249.128 128.385C256.498 120.787 260.638 110.482 260.637 99.7374V56.0998C260.637 29.5429 239.753 8.01424 213.992 8.01424C188.23 8.01424 167.346 29.5429 167.346 56.0998ZM202.33 76.1354H186.782C184.635 76.1354 182.895 74.3414 182.895 72.1283C182.895 69.9152 184.635 68.1212 186.782 68.1212H202.33C204.477 68.1212 206.217 69.9152 206.217 72.1283C206.217 74.3414 204.477 76.1354 202.33 76.1354ZM210.104 100.178H213.992C218.285 100.178 221.766 96.5902 221.766 92.164V76.1354H241.201C243.348 76.1354 245.088 74.3415 245.088 72.1283C245.088 69.9152 243.348 68.1212 241.201 68.1212H221.766C217.472 68.1212 213.992 71.7092 213.992 76.1354V92.164H210.104C207.958 92.164 206.217 93.9579 206.217 96.1711C206.217 98.3842 207.958 100.178 210.104 100.178ZM159.572 72.1283C155.278 72.1283 151.798 75.7163 151.798 80.1426C151.798 84.5689 155.278 88.1568 159.572 88.1568V72.1283ZM268.411 88.1568C272.705 88.1568 276.185 84.5688 276.185 80.1426C276.185 75.7163 272.705 72.1283 268.411 72.1283V88.1568ZM194.556 88.1568C194.811 88.1568 195.064 88.1312 195.314 88.0799C195.565 88.0286 195.808 87.9526 196.044 87.8519C196.279 87.7511 196.503 87.6277 196.716 87.4816C196.928 87.3355 197.124 87.1693 197.305 86.9831C197.485 86.7972 197.646 86.5948 197.788 86.376C197.93 86.1573 198.05 85.9263 198.147 85.6832C198.245 85.4401 198.319 85.1895 198.369 84.9314C198.418 84.6734 198.443 84.4128 198.443 84.1497C198.443 83.8865 198.418 83.6259 198.369 83.3679C198.319 83.1098 198.245 82.8592 198.147 82.6161C198.05 82.373 197.93 82.1421 197.788 81.9233C197.646 81.7045 197.485 81.5021 197.305 81.3162C197.124 81.13 196.928 80.9638 196.716 80.8177C196.503 80.6716 196.279 80.5482 196.044 80.4474C195.808 80.3467 195.565 80.2707 195.314 80.2195C195.064 80.1682 194.811 80.1425 194.556 80.1425C194.301 80.1425 194.048 80.1682 193.798 80.2195C193.547 80.2707 193.304 80.3467 193.068 80.4474C192.833 80.5482 192.609 80.6716 192.396 80.8177C192.184 80.9638 191.988 81.13 191.807 81.3162C191.627 81.5021 191.466 81.7045 191.324 81.9233C191.182 82.1421 191.062 82.373 190.965 82.6161C190.867 82.8592 190.793 83.1098 190.743 83.3679C190.694 83.6259 190.669 83.8865 190.669 84.1497C190.669 84.4128 190.694 84.6734 190.743 84.9314C190.793 85.1895 190.867 85.4401 190.965 85.6832C191.062 85.9263 191.182 86.1572 191.324 86.376C191.466 86.5948 191.627 86.7972 191.807 86.9831C191.988 87.1693 192.184 87.3355 192.396 87.4816C192.609 87.6277 192.833 87.7511 193.068 87.8519C193.304 87.9526 193.547 88.0286 193.798 88.0799C194.048 88.1312 194.301 88.1568 194.556 88.1568ZM233.427 88.1568C233.682 88.1568 233.935 88.1312 234.186 88.0799C234.436 88.0286 234.679 87.9526 234.915 87.8519C235.151 87.7511 235.375 87.6277 235.587 87.4816C235.799 87.3355 235.995 87.1693 236.176 86.9831C236.356 86.7972 236.518 86.5948 236.659 86.376C236.801 86.1573 236.921 85.9263 237.019 85.6832C237.116 85.4401 237.19 85.1895 237.24 84.9314C237.289 84.6734 237.314 84.4128 237.314 84.1497C237.314 83.8865 237.289 83.6259 237.24 83.3679C237.19 83.1098 237.116 82.8592 237.019 82.6161C236.921 82.373 236.801 82.1421 236.659 81.9233C236.518 81.7045 236.356 81.5021 236.176 81.3162C235.995 81.13 235.799 80.9638 235.587 80.8177C235.375 80.6716 235.151 80.5482 234.915 80.4474C234.679 80.3467 234.436 80.2707 234.186 80.2195C233.935 80.1682 233.682 80.1425 233.427 80.1425C233.172 80.1425 232.919 80.1682 232.669 80.2195C232.418 80.2707 232.175 80.3467 231.94 80.4474C231.704 80.5482 231.48 80.6716 231.267 80.8177C231.055 80.9638 230.859 81.13 230.679 81.3162C230.498 81.5021 230.337 81.7045 230.195 81.9233C230.053 82.1421 229.934 82.373 229.836 82.6161C229.738 82.8592 229.664 83.1098 229.615 83.3679C229.565 83.6259 229.54 83.8865 229.54 84.1497C229.54 84.4128 229.565 84.6734 229.615 84.9314C229.664 85.1895 229.738 85.4401 229.836 85.6832C229.934 85.9263 230.053 86.1572 230.195 86.376C230.337 86.5948 230.498 86.7972 230.679 86.9831C230.859 87.1693 231.055 87.3355 231.267 87.4816C231.48 87.6277 231.704 87.7511 231.94 87.8519C232.175 87.9526 232.418 88.0286 232.669 88.0799C232.919 88.1312 233.172 88.1568 233.427 88.1568ZM206.217 128.228C206.217 126.015 207.958 124.221 210.104 124.221H217.879C220.026 124.221 221.766 126.015 221.766 128.228C221.766 130.441 220.026 132.235 217.879 132.235H210.104C207.958 132.235 206.217 130.441 206.217 128.228ZM171.233 160.285C177.674 160.285 182.895 154.903 182.895 148.264V141.616C180.626 140.23 178.475 138.648 176.465 136.888C170.17 138.1 164.323 141.084 159.572 145.511V148.264C159.572 154.903 164.793 160.285 171.233 160.285ZM245.089 148.264C245.089 154.903 250.309 160.285 256.75 160.285C263.19 160.285 268.411 154.903 268.411 148.264V145.511C263.66 141.084 257.813 138.1 251.518 136.888C249.508 138.648 247.357 140.23 245.089 141.616V148.264ZM175.12 144.257H167.346V152.271H175.12V144.257ZM260.637 144.257H252.863V152.271H260.637V144.257ZM190.723 145.363C191.296 158.185 201.54 168.283 213.992 168.299C226.456 168.3 236.718 158.198 237.291 145.363C232.181 147.271 226.789 148.253 221.354 148.264H206.66C201.226 148.253 195.833 147.271 190.723 145.363Z" fill="#44D62C"/>
</svg>
