<svg width="472" height="411" viewBox="0 0 472 411" fill="none" xmlns="http://www.w3.org/2000/svg">
<g clip-path="url(#clip0_5_11)">
<path d="M48.7358 403.629C48.7358 401.912 47.4796 400.487 45.1051 399.874C44.8428 399.813 43.559 399.46 43.3105 399.384C41.6401 398.924 41.1155 398.709 41.1155 398.234C41.1155 397.698 41.8196 397.208 43.4071 397.223C44.6358 397.223 46.0024 397.959 46.6651 398.817L48.5287 396.779C47.3415 395.43 45.5883 394.618 43.4485 394.618C40.2182 394.618 38.3821 396.227 38.3821 398.311C38.3821 400.502 40.301 401.33 42.2889 401.866C42.5374 401.943 44.1111 402.357 44.3596 402.418C45.7953 402.801 46.0024 403.384 46.0024 403.629C46.0024 404.257 45.4502 404.717 43.8212 404.717C42.5374 404.717 40.9222 404.089 40.0111 403.108L38.175 405.161C39.5555 406.571 41.4744 407.337 43.5866 407.337C47.1068 407.337 48.7358 405.59 48.7358 403.629Z" fill="white"/>
<path d="M66.2524 394.771H63.5605V401.437C63.5605 403.644 62.815 404.702 60.8271 404.702C58.7978 404.702 58.0799 403.644 58.0799 401.437V394.771H55.3879V401.453C55.3879 405.177 57.155 407.337 60.8271 407.337C64.4992 407.337 66.2524 405.146 66.2524 401.453V394.771Z" fill="white"/>
<path d="M77.2191 401.897L77.509 401.621L78.3511 399.69L78.7652 398.434L79.1794 399.69L80.0353 401.621L80.3114 401.897H77.2191ZM79.911 394.771H77.6332L72.0698 407.184H75.0379L76.2113 404.502L76.0456 404.226H81.471L81.3053 404.502L82.5063 407.184H85.4468L79.911 394.771Z" fill="white"/>
<path d="M107.248 398.863C107.248 399.721 106.82 400.349 105.591 400.349H102.25L102.499 400.073V397.667L102.25 397.392H105.605C106.833 397.392 107.248 397.974 107.248 398.863ZM109.981 398.863C109.981 396.457 108.324 394.771 105.605 394.771H99.8066V407.184H102.499V403.246L102.25 402.97H105.591C108.338 402.97 109.981 401.192 109.981 398.863Z" fill="white"/>
<path d="M123.942 398.832C123.942 399.476 123.459 400.242 122.078 400.242H119.082L119.331 399.966V397.667L119.082 397.392H122.23C123.417 397.392 123.942 397.989 123.942 398.832ZM125.943 402.97C125.626 402.311 125.212 401.897 124.839 401.698V401.667C125.805 401.177 126.675 399.935 126.675 398.725C126.675 395.997 124.494 394.771 122.23 394.771H116.639V407.184H119.331V402.908L119.096 402.648H121.153C122.409 402.648 122.975 403.046 123.39 403.889L124.977 407.184H127.987L125.943 402.97Z" fill="white"/>
<path d="M143.582 404.564H136.432L136.68 404.288V402.571L136.432 402.295H142.92V399.66H136.432L136.68 399.384V397.667L136.432 397.392H143.582V394.771H133.988V407.184H143.582V404.564Z" fill="white"/>
<path d="M160.484 403.629C160.484 401.912 159.228 400.487 156.853 399.874C156.591 399.813 155.307 399.46 155.059 399.384C153.388 398.924 152.864 398.709 152.864 398.234C152.864 397.698 153.568 397.208 155.155 397.223C156.384 397.223 157.751 397.959 158.413 398.817L160.277 396.779C159.09 395.43 157.337 394.618 155.197 394.618C151.966 394.618 150.13 396.227 150.13 398.311C150.13 400.502 152.049 401.33 154.037 401.866C154.286 401.943 155.859 402.357 156.108 402.418C157.544 402.801 157.751 403.384 157.751 403.629C157.751 404.257 157.199 404.717 155.57 404.717C154.286 404.717 152.671 404.089 151.759 403.108L149.923 405.161C151.304 406.571 153.223 407.337 155.335 407.337C158.855 407.337 160.484 405.59 160.484 403.629Z" fill="white"/>
<path d="M176.729 404.564H169.578L169.827 404.288V402.571L169.578 402.295H176.067V399.66H169.578L169.827 399.384V397.667L169.578 397.392H176.729V394.771H167.135V407.184H176.729V404.564Z" fill="white"/>
<path d="M194.251 394.771H191.559V402.372H191.532L190.662 400.932L185.913 394.771H183.691V407.184H186.383V399.506H186.41L187.363 401.07L192.029 407.184H194.251V394.771Z" fill="white"/>
<path d="M210.361 403.062C209.712 404.088 208.497 404.717 207.241 404.717C204.756 404.717 203.803 403.184 203.803 401.039C203.803 398.847 204.825 397.269 207.254 397.269C208.538 397.269 209.656 397.882 210.305 398.97L212.1 396.993C210.94 395.43 209.353 394.633 207.241 394.633C203.279 394.633 201.07 397.346 201.07 401.039C201.07 404.334 202.754 406.755 205.943 407.261L206.633 408.027C206.744 408.15 206.826 408.303 206.564 408.594L205.487 409.789L206.578 411L208 409.437C208.524 408.839 208.511 408.119 208 407.598L207.738 407.337C209.505 407.184 211.051 406.311 212.114 404.962L210.361 403.062Z" fill="white"/>
<path d="M222.704 401.897L222.994 401.621L223.836 399.69L224.25 398.434L224.665 399.69L225.52 401.621L225.797 401.897H222.704ZM225.396 394.771H223.118L217.555 407.184H220.523L221.697 404.502L221.531 404.226H226.956L226.791 404.502L227.992 407.184H230.932L225.396 394.771Z" fill="white"/>
<path d="M254.85 404.564H247.699L247.947 404.288V402.571L247.699 402.295H254.187V399.66H247.699L247.947 399.384V397.667L247.699 397.392H254.85V394.771H245.255V407.184H254.85V404.564Z" fill="white"/>
<path d="M274.278 394.771H272.041L268.507 401.376L268.107 402.464H268.079L267.651 401.376L264.131 394.771H261.922V407.199H264.614V400.61H264.642L265.18 401.912L268.079 407.353H268.121L271.02 401.912L271.558 400.61H271.586V407.199H274.278L274.278 394.771Z" fill="white"/>
<path d="M299.701 403.629C299.701 401.912 298.445 400.487 296.07 399.874C295.808 399.813 294.524 399.46 294.276 399.384C292.605 398.924 292.081 398.709 292.081 398.234C292.081 397.698 292.785 397.208 294.372 397.223C295.601 397.223 296.968 397.959 297.63 398.817L299.494 396.779C298.307 395.43 296.554 394.618 294.414 394.618C291.183 394.618 289.347 396.227 289.347 398.311C289.347 400.502 291.266 401.33 293.254 401.866C293.503 401.943 295.076 402.357 295.325 402.418C296.761 402.801 296.968 403.384 296.968 403.629C296.968 404.257 296.415 404.717 294.786 404.717C293.503 404.717 291.887 404.089 290.976 403.108L289.14 405.161C290.521 406.571 292.44 407.337 294.552 407.337C298.072 407.337 299.701 405.59 299.701 403.629Z" fill="white"/>
<path d="M317.218 394.771H314.526V401.437C314.526 403.644 313.78 404.702 311.792 404.702C309.763 404.702 309.045 403.644 309.045 401.437V394.771H306.353V401.453C306.353 405.177 308.12 407.337 311.792 407.337C315.464 407.337 317.218 405.146 317.218 401.453V394.771Z" fill="white"/>
<path d="M328.185 401.897L328.475 401.621L329.317 399.69L329.731 398.434L330.145 399.69L331.001 401.621L331.277 401.897H328.185ZM330.877 394.771H328.599L323.035 407.184H326.003L327.177 404.502L327.011 404.226H332.437L332.271 404.502L333.472 407.184H336.412L330.877 394.771Z" fill="white"/>
<path d="M352.695 403.629C352.695 401.912 351.438 400.487 349.064 399.874C348.802 399.813 347.518 399.46 347.269 399.384C345.599 398.924 345.074 398.709 345.074 398.234C345.074 397.698 345.778 397.208 347.366 397.223C348.595 397.223 349.961 397.959 350.624 398.817L352.488 396.779C351.3 395.43 349.547 394.618 347.407 394.618C344.177 394.618 342.341 396.227 342.341 398.311C342.341 400.502 344.26 401.33 346.248 401.866C346.496 401.943 348.07 402.357 348.319 402.418C349.754 402.801 349.961 403.384 349.961 403.629C349.961 404.257 349.409 404.717 347.78 404.717C346.496 404.717 344.881 404.089 343.97 403.108L342.134 405.161C343.514 406.571 345.433 407.337 347.545 407.337C351.066 407.337 352.695 405.59 352.695 403.629Z" fill="white"/>
<path d="M379.913 394.771H377.677L374.143 401.376L373.742 402.464H373.715L373.287 401.376L369.767 394.771H367.558V407.199H370.25V400.61H370.277L370.816 401.912L373.715 407.353H373.756L376.655 401.912L377.194 400.61H377.221V407.199H379.913V394.771Z" fill="white"/>
<path d="M391.515 401.897L391.805 401.621L392.647 399.69L393.062 398.434L393.476 399.69L394.332 401.621L394.608 401.897H391.515ZM394.207 394.771H391.93L386.366 407.184H389.334L390.508 404.502L390.342 404.226H395.767L395.602 404.502L396.803 407.184H399.743L394.207 394.771ZM395.629 390.649C395.408 391.767 394.898 391.813 394.511 391.813C394.387 391.813 394.18 391.752 393.987 391.675C393.766 391.568 393.586 391.461 393.379 391.323C392.965 391.032 392.302 390.741 391.75 390.741C390.687 390.741 389.873 391.629 389.597 392.717L390.646 393.882C390.894 392.84 391.419 392.702 391.709 392.702C391.847 392.702 392.068 392.779 392.275 392.855C392.496 392.947 392.661 393.07 392.868 393.193C393.31 393.499 393.945 393.775 394.47 393.775C395.464 393.775 396.32 393.085 396.678 391.829L395.629 390.649Z" fill="white"/>
<path d="M414.282 401.039C414.282 403.23 413.371 404.701 411.093 404.701C408.829 404.701 407.891 403.23 407.891 401.039C407.891 398.801 408.829 397.254 411.093 397.254C413.357 397.254 414.282 398.847 414.282 401.039ZM417.016 401.039C417.016 397.376 414.986 394.618 411.08 394.618C407.2 394.618 405.157 397.391 405.157 401.039C405.157 404.732 407.201 407.337 411.08 407.337C414.904 407.337 417.016 404.732 417.016 401.039Z" fill="white"/>
<path d="M433.825 403.629C433.825 401.912 432.568 400.487 430.194 399.874C429.932 399.813 428.648 399.46 428.399 399.384C426.729 398.924 426.204 398.709 426.204 398.234C426.204 397.698 426.908 397.208 428.496 397.223C429.725 397.223 431.091 397.959 431.754 398.817L433.618 396.779C432.43 395.43 430.677 394.618 428.537 394.618C425.307 394.618 423.471 396.227 423.471 398.311C423.471 400.502 425.39 401.33 427.378 401.866C427.626 401.943 429.2 402.357 429.449 402.418C430.884 402.801 431.091 403.384 431.091 403.629C431.091 404.257 430.539 404.717 428.91 404.717C427.626 404.717 426.011 404.089 425.1 403.108L423.264 405.161C424.644 406.571 426.563 407.337 428.675 407.337C432.196 407.337 433.825 405.59 433.825 403.629Z" fill="white"/>
<path d="M26.5333 353.367C27.4666 355.125 27.9332 357.017 27.9332 359.041C27.9332 361.113 27.4774 363.016 26.5658 364.751C25.6109 366.486 24.3412 367.871 22.7568 368.907C21.1724 369.943 19.4686 370.461 17.6454 370.461C15.7355 370.461 14.0209 369.931 12.5016 368.871C10.9389 367.859 9.69088 366.474 8.7576 364.715C7.82433 362.956 7.35769 361.065 7.35769 359.041C7.35769 356.92 7.83519 355.017 8.79017 353.33C9.70174 351.596 10.9497 350.21 12.5341 349.174C14.1185 348.138 15.8223 347.62 17.6454 347.62C19.512 347.62 21.2266 348.126 22.7893 349.138C24.352 350.198 25.6 351.608 26.5333 353.367ZM27.9332 374.943V378.412H35.2258L35.2909 358.462C35.2909 355.041 34.4879 351.861 32.8818 348.921C31.2757 346.03 29.1161 343.729 26.4031 342.018C23.69 340.308 20.7709 339.452 17.6455 339.452C14.4767 339.452 11.5466 340.32 8.85528 342.055C6.12055 343.838 3.96099 346.235 2.37659 349.247C0.792196 352.258 0 355.523 0 359.041C0 362.607 0.803058 365.859 2.40916 368.799C3.97185 371.835 6.1097 374.232 8.82272 375.991C11.5357 377.749 14.4767 378.629 17.6455 378.629C21.3786 378.629 24.8078 377.4 27.9332 374.943Z" fill="white"/>
<path d="M38.5466 325.791V378.557H47.0764V345.958H52.8714L54.8899 337.573H47.0764V325.791H38.5466Z" fill="white"/>
<path d="M58.1455 325.791V378.557H66.6753V345.958H72.4703L74.4888 337.573H66.6753V325.791H58.1455Z" fill="white"/>
<path d="M84.1252 342.994C81.0866 345.307 78.9161 348.343 77.6139 352.102C76.8325 354.415 76.4419 356.728 76.4419 359.041C76.4419 362.992 77.4837 366.678 79.5673 370.1C81.4338 373.184 83.6802 375.388 86.3064 376.713C88.9326 378.039 91.5046 378.701 94.0223 378.701C97.0174 378.701 99.839 377.906 102.487 376.316C105.135 374.726 107.262 372.557 108.868 369.811L101.771 366.775C100.816 367.979 99.6545 368.907 98.2871 369.558C96.9197 370.208 95.4981 370.533 94.0223 370.533C92.72 370.533 91.5045 370.292 90.3759 369.811C88.9869 369.232 87.7715 368.353 86.7297 367.172C85.6878 365.992 84.9065 364.606 84.3856 363.016L111.342 362.221V362.149L111.472 362.221C111.603 361.209 111.668 360.173 111.668 359.113C111.668 355.162 110.648 351.475 108.607 348.054C106.741 345.018 104.484 342.838 101.836 341.512C99.1878 340.187 96.6267 339.525 94.1525 339.525C90.5062 339.525 87.1637 340.681 84.1252 342.994ZM84.3205 355.499L84.4507 355.065C85.2321 352.8 86.5126 351.017 88.2924 349.716C90.0721 348.415 92.0255 347.765 94.1525 347.765C95.4547 347.765 96.6702 348.006 97.7988 348.488C99.1879 349.066 100.392 349.921 101.413 351.054C102.433 352.186 103.181 353.499 103.659 354.993L84.3205 355.499Z" fill="white"/>
<path d="M138.82 356.8V378.701H146.112L146.243 356.8C146.243 353.427 145.483 350.391 143.964 347.693C142.401 345.139 140.383 343.151 137.908 341.729C135.434 340.308 132.764 339.597 129.899 339.597C127.121 339.597 124.473 340.296 121.956 341.693C119.395 343.139 117.365 345.175 115.868 347.801C114.37 350.427 113.621 353.427 113.621 356.8V378.701H120.914V356.8C120.914 354.005 121.782 351.8 123.518 350.186C125.255 348.572 127.382 347.765 129.899 347.765C132.374 347.765 134.479 348.572 136.215 350.186C137.952 351.8 138.82 354.005 138.82 356.8Z" fill="white"/>
<path d="M183.487 359.691L183.422 325.719L176.129 330.056V343.211C173.004 340.754 169.575 339.525 165.841 339.525C162.673 339.525 159.743 340.392 157.051 342.127C154.317 343.91 152.157 346.307 150.573 349.319C148.988 352.331 148.196 355.595 148.196 359.113C148.196 362.679 148.999 365.932 150.605 368.871C152.168 371.907 154.306 374.304 157.019 376.063C159.732 377.822 162.673 378.701 165.841 378.701C168.967 378.701 171.897 377.834 174.632 376.099C177.366 374.364 179.526 372.051 181.11 369.16C182.695 366.269 183.487 363.113 183.487 359.691ZM174.729 353.439C175.663 355.198 176.129 357.089 176.129 359.113C176.129 361.185 175.673 363.088 174.762 364.823C173.807 366.558 172.537 367.943 170.953 368.979C169.368 370.015 167.665 370.533 165.841 370.533C163.932 370.533 162.217 370.003 160.698 368.943C159.135 367.931 157.887 366.546 156.954 364.787C156.02 363.028 155.554 361.137 155.554 359.113C155.554 356.993 156.031 355.089 156.986 353.403C157.898 351.668 159.146 350.283 160.73 349.247C162.315 348.211 164.018 347.693 165.841 347.693C167.708 347.693 169.423 348.199 170.985 349.21C172.548 350.271 173.796 351.68 174.729 353.439Z" fill="white"/>
<path d="M211.973 353.367C212.907 355.125 213.373 357.017 213.373 359.041C213.373 361.113 212.917 363.016 212.006 364.751C211.051 366.486 209.781 367.871 208.197 368.907C206.612 369.943 204.909 370.461 203.085 370.461C201.175 370.461 199.461 369.931 197.942 368.871C196.379 367.859 195.131 366.474 194.198 364.715C193.264 362.956 192.798 361.065 192.798 359.041C192.798 356.92 193.275 355.017 194.23 353.33C195.142 351.596 196.39 350.21 197.974 349.174C199.558 348.138 201.262 347.62 203.085 347.62C204.952 347.62 206.667 348.126 208.229 349.138C209.792 350.198 211.04 351.608 211.973 353.367ZM213.373 374.943V378.412H220.666L220.731 358.462C220.731 355.041 219.928 351.861 218.322 348.921C216.716 346.03 214.556 343.729 211.843 342.018C209.13 340.308 206.211 339.452 203.085 339.452C199.917 339.452 196.987 340.32 194.295 342.055C191.561 343.838 189.401 346.235 187.817 349.247C186.232 352.258 185.44 355.523 185.44 359.041C185.44 362.607 186.243 365.859 187.849 368.799C189.412 371.835 191.55 374.232 194.263 375.991C196.976 377.749 199.917 378.629 203.085 378.629C206.819 378.629 210.248 377.4 213.373 374.943Z" fill="white"/>
<path d="M247.883 356.8V378.701H255.175L255.306 356.8C255.306 353.427 254.546 350.391 253.027 347.693C251.464 345.139 249.446 343.151 246.971 341.729C244.497 340.308 241.827 339.597 238.962 339.597C236.184 339.597 233.536 340.296 231.019 341.693C228.458 343.139 226.428 345.175 224.931 347.801C223.433 350.427 222.684 353.427 222.684 356.8V378.701H229.977V356.8C229.977 354.005 230.845 351.8 232.581 350.186C234.318 348.572 236.445 347.765 238.962 347.765C241.437 347.765 243.542 348.572 245.278 350.186C247.015 351.8 247.883 354.005 247.883 356.8Z" fill="white"/>
<path d="M259.636 349.319C258.051 352.331 257.259 355.595 257.259 359.113C257.259 362.679 258.062 365.932 259.668 368.871C261.231 371.907 263.369 374.304 266.082 376.063C268.795 377.822 271.736 378.701 274.905 378.701C277.726 378.701 280.331 378.027 282.718 376.677C285.149 375.328 287.189 373.473 288.839 371.112C290.488 368.751 291.595 366.1 292.16 363.161H284.541C283.803 365.329 282.555 367.1 280.797 368.473C279.039 369.847 277.075 370.533 274.905 370.533C272.995 370.533 271.28 370.003 269.761 368.943C268.198 367.931 266.95 366.546 266.017 364.787C265.084 363.028 264.617 361.137 264.617 359.113C264.617 356.993 265.094 355.089 266.049 353.403C266.961 351.668 268.209 350.283 269.793 349.247C271.378 348.211 273.082 347.693 274.905 347.693C277.075 347.693 279.029 348.367 280.765 349.716C282.501 351.066 283.738 352.825 284.476 354.993L292.16 355.065C291.595 352.174 290.488 349.524 288.839 347.114C287.146 344.753 285.084 342.898 282.653 341.549C280.222 340.199 277.639 339.525 274.905 339.525C271.736 339.525 268.806 340.392 266.115 342.127C263.38 343.91 261.22 346.307 259.636 349.319Z" fill="white"/>
<path d="M301.796 342.994C298.757 345.307 296.587 348.343 295.285 352.102C294.503 354.415 294.113 356.728 294.113 359.041C294.113 362.992 295.155 366.678 297.238 370.1C299.105 373.184 301.351 375.388 303.977 376.713C306.604 378.039 309.175 378.701 311.693 378.701C314.688 378.701 317.51 377.906 320.158 376.316C322.806 374.726 324.933 372.557 326.539 369.811L319.442 366.775C318.487 367.979 317.325 368.907 315.958 369.558C314.591 370.208 313.169 370.533 311.693 370.533C310.391 370.533 309.175 370.292 308.047 369.811C306.658 369.232 305.442 368.353 304.401 367.172C303.359 365.992 302.577 364.606 302.057 363.016L329.013 362.221V362.149L329.143 362.221C329.274 361.209 329.339 360.173 329.339 359.113C329.339 355.162 328.319 351.475 326.278 348.054C324.412 345.018 322.155 342.838 319.507 341.512C316.859 340.187 314.298 339.525 311.823 339.525C308.177 339.525 304.835 340.681 301.796 342.994ZM301.991 355.499L302.122 355.065C302.903 352.8 304.184 351.017 305.963 349.716C307.743 348.415 309.696 347.765 311.823 347.765C313.126 347.765 314.341 348.006 315.47 348.488C316.859 349.066 318.063 349.921 319.083 351.054C320.104 352.186 320.852 353.499 321.33 354.993L301.991 355.499Z" fill="white"/>
<path d="M343.794 325.43L343.663 378.701H350.956V356.8C350.956 354.005 351.824 351.801 353.56 350.186C355.297 348.572 357.424 347.765 359.941 347.765C362.416 347.765 364.521 348.572 366.257 350.186C367.994 351.801 368.862 354.005 368.862 356.8V378.701H376.154L376.285 356.8C376.285 353.427 375.525 350.391 374.006 347.693C372.443 345.139 370.425 343.151 367.95 341.729C365.476 340.308 362.806 339.597 359.941 339.597C356.642 339.597 353.647 340.513 350.956 342.344V329.044L343.794 325.43Z" fill="#44D62C"/>
<path d="M385.921 342.994C382.883 345.307 380.712 348.343 379.41 352.102C378.629 354.415 378.238 356.728 378.238 359.041C378.238 362.992 379.28 366.678 381.363 370.1C383.23 373.184 385.476 375.388 388.103 376.713C390.729 378.039 393.301 378.701 395.818 378.701C398.814 378.701 401.635 377.906 404.283 376.316C406.931 374.726 409.058 372.557 410.664 369.811L403.567 366.775C402.612 367.979 401.451 368.907 400.083 369.558C398.716 370.208 397.294 370.533 395.818 370.533C394.516 370.533 393.301 370.292 392.172 369.811C390.783 369.232 389.568 368.353 388.526 367.172C387.484 365.992 386.703 364.606 386.182 363.016L413.138 362.221V362.149L413.269 362.221C413.399 361.209 413.464 360.173 413.464 359.113C413.464 355.162 412.444 351.475 410.404 348.054C408.537 345.018 406.28 342.838 403.632 341.512C400.984 340.187 398.423 339.525 395.949 339.525C392.302 339.525 388.96 340.681 385.921 342.994ZM386.117 355.499L386.247 355.065C387.028 352.8 388.309 351.017 390.089 349.716C391.868 348.415 393.822 347.765 395.949 347.765C397.251 347.765 398.466 348.006 399.595 348.488C400.984 349.066 402.189 349.921 403.209 351.054C404.229 352.186 404.978 353.499 405.455 354.993L386.117 355.499Z" fill="#44D62C"/>
<path d="M434.756 348.126V339.236L433.063 339.091C429.937 339.091 427.029 339.934 424.338 341.621C421.559 343.356 419.378 345.681 417.794 348.596C416.209 351.511 415.417 354.68 415.417 358.101L415.482 378.846H423.1L422.97 359.402C422.97 357.282 423.448 355.378 424.403 353.692C425.314 351.957 426.562 350.572 428.147 349.536C429.731 348.5 431.435 347.982 433.258 347.982C433.475 347.982 433.974 348.03 434.756 348.126Z" fill="#44D62C"/>
<path d="M445.532 376.063C448.245 377.822 451.186 378.701 454.355 378.701C457.567 378.701 460.519 377.81 463.21 376.027C465.901 374.292 468.039 371.919 469.623 368.907C471.208 365.895 472 362.631 472 359.113C472 355.595 471.219 352.319 469.656 349.283C468.05 346.295 465.879 343.922 463.145 342.163C460.41 340.404 457.48 339.525 454.355 339.525C451.186 339.525 448.256 340.392 445.564 342.127C442.83 343.91 440.67 346.307 439.086 349.319C437.501 352.331 436.709 355.595 436.709 359.113C436.709 362.679 437.512 365.932 439.118 368.871C440.681 371.907 442.819 374.304 445.532 376.063ZM459.271 368.51C457.773 369.473 456.134 369.955 454.355 369.955C452.618 369.955 450.99 369.473 449.471 368.51C447.952 367.546 446.758 366.233 445.89 364.57C445.022 362.908 444.588 361.089 444.588 359.113C444.588 357.137 445.022 355.306 445.89 353.62C446.758 351.933 447.941 350.62 449.439 349.68C450.936 348.741 452.575 348.271 454.355 348.271C456.134 348.271 457.784 348.753 459.303 349.716C460.822 350.68 462.005 351.993 462.852 353.656C463.698 355.318 464.121 357.137 464.121 359.113C464.121 361.041 463.687 362.848 462.819 364.534C461.951 366.221 460.768 367.546 459.271 368.51Z" fill="#44D62C"/>
<path fill-rule="evenodd" clip-rule="evenodd" d="M296.017 118.449C296 131.655 291.899 144.455 284.399 154.707C304.018 161.609 317.375 181.786 317.451 204.632V276.015H308.877V252.221H291.73V276.015H283.156V223.668H291.73V242.703H308.877V204.632C308.872 197.03 307.032 189.567 303.549 183.022C301.22 191.658 294.668 198.071 286.658 199.553C278.648 201.036 270.576 197.329 265.85 189.998C260.519 200.477 251.042 207.545 240.287 209.062V233.185H231.713V209.062C220.959 207.545 211.482 200.477 206.15 189.998C201.424 197.329 193.352 201.036 185.342 199.553C177.332 198.071 170.78 191.658 168.451 183.022C164.968 189.567 163.128 197.03 163.123 204.632V242.703H180.27V223.668H188.844V276.015H180.27V252.221H163.123V276.015H154.549V204.632C154.622 181.785 167.981 161.606 187.601 154.707C180.102 144.455 176 131.655 175.984 118.449V114.213C166.513 114.213 158.836 105.691 158.836 95.1777C158.836 84.6648 166.513 76.1421 175.984 76.1421V66.6244C175.984 29.8287 202.854 0 236 0C269.146 0 296.017 29.8287 296.017 66.6244V76.1421C305.487 76.1421 313.164 84.6648 313.164 95.1777C313.164 105.691 305.487 114.213 296.017 114.213V118.449ZM184.557 66.6243V118.449C184.556 131.209 189.122 143.447 197.25 152.47C205.378 161.494 216.403 166.562 227.898 166.561H244.102C255.597 166.562 266.622 161.494 274.75 152.47C282.878 143.447 287.444 131.209 287.443 118.449V66.6243C287.443 35.0853 264.411 9.51775 236 9.51775C207.589 9.51775 184.557 35.0853 184.557 66.6243ZM223.139 90.4188H205.992C203.624 90.4188 201.705 88.2882 201.705 85.6599C201.705 83.0316 203.624 80.901 205.992 80.901H223.139C225.507 80.901 227.426 83.0316 227.426 85.6599C227.426 88.2882 225.507 90.4188 223.139 90.4188ZM231.713 118.972H236C240.735 118.972 244.574 114.711 244.574 109.454V90.4188H266.008C268.376 90.4188 270.295 88.2882 270.295 85.6599C270.295 83.0316 268.376 80.901 266.008 80.901H244.574C239.839 80.901 236 85.1621 236 90.4188V109.454H231.713C229.346 109.454 227.426 111.585 227.426 114.213C227.426 116.842 229.346 118.972 231.713 118.972ZM175.984 85.6599C171.248 85.6599 167.41 89.921 167.41 95.1777C167.41 100.434 171.248 104.695 175.984 104.695V85.6599ZM296.017 104.695C300.752 104.695 304.59 100.434 304.59 95.1776C304.59 89.921 300.752 85.6599 296.017 85.6599V104.695ZM214.566 104.695C214.847 104.695 215.126 104.665 215.402 104.604C215.678 104.543 215.946 104.453 216.206 104.333C216.466 104.214 216.713 104.067 216.947 103.894C217.182 103.72 217.398 103.523 217.597 103.302C217.796 103.081 217.974 102.84 218.13 102.581C218.287 102.321 218.419 102.046 218.526 101.758C218.634 101.469 218.715 101.171 218.77 100.865C218.825 100.558 218.853 100.249 218.853 99.9365C218.853 99.624 218.825 99.3145 218.77 99.008C218.715 98.7016 218.634 98.404 218.526 98.1152C218.419 97.8265 218.287 97.5523 218.13 97.2924C217.974 97.0326 217.796 96.7923 217.597 96.5715C217.398 96.3503 217.182 96.153 216.947 95.9795C216.713 95.8059 216.466 95.6594 216.206 95.5397C215.946 95.4201 215.678 95.3299 215.402 95.269C215.126 95.2081 214.847 95.1776 214.566 95.1776C214.284 95.1776 214.005 95.2081 213.729 95.269C213.453 95.3299 213.185 95.4201 212.925 95.5397C212.665 95.6594 212.418 95.8059 212.184 95.9795C211.95 96.153 211.733 96.3503 211.534 96.5715C211.335 96.7923 211.157 97.0326 211.001 97.2924C210.845 97.5523 210.713 97.8265 210.605 98.1152C210.497 98.404 210.416 98.7015 210.361 99.008C210.306 99.3145 210.279 99.624 210.279 99.9365C210.279 100.249 210.306 100.558 210.361 100.865C210.416 101.171 210.497 101.469 210.605 101.758C210.713 102.046 210.845 102.321 211.001 102.581C211.157 102.84 211.335 103.081 211.534 103.302C211.733 103.523 211.95 103.72 212.184 103.894C212.418 104.067 212.665 104.214 212.925 104.333C213.185 104.453 213.453 104.543 213.729 104.604C214.005 104.665 214.284 104.695 214.566 104.695ZM257.435 104.695C257.716 104.695 257.995 104.665 258.271 104.604C258.547 104.543 258.815 104.453 259.075 104.333C259.335 104.214 259.582 104.067 259.816 103.894C260.05 103.72 260.267 103.523 260.466 103.302C260.665 103.081 260.843 102.84 260.999 102.581C261.155 102.321 261.288 102.046 261.395 101.758C261.503 101.469 261.584 101.171 261.639 100.865C261.694 100.558 261.722 100.249 261.722 99.9365C261.722 99.624 261.694 99.3145 261.639 99.008C261.584 98.7016 261.503 98.404 261.395 98.1152C261.288 97.8265 261.155 97.5523 260.999 97.2924C260.843 97.0326 260.665 96.7923 260.466 96.5715C260.267 96.3503 260.05 96.153 259.816 95.9795C259.582 95.8059 259.335 95.6594 259.075 95.5397C258.815 95.4201 258.547 95.3299 258.271 95.269C257.995 95.2081 257.716 95.1776 257.435 95.1776C257.153 95.1776 256.874 95.2081 256.598 95.269C256.322 95.3299 256.054 95.4201 255.794 95.5397C255.534 95.6594 255.287 95.8059 255.053 95.9795C254.819 96.153 254.602 96.3503 254.403 96.5715C254.204 96.7923 254.026 97.0326 253.87 97.2924C253.714 97.5523 253.582 97.8265 253.474 98.1152C253.366 98.404 253.285 98.7015 253.23 99.008C253.175 99.3145 253.148 99.624 253.148 99.9365C253.148 100.249 253.175 100.558 253.23 100.865C253.285 101.171 253.366 101.469 253.474 101.758C253.582 102.046 253.714 102.321 253.87 102.581C254.026 102.84 254.204 103.081 254.403 103.302C254.602 103.523 254.819 103.72 255.053 103.894C255.287 104.067 255.534 104.214 255.794 104.333C256.054 104.453 256.322 104.543 256.598 104.604C256.874 104.665 257.153 104.695 257.435 104.695ZM227.426 152.284C227.426 149.656 229.346 147.525 231.713 147.525H240.287C242.655 147.525 244.574 149.656 244.574 152.284C244.574 154.913 242.655 157.043 240.287 157.043H231.713C229.346 157.043 227.426 154.913 227.426 152.284ZM188.844 190.355C195.947 190.355 201.705 183.964 201.705 176.079V168.184C199.203 166.538 196.831 164.659 194.614 162.568C187.672 164.008 181.223 167.552 175.984 172.809V176.079C175.984 183.964 181.741 190.355 188.844 190.355ZM270.295 176.079C270.295 183.964 276.053 190.355 283.156 190.355C290.259 190.355 296.017 183.964 296.017 176.079V172.809C290.777 167.552 284.328 164.008 277.386 162.568C275.169 164.659 272.798 166.538 270.295 168.184V176.079ZM193.131 171.32H184.557V180.838H193.131V171.32ZM287.443 171.32H278.869V180.838H287.443V171.32ZM210.339 172.633C210.971 187.862 222.267 199.854 236 199.873C249.746 199.874 261.063 187.876 261.696 172.633C256.06 174.9 250.113 176.065 244.119 176.079H227.915C221.921 176.065 215.974 174.9 210.339 172.633Z" fill="white"/>
</g>
<defs>
<clipPath id="clip0_5_11">
<rect width="472" height="411" fill="white"/>
</clipPath>
</defs>
</svg>
