<svg width="435" height="450" viewBox="0 0 435 450" fill="none" xmlns="http://www.w3.org/2000/svg">
<ellipse cx="217.5" cy="225" rx="217.5" ry="225" fill="#090606" fill-opacity="0.9"/>
<path d="M288.474 200.182C288.454 215.589 283.57 230.522 274.638 242.481C298.002 250.533 313.91 274.072 314 300.724V384H303.789V356.241H283.368V384H273.158V322.931H283.368V345.138H303.789V300.724C303.783 291.855 301.592 283.15 297.444 275.514C294.67 285.588 286.868 293.07 277.328 294.799C267.789 296.529 258.176 292.204 252.548 283.653C246.199 295.877 234.913 304.122 222.105 305.893V334.034H211.895V305.893C199.087 304.122 187.801 295.877 181.452 283.653C175.823 292.204 166.211 296.529 156.672 294.799C147.132 293.07 139.33 285.588 136.556 275.514C132.408 283.15 130.217 291.855 130.211 300.724V345.138H150.632V322.931H160.842V384H150.632V356.241H130.211V384H120V300.724C120.087 274.071 135.996 250.53 159.362 242.481C150.43 230.521 145.546 215.589 145.526 200.182V195.241C134.248 195.241 125.105 185.299 125.105 173.035C125.105 160.77 134.248 150.828 145.526 150.828V139.724C145.526 96.7982 177.526 62 217 62C256.474 62 288.474 96.7982 288.474 139.724V150.828C299.752 150.828 308.895 160.77 308.895 173.035C308.895 185.299 299.752 195.241 288.474 195.241V200.182ZM155.737 139.724V200.182C155.735 215.069 161.173 229.346 170.853 239.872C180.533 250.399 193.662 256.312 207.351 256.31H226.649C240.338 256.312 253.467 250.399 263.147 239.872C272.827 229.346 278.265 215.069 278.263 200.182V139.724C278.263 102.931 250.835 73.1034 217 73.1034C183.165 73.1034 155.737 102.931 155.737 139.724ZM201.684 167.483H181.263C178.444 167.483 176.158 164.997 176.158 161.931C176.158 158.865 178.444 156.379 181.263 156.379H201.684C204.504 156.379 206.789 158.865 206.789 161.931C206.789 164.997 204.504 167.483 201.684 167.483ZM211.895 200.793H217C222.639 200.793 227.21 195.822 227.21 189.69V167.483H252.737C255.556 167.483 257.842 164.997 257.842 161.931C257.842 158.865 255.556 156.379 252.737 156.379H227.21C221.571 156.379 217 161.35 217 167.483V189.69H211.895C209.075 189.69 206.789 192.175 206.789 195.241C206.789 198.308 209.075 200.793 211.895 200.793ZM145.526 161.931C139.887 161.931 135.316 166.902 135.316 173.035C135.316 179.167 139.887 184.138 145.526 184.138V161.931ZM288.474 184.138C294.113 184.138 298.684 179.167 298.684 173.034C298.684 166.902 294.113 161.931 288.474 161.931V184.138ZM191.474 184.138C191.809 184.138 192.141 184.102 192.47 184.031C192.798 183.96 193.118 183.855 193.427 183.715C193.737 183.576 194.031 183.405 194.31 183.202C194.589 183 194.847 182.77 195.084 182.512C195.321 182.254 195.533 181.974 195.719 181.671C195.905 181.368 196.062 181.048 196.19 180.711C196.319 180.374 196.416 180.027 196.481 179.669C196.546 179.312 196.579 178.951 196.579 178.586C196.579 178.222 196.546 177.861 196.481 177.503C196.416 177.145 196.319 176.798 196.19 176.461C196.062 176.125 195.905 175.805 195.719 175.502C195.533 175.198 195.321 174.918 195.084 174.661C194.847 174.403 194.589 174.172 194.31 173.97C194.031 173.767 193.737 173.596 193.427 173.457C193.118 173.317 192.799 173.212 192.47 173.141C192.141 173.07 191.809 173.034 191.474 173.034C191.138 173.034 190.806 173.07 190.478 173.141C190.149 173.212 189.83 173.317 189.52 173.457C189.21 173.596 188.916 173.767 188.637 173.97C188.358 174.172 188.101 174.403 187.864 174.661C187.627 174.918 187.415 175.198 187.229 175.502C187.042 175.805 186.885 176.125 186.757 176.461C186.629 176.798 186.532 177.145 186.466 177.503C186.401 177.861 186.368 178.222 186.368 178.586C186.368 178.951 186.401 179.312 186.466 179.669C186.532 180.027 186.629 180.374 186.757 180.711C186.885 181.048 187.042 181.368 187.229 181.671C187.415 181.974 187.627 182.254 187.864 182.512C188.101 182.77 188.358 183 188.637 183.202C188.916 183.405 189.21 183.576 189.52 183.715C189.83 183.855 190.149 183.96 190.478 184.031C190.806 184.102 191.138 184.138 191.474 184.138ZM242.526 184.138C242.862 184.138 243.194 184.102 243.522 184.031C243.851 183.96 244.17 183.855 244.48 183.715C244.79 183.576 245.084 183.405 245.363 183.202C245.642 183 245.899 182.77 246.136 182.512C246.373 182.254 246.585 181.974 246.771 181.671C246.958 181.368 247.115 181.048 247.243 180.711C247.371 180.374 247.468 180.027 247.534 179.669C247.599 179.312 247.632 178.951 247.632 178.586C247.632 178.222 247.599 177.861 247.534 177.503C247.468 177.145 247.371 176.798 247.243 176.461C247.115 176.125 246.958 175.805 246.771 175.502C246.585 175.198 246.373 174.918 246.136 174.661C245.899 174.403 245.642 174.172 245.363 173.97C245.084 173.767 244.79 173.596 244.48 173.457C244.17 173.317 243.851 173.212 243.522 173.141C243.194 173.07 242.862 173.034 242.526 173.034C242.191 173.034 241.859 173.07 241.53 173.141C241.202 173.212 240.882 173.317 240.573 173.457C240.263 173.596 239.969 173.767 239.69 173.97C239.411 174.172 239.153 174.403 238.916 174.661C238.679 174.918 238.467 175.198 238.281 175.502C238.095 175.805 237.938 176.125 237.81 176.461C237.681 176.798 237.584 177.145 237.519 177.503C237.454 177.861 237.421 178.222 237.421 178.586C237.421 178.951 237.454 179.312 237.519 179.669C237.584 180.027 237.681 180.374 237.81 180.711C237.938 181.048 238.095 181.368 238.281 181.671C238.467 181.974 238.679 182.254 238.916 182.512C239.153 182.77 239.411 183 239.69 183.202C239.969 183.405 240.263 183.576 240.573 183.715C240.882 183.855 241.201 183.96 241.53 184.031C241.859 184.102 242.191 184.138 242.526 184.138ZM206.789 239.655C206.789 236.589 209.075 234.103 211.895 234.103H222.105C224.925 234.103 227.211 236.589 227.211 239.655C227.211 242.721 224.925 245.207 222.105 245.207H211.895C209.075 245.207 206.789 242.721 206.789 239.655ZM160.842 284.069C169.301 284.069 176.158 276.612 176.158 267.414V258.204C173.178 256.284 170.353 254.092 167.714 251.652C159.446 253.332 151.766 257.467 145.526 263.6V267.414C145.526 276.612 152.383 284.069 160.842 284.069ZM257.842 267.414C257.842 276.612 264.699 284.069 273.158 284.069C281.617 284.069 288.474 276.612 288.474 267.414V263.6C282.234 257.467 274.554 253.332 266.286 251.652C263.647 254.092 260.822 256.284 257.842 258.204V267.414ZM165.947 261.862H155.737V272.966H165.947V261.862ZM278.263 261.862H268.053V272.966H278.263V261.862ZM186.44 263.394C187.192 281.16 200.646 295.15 217 295.172C233.37 295.174 246.848 281.177 247.601 263.394C240.89 266.039 233.808 267.398 226.669 267.414H207.371C200.233 267.398 193.151 266.039 186.44 263.394Z" fill="#44D62C"/>
</svg>
