<svg width="513" height="440" viewBox="0 0 513 440" fill="none" xmlns="http://www.w3.org/2000/svg">
<path d="M67.9339 400.85C67.9339 399.145 66.6877 397.73 64.3322 397.121C64.072 397.06 62.7984 396.71 62.5519 396.634C60.8949 396.177 60.3745 395.964 60.3745 395.493C60.3745 394.96 61.0729 394.473 62.6478 394.488C63.8666 394.488 65.2224 395.219 65.8797 396.071L67.7285 394.047C66.5507 392.707 64.8115 391.901 62.6889 391.901C59.4843 391.901 57.6629 393.499 57.6629 395.569C57.6629 397.745 59.5665 398.567 61.5385 399.1C61.785 399.176 63.3462 399.587 63.5927 399.647C65.0169 400.028 65.2223 400.606 65.2223 400.85C65.2223 401.474 64.6746 401.93 63.0586 401.93C61.785 401.93 60.1827 401.306 59.2789 400.332L57.4575 402.372C58.827 403.772 60.7305 404.533 62.8258 404.533C66.3179 404.533 67.9339 402.798 67.9339 400.85Z" fill="#44D62C"/>
<path d="M85.3104 392.053H82.64V398.673C82.64 400.865 81.9005 401.915 79.9284 401.915C77.9153 401.915 77.2032 400.865 77.2032 398.673V392.053H74.5327V398.689C74.5327 402.387 76.2856 404.533 79.9284 404.533C83.5712 404.533 85.3104 402.356 85.3104 398.689V392.053Z" fill="#44D62C"/>
<path d="M96.1901 399.13L96.4777 398.856L97.3131 396.938L97.7239 395.69L98.1348 396.938L98.9838 398.856L99.2577 399.13H96.1901ZM98.8606 392.053H96.601L91.082 404.381H94.0264L95.1904 401.717L95.0261 401.443H100.408L100.244 401.717L101.435 404.381H104.352L98.8606 392.053Z" fill="#44D62C"/>
<path d="M125.978 396.116C125.978 396.969 125.553 397.593 124.335 397.593H121.021L121.267 397.319V394.929L121.021 394.655H124.348C125.567 394.655 125.978 395.234 125.978 396.116ZM128.69 396.116C128.69 393.727 127.046 392.053 124.348 392.053H118.597V404.381H121.267V400.469L121.021 400.195H124.335C127.06 400.195 128.69 398.43 128.69 396.116Z" fill="#44D62C"/>
<path d="M142.539 396.086C142.539 396.725 142.06 397.486 140.69 397.486H137.718L137.965 397.212V394.929L137.718 394.655H140.841C142.019 394.655 142.539 395.249 142.539 396.086ZM144.525 400.195C144.21 399.541 143.799 399.13 143.429 398.932V398.902C144.388 398.415 145.25 397.182 145.25 395.98C145.25 393.27 143.087 392.053 140.841 392.053H135.294V404.381H137.965V400.134L137.732 399.876H139.773C141.019 399.876 141.58 400.271 141.991 401.108L143.566 404.381H146.551L144.525 400.195Z" fill="#44D62C"/>
<path d="M162.023 401.778H154.929L155.175 401.504V399.8L154.929 399.526H161.365V396.908H154.929L155.175 396.634V394.929L154.929 394.655H162.023V392.053H152.505V404.381H162.023V401.778Z" fill="#44D62C"/>
<path d="M178.789 400.85C178.789 399.145 177.543 397.73 175.187 397.121C174.927 397.06 173.654 396.71 173.407 396.634C171.75 396.177 171.23 395.964 171.23 395.493C171.23 394.96 171.928 394.473 173.503 394.488C174.722 394.488 176.078 395.219 176.735 396.071L178.584 394.047C177.406 392.707 175.667 391.901 173.544 391.901C170.34 391.901 168.518 393.499 168.518 395.569C168.518 397.745 170.422 398.567 172.394 399.1C172.64 399.176 174.201 399.587 174.448 399.647C175.872 400.028 176.078 400.606 176.078 400.85C176.078 401.474 175.53 401.93 173.914 401.93C172.64 401.93 171.038 401.306 170.134 400.332L168.313 402.372C169.682 403.772 171.586 404.533 173.681 404.533C177.173 404.533 178.789 402.798 178.789 400.85Z" fill="#44D62C"/>
<path d="M194.905 401.778H187.811L188.058 401.504V399.8L187.811 399.526H194.248V396.908H187.811L188.058 396.634V394.929L187.811 394.655H194.905V392.053H185.387V404.381H194.905V401.778Z" fill="#44D62C"/>
<path d="M212.287 392.053H209.617V399.602H209.589L208.726 398.171L204.016 392.053H201.811V404.381H204.481V396.756H204.509L205.453 398.308L210.082 404.381H212.287V392.053Z" fill="#44D62C"/>
<path d="M228.267 400.287C227.624 401.306 226.418 401.93 225.172 401.93C222.707 401.93 221.762 400.408 221.762 398.278C221.762 396.101 222.776 394.534 225.186 394.534C226.46 394.534 227.569 395.142 228.212 396.223L229.993 394.26C228.842 392.707 227.268 391.916 225.172 391.916C221.242 391.916 219.051 394.61 219.051 398.278C219.051 401.55 220.722 403.954 223.885 404.457L224.57 405.218C224.679 405.339 224.761 405.492 224.501 405.781L223.433 406.968L224.515 408.17L225.925 406.618C226.446 406.024 226.432 405.309 225.925 404.792L225.665 404.533C227.418 404.381 228.952 403.513 230.006 402.174L228.267 400.287Z" fill="#44D62C"/>
<path d="M240.512 399.13L240.8 398.856L241.635 396.938L242.046 395.69L242.457 396.938L243.306 398.856L243.58 399.13H240.512ZM243.183 392.053H240.923L235.404 404.381H238.349L239.513 401.717L239.348 401.443H244.73L244.566 401.717L245.757 404.381H248.674L243.183 392.053Z" fill="#44D62C"/>
<path d="M272.401 401.778H265.307L265.554 401.504V399.8L265.307 399.526H271.744V396.908H265.307L265.554 396.634V394.929L265.307 394.655H272.401V392.053H262.883V404.381H272.401V401.778Z" fill="#44D62C"/>
<path d="M291.674 392.053H289.455L285.949 398.612L285.552 399.693H285.525L285.1 398.612L281.608 392.053H279.417V404.396H282.087V397.852H282.115L282.649 399.145L285.525 404.548H285.566L288.442 399.145L288.976 397.852H289.003V404.396H291.674L291.674 392.053Z" fill="#44D62C"/>
<path d="M316.894 400.85C316.894 399.145 315.648 397.73 313.293 397.121C313.032 397.06 311.759 396.71 311.512 396.634C309.855 396.177 309.335 395.964 309.335 395.493C309.335 394.96 310.033 394.473 311.608 394.488C312.827 394.488 314.183 395.219 314.84 396.071L316.689 394.047C315.511 392.707 313.772 391.901 311.649 391.901C308.445 391.901 306.623 393.499 306.623 395.569C306.623 397.745 308.527 398.567 310.499 399.1C310.745 399.176 312.307 399.587 312.553 399.647C313.977 400.028 314.183 400.606 314.183 400.85C314.183 401.474 313.635 401.93 312.019 401.93C310.745 401.93 309.143 401.306 308.239 400.332L306.418 402.372C307.787 403.772 309.691 404.533 311.786 404.533C315.278 404.533 316.894 402.798 316.894 400.85Z" fill="#44D62C"/>
<path d="M334.271 392.053H331.6V398.673C331.6 400.865 330.861 401.915 328.889 401.915C326.876 401.915 326.164 400.865 326.164 398.673V392.053H323.493V398.689C323.493 402.387 325.246 404.533 328.889 404.533C332.532 404.533 334.271 402.356 334.271 398.689V392.053Z" fill="#44D62C"/>
<path d="M345.15 399.13L345.438 398.856L346.273 396.938L346.684 395.69L347.095 396.938L347.944 398.856L348.218 399.13H345.15ZM347.821 392.053H345.561L340.042 404.381H342.987L344.151 401.717L343.986 401.443H349.368L349.204 401.717L350.395 404.381H353.312L347.821 392.053Z" fill="#44D62C"/>
<path d="M369.465 400.85C369.465 399.145 368.218 397.73 365.863 397.121C365.603 397.06 364.329 396.71 364.083 396.634C362.426 396.177 361.905 395.964 361.905 395.493C361.905 394.96 362.604 394.473 364.179 394.488C365.397 394.488 366.753 395.219 367.411 396.071L369.259 394.047C368.082 392.707 366.342 391.901 364.22 391.901C361.015 391.901 359.194 393.499 359.194 395.569C359.194 397.745 361.097 398.567 363.069 399.1C363.316 399.176 364.877 399.587 365.123 399.647C366.548 400.028 366.753 400.606 366.753 400.85C366.753 401.474 366.205 401.93 364.589 401.93C363.316 401.93 361.714 401.306 360.81 400.332L358.988 402.372C360.358 403.772 362.261 404.533 364.357 404.533C367.849 404.533 369.465 402.798 369.465 400.85Z" fill="#44D62C"/>
<path d="M396.465 392.053H394.247L390.741 398.612L390.344 399.693H390.317L389.892 398.612L386.4 392.053H384.209V404.396H386.879V397.852H386.907L387.441 399.145L390.317 404.548H390.358L393.233 399.145L393.768 397.852H393.795V404.396H396.465V392.053Z" fill="#44D62C"/>
<path d="M407.975 399.13L408.263 398.856L409.098 396.938L409.509 395.69L409.92 396.938L410.769 398.856L411.043 399.13H407.975ZM410.646 392.053H408.386L402.867 404.381H405.812L406.976 401.717L406.811 401.443H412.193L412.029 401.717L413.22 404.381H416.137L410.646 392.053ZM412.056 387.959C411.837 389.07 411.33 389.116 410.947 389.116C410.824 389.116 410.618 389.055 410.427 388.979C410.208 388.872 410.029 388.766 409.824 388.629C409.413 388.339 408.756 388.05 408.208 388.05C407.154 388.05 406.346 388.933 406.072 390.014L407.113 391.17C407.359 390.135 407.879 389.998 408.167 389.998C408.304 389.998 408.523 390.074 408.729 390.151C408.948 390.242 409.112 390.364 409.317 390.485C409.756 390.79 410.386 391.064 410.906 391.064C411.892 391.064 412.741 390.379 413.097 389.131L412.056 387.959Z" fill="#44D62C"/>
<path d="M430.56 398.278C430.56 400.454 429.656 401.915 427.397 401.915C425.151 401.915 424.22 400.454 424.22 398.278C424.22 396.056 425.151 394.518 427.397 394.518C429.643 394.518 430.56 396.101 430.56 398.278ZM433.272 398.278C433.272 394.64 431.259 391.901 427.383 391.901C423.535 391.901 421.508 394.655 421.508 398.278C421.508 401.945 423.535 404.533 427.383 404.533C431.176 404.533 433.272 401.945 433.272 398.278Z" fill="#44D62C"/>
<path d="M449.946 400.85C449.946 399.145 448.7 397.73 446.345 397.121C446.084 397.06 444.811 396.71 444.564 396.634C442.907 396.177 442.387 395.964 442.387 395.493C442.387 394.96 443.085 394.473 444.66 394.488C445.879 394.488 447.235 395.219 447.892 396.071L449.741 394.047C448.563 392.707 446.824 391.901 444.701 391.901C441.497 391.901 439.675 393.499 439.675 395.569C439.675 397.745 441.579 398.567 443.551 399.1C443.797 399.176 445.359 399.587 445.605 399.647C447.029 400.028 447.235 400.606 447.235 400.85C447.235 401.474 446.687 401.93 445.071 401.93C443.797 401.93 442.195 401.306 441.291 400.332L439.47 402.372C440.839 403.772 442.743 404.533 444.838 404.533C448.33 404.533 449.946 402.798 449.946 400.85Z" fill="#44D62C"/>
<path d="M45.9086 350.934C46.8344 352.68 47.2973 354.559 47.2973 356.569C47.2973 358.626 46.8452 360.517 45.9409 362.24C44.9935 363.962 43.734 365.338 42.1622 366.367C40.5905 367.396 38.9003 367.91 37.0918 367.91C35.1971 367.91 33.4961 367.384 31.989 366.331C30.4388 365.326 29.2007 363.95 28.2749 362.204C27.3491 360.457 26.8862 358.579 26.8862 356.569C26.8862 354.463 27.3599 352.573 28.3072 350.898C29.2115 349.175 30.4495 347.799 32.0213 346.77C33.593 345.741 35.2832 345.227 37.0918 345.227C38.9434 345.227 40.6443 345.729 42.1945 346.734C43.7448 347.787 44.9828 349.187 45.9086 350.934ZM47.2973 372.361V375.807H54.5317L54.5962 355.994C54.5962 352.597 53.7996 349.438 52.2063 346.519C50.6131 343.648 48.4708 341.362 45.7794 339.664C43.0881 337.965 40.1922 337.115 37.0918 337.115C33.9483 337.115 31.0416 337.977 28.3718 339.699C25.6589 341.47 23.5166 343.851 21.9449 346.842C20.3731 349.833 19.5873 353.075 19.5873 356.569C19.5873 360.11 20.3839 363.34 21.9772 366.259C23.5274 369.274 25.6482 371.655 28.3395 373.402C31.0309 375.149 33.9483 376.022 37.0918 376.022C40.7951 376.022 44.1969 374.802 47.2973 372.361Z" fill="#44D62C"/>
<path d="M57.8259 323.548V375.95H66.2875V343.576H72.0362L74.0386 335.249H66.2875V323.548H57.8259Z" fill="#44D62C"/>
<path d="M77.2681 323.548V375.95H85.7297V343.576H91.4784L93.4807 335.249H85.7297V323.548H77.2681Z" fill="#44D62C"/>
<path d="M103.04 340.633C100.026 342.93 97.8729 345.945 96.5811 349.677C95.806 351.975 95.4185 354.272 95.4185 356.569C95.4185 360.493 96.4519 364.154 98.5189 367.552C100.371 370.614 102.599 372.804 105.204 374.12C107.809 375.436 110.361 376.094 112.858 376.094C115.83 376.094 118.629 375.304 121.255 373.725C123.882 372.146 125.992 369.992 127.585 367.264L120.545 364.249C119.597 365.446 118.446 366.367 117.089 367.013C115.733 367.659 114.322 367.982 112.858 367.982C111.567 367.982 110.361 367.743 109.241 367.264C107.863 366.69 106.657 365.817 105.624 364.644C104.591 363.472 103.815 362.096 103.299 360.517L130.04 359.727V359.655L130.169 359.727C130.298 358.722 130.363 357.693 130.363 356.64C130.363 352.716 129.351 349.055 127.327 345.658C125.475 342.643 123.236 340.477 120.609 339.161C117.983 337.845 115.442 337.187 112.988 337.187C109.37 337.187 106.055 338.336 103.04 340.633ZM103.234 353.051L103.363 352.621C104.138 350.371 105.409 348.601 107.174 347.309C108.94 346.016 110.878 345.37 112.988 345.37C114.279 345.37 115.485 345.61 116.605 346.088C117.983 346.662 119.178 347.512 120.19 348.637C121.202 349.761 121.944 351.065 122.418 352.549L103.234 353.051Z" fill="#44D62C"/>
<path d="M157.298 354.343V376.094H164.532L164.661 354.343C164.661 350.993 163.908 347.979 162.401 345.299C160.851 342.762 158.848 340.788 156.394 339.376C153.939 337.965 151.291 337.259 148.449 337.259C145.693 337.259 143.066 337.953 140.569 339.341C138.028 340.776 136.015 342.798 134.529 345.406C133.044 348.014 132.301 350.993 132.301 354.343V376.094H139.535V354.343C139.535 351.568 140.396 349.378 142.119 347.775C143.841 346.172 145.951 345.37 148.449 345.37C150.903 345.37 152.992 346.172 154.714 347.775C156.437 349.378 157.298 351.568 157.298 354.343Z" fill="#44D62C"/>
<path d="M201.608 357.215L201.544 323.476L194.309 327.783V340.848C191.209 338.407 187.807 337.187 184.104 337.187C180.96 337.187 178.054 338.049 175.384 339.771C172.671 341.542 170.529 343.923 168.957 346.914C167.385 349.905 166.599 353.147 166.599 356.64C166.599 360.182 167.396 363.412 168.989 366.331C170.539 369.346 172.66 371.727 175.351 373.474C178.043 375.22 180.96 376.094 184.104 376.094C187.204 376.094 190.111 375.232 192.824 373.51C195.537 371.787 197.679 369.49 199.251 366.618C200.822 363.747 201.608 360.612 201.608 357.215ZM192.921 351.005C193.846 352.752 194.309 354.631 194.309 356.64C194.309 358.698 193.857 360.589 192.953 362.311C192.005 364.034 190.746 365.41 189.174 366.439C187.602 367.468 185.912 367.982 184.104 367.982C182.209 367.982 180.508 367.456 179.001 366.403C177.451 365.398 176.213 364.022 175.287 362.275C174.361 360.529 173.898 358.65 173.898 356.64C173.898 354.535 174.372 352.645 175.319 350.97C176.223 349.247 177.461 347.871 179.033 346.842C180.605 345.813 182.295 345.299 184.104 345.299C185.955 345.299 187.656 345.801 189.207 346.806C190.757 347.859 191.995 349.259 192.921 351.005Z" fill="#44D62C"/>
<path d="M229.867 350.934C230.793 352.68 231.256 354.559 231.256 356.569C231.256 358.626 230.804 360.517 229.9 362.24C228.952 363.962 227.693 365.338 226.121 366.367C224.549 367.396 222.859 367.91 221.05 367.91C219.156 367.91 217.455 367.384 215.948 366.331C214.397 365.326 213.159 363.95 212.234 362.204C211.308 360.457 210.845 358.579 210.845 356.569C210.845 354.463 211.319 352.573 212.266 350.898C213.17 349.175 214.408 347.799 215.98 346.77C217.552 345.741 219.242 345.227 221.05 345.227C222.902 345.227 224.603 345.729 226.153 346.734C227.703 347.787 228.941 349.187 229.867 350.934ZM231.256 372.361V375.807H238.49L238.555 355.994C238.555 352.597 237.758 349.438 236.165 346.519C234.572 343.648 232.429 341.362 229.738 339.664C227.047 337.965 224.151 337.115 221.05 337.115C217.907 337.115 215 337.977 212.33 339.699C209.618 341.47 207.475 343.851 205.904 346.842C204.332 349.833 203.546 353.075 203.546 356.569C203.546 360.11 204.343 363.34 205.936 366.259C207.486 369.274 209.607 371.655 212.298 373.402C214.989 375.149 217.907 376.022 221.05 376.022C224.754 376.022 228.156 374.802 231.256 372.361Z" fill="#44D62C"/>
<path d="M265.49 354.343V376.094H272.724L272.853 354.343C272.853 350.993 272.1 347.979 270.593 345.299C269.043 342.762 267.04 340.788 264.586 339.376C262.131 337.965 259.483 337.259 256.641 337.259C253.885 337.259 251.258 337.953 248.761 339.341C246.22 340.776 244.207 342.798 242.721 345.406C241.236 348.014 240.493 350.993 240.493 354.343V376.094H247.727V354.343C247.727 351.568 248.588 349.378 250.311 347.775C252.033 346.172 254.143 345.37 256.641 345.37C259.095 345.37 261.184 346.172 262.906 347.775C264.629 349.378 265.49 351.568 265.49 354.343Z" fill="#44D62C"/>
<path d="M277.149 346.914C275.577 349.905 274.791 353.147 274.791 356.64C274.791 360.182 275.588 363.412 277.181 366.331C278.731 369.346 280.852 371.727 283.543 373.474C286.235 375.22 289.152 376.094 292.296 376.094C295.095 376.094 297.678 375.424 300.047 374.084C302.458 372.744 304.482 370.901 306.118 368.557C307.755 366.212 308.853 363.579 309.413 360.66H301.855C301.123 362.814 299.885 364.572 298.141 365.936C296.397 367.3 294.449 367.982 292.296 367.982C290.401 367.982 288.7 367.456 287.193 366.403C285.643 365.398 284.405 364.022 283.479 362.275C282.553 360.529 282.09 358.65 282.09 356.64C282.09 354.535 282.564 352.644 283.511 350.969C284.415 349.247 285.653 347.871 287.225 346.842C288.797 345.813 290.487 345.299 292.296 345.299C294.449 345.299 296.386 345.969 298.109 347.309C299.831 348.648 301.059 350.395 301.791 352.549L309.413 352.621C308.853 349.749 307.755 347.117 306.118 344.724C304.439 342.379 302.394 340.537 299.982 339.197C297.571 337.857 295.009 337.187 292.296 337.187C289.152 337.187 286.245 338.048 283.576 339.771C280.863 341.542 278.72 343.923 277.149 346.914Z" fill="#44D62C"/>
<path d="M318.972 340.633C315.958 342.93 313.805 345.945 312.513 349.677C311.738 351.975 311.35 354.272 311.35 356.569C311.35 360.493 312.384 364.154 314.451 367.552C316.302 370.614 318.531 372.804 321.136 374.12C323.741 375.436 326.293 376.094 328.79 376.094C331.761 376.094 334.561 375.304 337.187 373.725C339.814 372.146 341.924 369.992 343.517 367.264L336.477 364.249C335.529 365.446 334.378 366.367 333.021 367.013C331.665 367.659 330.254 367.982 328.79 367.982C327.498 367.982 326.293 367.743 325.173 367.264C323.795 366.69 322.589 365.817 321.556 364.644C320.522 363.472 319.747 362.096 319.231 360.517L345.972 359.727V359.655L346.101 359.727C346.23 358.722 346.295 357.693 346.295 356.64C346.295 352.716 345.283 349.055 343.259 345.658C341.407 342.643 339.168 340.477 336.541 339.161C333.915 337.845 331.374 337.187 328.919 337.187C325.302 337.187 321.987 338.336 318.972 340.633ZM319.166 353.051L319.295 352.621C320.07 350.371 321.341 348.601 323.106 347.309C324.872 346.016 326.809 345.37 328.919 345.37C330.211 345.37 331.417 345.61 332.537 346.088C333.915 346.662 335.11 347.512 336.122 348.637C337.133 349.761 337.876 351.065 338.35 352.549L319.166 353.051Z" fill="#44D62C"/>
<path d="M360.634 323.189L360.505 376.094H367.739V354.343C367.739 351.568 368.601 349.378 370.323 347.775C372.046 346.172 374.156 345.37 376.653 345.37C379.108 345.37 381.196 346.172 382.919 347.775C384.641 349.378 385.502 351.568 385.502 354.343V376.094H392.737L392.866 354.343C392.866 350.993 392.112 347.979 390.605 345.299C389.055 342.762 387.053 340.788 384.598 339.376C382.144 337.965 379.495 337.259 376.653 337.259C373.381 337.259 370.409 338.168 367.739 339.987V326.778L360.634 323.189Z" fill="white"/>
<path d="M402.425 340.633C399.411 342.93 397.258 345.945 395.966 349.677C395.191 351.975 394.803 354.272 394.803 356.569C394.803 360.493 395.837 364.154 397.904 367.552C399.756 370.614 401.984 372.804 404.589 374.12C407.194 375.436 409.746 376.094 412.243 376.094C415.215 376.094 418.014 375.304 420.64 373.725C423.267 372.146 425.377 369.992 426.97 367.264L419.93 364.249C418.983 365.446 417.831 366.367 416.474 367.013C415.118 367.659 413.707 367.982 412.243 367.982C410.952 367.982 409.746 367.743 408.626 367.264C407.248 366.69 406.043 365.817 405.009 364.644C403.976 363.472 403.2 362.096 402.684 360.517L429.425 359.727V359.655L429.554 359.727C429.683 358.722 429.748 357.693 429.748 356.64C429.748 352.716 428.736 349.055 426.712 345.658C424.86 342.643 422.621 340.477 419.994 339.161C417.368 337.845 414.827 337.187 412.373 337.187C408.755 337.187 405.44 338.336 402.425 340.633ZM402.619 353.051L402.748 352.621C403.523 350.371 404.794 348.601 406.559 347.309C408.325 346.016 410.263 345.37 412.373 345.37C413.664 345.37 414.87 345.61 415.99 346.088C417.368 346.662 418.563 347.512 419.575 348.637C420.587 349.761 421.329 351.065 421.803 352.549L402.619 353.051Z" fill="white"/>
<path d="M450.87 345.729V336.9L449.19 336.756C446.09 336.756 443.205 337.594 440.535 339.269C437.779 340.992 435.615 343.301 434.043 346.196C432.472 349.091 431.686 352.238 431.686 355.635L431.75 376.237H439.308L439.178 356.928C439.178 354.822 439.652 352.932 440.599 351.257C441.504 349.534 442.742 348.158 444.313 347.129C445.885 346.1 447.575 345.586 449.384 345.586C449.599 345.586 450.094 345.634 450.87 345.729Z" fill="white"/>
<path d="M461.56 373.474C464.251 375.22 467.168 376.094 470.312 376.094C473.498 376.094 476.427 375.208 479.096 373.438C481.766 371.715 483.887 369.358 485.459 366.367C487.03 363.376 487.816 360.134 487.816 356.64C487.816 353.147 487.041 349.893 485.491 346.878C483.898 343.911 481.745 341.554 479.032 339.807C476.319 338.06 473.412 337.187 470.312 337.187C467.168 337.187 464.262 338.049 461.592 339.771C458.879 341.542 456.737 343.923 455.165 346.914C453.593 349.905 452.807 353.147 452.807 356.64C452.807 360.182 453.604 363.412 455.197 366.331C456.747 369.346 458.868 371.727 461.56 373.474ZM475.189 365.972C473.703 366.929 472.077 367.408 470.312 367.408C468.589 367.408 466.975 366.929 465.467 365.972C463.96 365.015 462.776 363.711 461.915 362.06C461.054 360.409 460.623 358.603 460.623 356.64C460.623 354.678 461.054 352.86 461.915 351.185C462.776 349.51 463.95 348.206 465.435 347.273C466.921 346.34 468.546 345.873 470.312 345.873C472.077 345.873 473.714 346.351 475.221 347.309C476.728 348.266 477.901 349.57 478.741 351.221C479.581 352.872 480.001 354.678 480.001 356.64C480.001 358.555 479.57 360.349 478.709 362.024C477.848 363.699 476.674 365.015 475.189 365.972Z" fill="white"/>
<path fill-rule="evenodd" clip-rule="evenodd" d="M313.239 117.633C313.222 130.749 309.154 143.46 301.714 153.641C321.176 160.496 334.427 180.534 334.502 203.223V274.115H325.997V250.484H308.986V274.115H300.481V222.128H308.986V241.032H325.997V203.223C325.992 195.673 324.166 188.262 320.711 181.762C318.401 190.338 311.901 196.707 303.955 198.179C296.009 199.652 288.002 195.97 283.313 188.69C278.024 199.097 268.623 206.116 257.954 207.623V231.58H249.449V207.623C238.781 206.116 229.379 199.097 224.091 188.69C219.402 195.97 211.395 199.652 203.449 198.179C195.503 196.707 189.003 190.338 186.693 181.762C183.237 188.262 181.412 195.673 181.407 203.223V241.032H198.417V222.128H206.923V274.115H198.417V250.484H181.407V274.115H172.901V203.223C172.974 180.533 186.226 160.494 205.689 153.641C198.25 143.46 194.181 130.749 194.165 117.633V113.427C184.77 113.427 177.154 104.963 177.154 94.5224C177.154 84.0819 184.77 75.6179 194.165 75.6179V66.1656C194.165 29.6233 220.82 0 253.702 0C286.583 0 313.239 29.6233 313.239 66.1656V75.6179C322.633 75.6179 330.249 84.0819 330.249 94.5224C330.249 104.963 322.633 113.427 313.239 113.427V117.633ZM202.67 66.1656V117.633C202.669 130.306 207.198 142.46 215.262 151.421C223.325 160.382 234.261 165.416 245.664 165.414H261.739C273.142 165.416 284.079 160.382 292.142 151.421C300.205 142.46 304.735 130.306 304.734 117.633V66.1656C304.734 34.8437 281.886 9.45222 253.702 9.45222C225.518 9.45222 202.67 34.8437 202.67 66.1656ZM240.944 89.7962H223.933C221.585 89.7962 219.681 87.6803 219.681 85.0701C219.681 82.4599 221.585 80.344 223.933 80.344H240.944C243.293 80.344 245.196 82.4599 245.196 85.0701C245.196 87.6803 243.293 89.7962 240.944 89.7962ZM249.449 118.153H253.702C258.399 118.153 262.207 113.921 262.207 108.701V89.7962H283.47C285.819 89.7962 287.723 87.6804 287.723 85.0701C287.723 82.4599 285.819 80.344 283.47 80.344H262.207C257.51 80.344 253.702 84.5758 253.702 89.7962V108.701H249.449C247.1 108.701 245.196 110.817 245.196 113.427C245.196 116.037 247.1 118.153 249.449 118.153ZM194.165 85.0701C189.467 85.0701 185.659 89.3019 185.659 94.5224C185.659 99.7428 189.467 103.975 194.165 103.975V85.0701ZM313.239 103.975C317.936 103.975 321.744 99.7428 321.744 94.5223C321.744 89.3019 317.936 85.0701 313.239 85.0701V103.975ZM232.439 103.975C232.718 103.975 232.994 103.944 233.268 103.884C233.542 103.823 233.808 103.734 234.066 103.615C234.324 103.496 234.569 103.351 234.801 103.178C235.034 103.006 235.248 102.81 235.446 102.59C235.643 102.371 235.82 102.132 235.975 101.874C236.13 101.616 236.261 101.344 236.368 101.057C236.475 100.77 236.555 100.475 236.61 100.17C236.664 99.8661 236.691 99.5588 236.691 99.2484C236.691 98.9381 236.664 98.6307 236.61 98.3264C236.555 98.022 236.474 97.7264 236.368 97.4397C236.261 97.153 236.13 96.8806 235.975 96.6226C235.82 96.3645 235.643 96.1259 235.446 95.9066C235.248 95.687 235.034 95.491 234.801 95.3186C234.569 95.1463 234.324 95.0007 234.066 94.8819C233.808 94.7631 233.542 94.6735 233.268 94.613C232.994 94.5525 232.718 94.5223 232.439 94.5223C232.159 94.5223 231.883 94.5525 231.609 94.613C231.335 94.6735 231.069 94.7632 230.811 94.8819C230.553 95.0007 230.308 95.1463 230.076 95.3186C229.844 95.491 229.629 95.687 229.431 95.9066C229.234 96.1259 229.058 96.3645 228.902 96.6226C228.747 96.8806 228.616 97.153 228.509 97.4397C228.403 97.7264 228.322 98.022 228.268 98.3264C228.213 98.6307 228.186 98.9381 228.186 99.2484C228.186 99.5588 228.213 99.8661 228.268 100.17C228.322 100.475 228.403 100.77 228.509 101.057C228.616 101.344 228.747 101.616 228.902 101.874C229.058 102.132 229.234 102.371 229.431 102.59C229.629 102.81 229.844 103.006 230.076 103.178C230.308 103.351 230.553 103.496 230.811 103.615C231.069 103.734 231.335 103.823 231.609 103.884C231.883 103.944 232.159 103.975 232.439 103.975ZM274.965 103.975C275.244 103.975 275.521 103.944 275.795 103.884C276.069 103.823 276.335 103.734 276.593 103.615C276.851 103.496 277.096 103.351 277.328 103.178C277.56 103.006 277.775 102.81 277.972 102.59C278.17 102.371 278.346 102.132 278.501 101.874C278.656 101.616 278.787 101.344 278.894 101.057C279.001 100.77 279.082 100.475 279.136 100.17C279.19 99.8661 279.218 99.5588 279.218 99.2484C279.218 98.9381 279.19 98.6307 279.136 98.3264C279.082 98.022 279.001 97.7264 278.894 97.4397C278.787 97.153 278.656 96.8806 278.501 96.6226C278.346 96.3645 278.17 96.1259 277.972 95.9066C277.775 95.687 277.56 95.491 277.328 95.3186C277.096 95.1463 276.851 95.0007 276.593 94.8819C276.335 94.7631 276.069 94.6735 275.795 94.613C275.521 94.5525 275.244 94.5223 274.965 94.5223C274.686 94.5223 274.409 94.5525 274.135 94.613C273.861 94.6735 273.596 94.7632 273.338 94.8819C273.08 95.0007 272.834 95.1463 272.602 95.3186C272.37 95.491 272.155 95.687 271.958 95.9066C271.76 96.1259 271.584 96.3645 271.429 96.6226C271.274 96.8806 271.143 97.153 271.036 97.4397C270.929 97.7264 270.848 98.022 270.794 98.3264C270.74 98.6307 270.712 98.9381 270.712 99.2484C270.712 99.5588 270.74 99.8661 270.794 100.17C270.848 100.475 270.929 100.77 271.036 101.057C271.143 101.344 271.274 101.616 271.429 101.874C271.584 102.132 271.76 102.371 271.958 102.59C272.155 102.81 272.37 103.006 272.602 103.178C272.834 103.351 273.08 103.496 273.338 103.615C273.596 103.734 273.861 103.823 274.135 103.884C274.409 103.944 274.686 103.975 274.965 103.975ZM245.196 151.236C245.196 148.626 247.1 146.51 249.449 146.51H257.954C260.303 146.51 262.207 148.626 262.207 151.236C262.207 153.846 260.303 155.962 257.954 155.962H249.449C247.1 155.962 245.196 153.846 245.196 151.236ZM206.923 189.045C213.969 189.045 219.681 182.697 219.681 174.866V167.026C217.198 165.391 214.845 163.526 212.647 161.449C205.76 162.879 199.363 166.399 194.165 171.62V174.866C194.165 182.697 199.876 189.045 206.923 189.045ZM287.723 174.866C287.723 182.697 293.435 189.045 300.481 189.045C307.527 189.045 313.239 182.697 313.239 174.866V171.62C308.041 166.399 301.644 162.879 294.757 161.449C292.558 163.526 290.205 165.391 287.723 167.026V174.866ZM211.175 170.14H202.67V179.592H211.175V170.14ZM304.734 170.14H296.228V179.592H304.734V170.14ZM228.245 171.445C228.872 186.568 240.079 198.478 253.702 198.497C267.338 198.498 278.565 186.583 279.192 171.445C273.602 173.696 267.702 174.853 261.756 174.866H245.681C239.735 174.853 233.836 173.696 228.245 171.445Z" fill="#44D62C"/>
</svg>
